<?xml version='1.0' encoding='utf-8'?>
<svg xmlns="http://www.w3.org/2000/svg" width="1343.7mm" height="1902.5mm" version="1.1" viewBox="0 0 1343.7 1902.5"><g transform="translate(3724.7 237.91)"><g transform="matrix(.93823 0 0 .93823 -230.06 -272.96)"><path d="m-3724.7 37.359h1432.1v2027.8h-1432.1z" fill="#fbead8" stop-color="#000000" stroke-linecap="square" stroke-width="5.3292"/><path d="m-2881.1 638.5c-24.995-2.1453-32.152-4.1073-52.172-14.303-24.405-12.428-36.378-21.555-61.945-47.218-23.704-23.794-43.894-49.689-70.511-90.435-56.816-86.978-64.288-97.618-86.017-122.49-37.062-42.418-71.902-60.917-121.24-64.374-17.928-1.2564-27.638-0.95615-94.466 2.9211-52.531 3.0479-86.318-4.4816-119.86-26.71-7.7044-5.1064-17.772-13.131-22.372-17.833l-8.3641-8.5483 21.83-2.2546c12.006-1.2401 35.018-2.2344 51.137-2.2095 28.953 0.0419 29.71 0.13411 62.576 7.3959 41.403 9.148 63.374 11.735 78.102 9.1968 15.21-2.6213 43.784-10.024 67.644-17.524 62.547-19.662 88.203-21.783 121.38-10.037 14.255 5.0471 17.501 6.8983 24.367 13.894 9.8436 10.03 16.26 22.065 23.728 44.507 4.9168 14.775 6.0308 20.801 7.3218 39.605 3.2651 47.558 13.832 82.057 36.132 117.96 43.739 70.421 127.59 128.92 216.89 151.31 16.583 4.1581 20.884 7.0461 20.884 14.022 0 6.3269-11.065 17.036-21.584 20.89-9.2081 3.3734-46.834 4.5151-73.467 2.2293z" fill="#fbaa1d" stroke-width="1.0658"/><path d="m-2936.5 658.16c-37.464-3.6977-76.123-17.45-112.42-39.99-27.407-17.021-44.308-32.047-85.847-76.323-11.894-12.678-26.865-27.047-33.268-31.932-42.471-32.401-84.67-39.516-167.68-28.273-80.563 10.911-111.94 10.899-144.95-0.0599-51.23-17.005-90.617-57.004-109-110.69-13.336-38.952-17.263-100.46-9.1022-142.56 3.7085-19.13 9.6838-41.631 10.768-40.547 0.4395 0.43948 3.871 7.9296 7.6262 16.645 30.347 70.435 83.414 113.16 156.74 126.19 13.681 2.4313 26.432 2.8311 93.467 2.9303 70.554 0.10418 78.635 0.38439 88.715 3.0737 25.786 6.8802 48.567 21.558 72.33 46.602 18.33 19.318 35.261 42.189 67.069 90.597 37.748 57.447 53.214 77.942 78.198 103.63 24.227 24.906 49.222 44.278 72.2 55.961 21.906 11.137 51.235 19.965 77.733 23.397l15.842 2.052-36.436-0.0754c-20.04-0.0419-38.932-0.32153-41.981-0.62264z" fill="#576738" stroke-width="1.0658"/><path d="m-3018.2 762.59c-2.6929-18.81-13.808-46.24-26.801-66.14-9.4936-14.54-34.35-38.596-51.525-49.866-35.999-23.622-81.644-42.188-128.32-52.195-52.658-11.289-116.12-12.705-177.43-3.9588-50.347 7.1823-115.11 28.696-164.08 54.506l-17.54 9.2449-1.7993-20.055c-0.9897-11.03-2.9954-31.104-4.4573-44.61-2.9468-27.224-1.5833-50.443 3.6042-61.375 4.5487-9.5857 17.719-21.66 28.232-25.883 8.5097-3.4183 11.813-3.8073 31.679-3.7304 20.318 0.0784 23.442 0.49457 37.233 4.9597 24.004 7.7714 42.957 10.426 73.66 10.319 30.206-0.10598 43.458-1.3956 87.922-8.5562 38.842-6.2551 80.321-7.183 99.012-2.2147 31.573 8.3927 52.497 24.174 86.304 65.094 36.444 44.112 71.223 71.576 119.4 94.285 35.73 16.843 61.802 23.686 96.087 25.221l22.971 1.0285-6.3368 2.8336c-24.131 10.791-46.28 22.612-57.704 30.796-14.774 10.584-33.841 28.717-42.37 40.295-3.0492 4.1387-5.796 7.5249-6.1041 7.5249-0.3083 0-1.0449-3.3862-1.6374-7.5249z" fill="#fbaa1d" stroke-width="1.0658"/><path d="m-3043.1 790.91c-4.7501-8.0824-18.557-22.207-28.975-29.641-22.956-16.381-44.649-22.873-80.36-24.047-35.756-1.1759-66.848 3.0035-132.61 17.825-119.7 26.979-204.23 28.179-316.84 4.497-19.246-4.0475-31.873-5.7343-47.88-6.3964l-21.741-0.8992 5.1074-6.5127c10.236-13.052 30.842-33.375 47.088-46.442 69.318-55.751 179.79-92.37 278.59-92.345 88.695 0.024 183.62 28.279 239.04 71.154 40.255 31.144 63.807 72.507 61.871 108.66l-0.4778 8.9309z" fill="#576738" stroke-width="1.0658"/><g transform="matrix(5.9875 0 0 5.9875 -1781.1 286.84)" fill="#f3713d" stroke-width=".17801"><path d="m-152.51 46.853c-2.7949-2.464-8.062-12.603-11.049-21.269-6.0226-17.472-6.2237-33.325-0.5309-41.836 2.4798-3.7077 5.3649-5.4535 9.3311-5.6464 1.323-0.0644 3.0005 0.0262 3.8365 0.20709 6.1348 1.3275 11.773 7.4601 14.591 15.869 2.5091 7.4891 2.6036 17.5 0.25135 26.608-1.9184 7.4288-6.1249 17.959-8.9314 22.357-1.847 2.8949-4.1686 5.032-5.457 5.0233-0.30552-2e-3 -1.224-0.59312-2.0411-1.3135z"/><path d="m-135.15 50.117c-1.1592-0.12286-7.6974-1.0758-9.0438-1.3181l-0.84173-0.15148 1.1093-1.363c2.9356-3.6072 5.5855-9.2419 9.973-21.207 1.7156-4.6787 5.7811-12.99 7.9596-16.272 2.19-3.2995 6.0542-7.1377 8.8702-8.8106 7.7509-4.6047 14.84-3.4274 19.239 3.1948 3.5985 5.4173 4.5656 12.801 2.5153 19.205-2.3788 7.4303-8.9722 14.933-17.82 20.277-4.48 2.7061-9.8772 4.9678-14.156 5.9322-1.8507 0.41713-6.084 0.69528-7.8052 0.51284z"/><path d="m-164.26 50.402c-6.798-0.92327-11.692-2.4561-18.521-5.8008-11.623-5.693-19.338-12.652-23.909-21.567-3.2839-6.405-4.548-12.874-3.7518-19.199 0.81834-6.5014 3.39-11.048 7.3489-12.992 1.371-0.67325 1.7948-0.74867 4.1719-0.7425 2.4617 6e-3 2.8181 0.0782 5.1218 1.0314 5.1487 2.1305 8.2774 4.9661 15.755 14.279 3.8115 4.7471 9.1056 14.405 12.344 22.518 1.7359 4.349 4.5423 10.133 6.446 13.284 1.3449 2.2266 5.2227 7.8082 6.1421 8.8408 0.33914 0.3809 0.31389 0.44773-0.22356 0.5917-1.0685 0.28623-8.191 0.12694-10.925-0.24433z"/><path d="m-113.72 96.221c-5.454-0.90962-11.22-3.3704-15.509-6.6188-7.4422-5.6367-12.568-13.64-16.725-26.111-1.162-3.4867-3.4231-11.9-3.2458-12.077 0.31975-0.31976 13.378 2.0701 16.032 2.9342 6.7962 2.2124 14.76 5.8228 18.785 8.5168 9.0769 6.0743 17.107 16.666 18.256 24.082 0.44089 2.8441-0.2064 4.9835-1.9787 6.5398-0.94222 0.82741-3.5218 2.0364-5.2286 2.4506-2.3384 0.56739-7.7928 0.71624-10.388 0.28347z"/><path d="m-196.89 100.43c-2.6107-0.59406-5.8928-2.3039-7.1381-3.7187-2.5663-2.9154-3.1599-7.5491-1.4059-10.974 2.6135-5.104 6.7882-9.0937 12.068-11.533 1.1065-0.51125 4.2388-1.7427 6.9606-2.7366 6.3687-2.3255 9.6691-3.7151 18.544-7.8074 3.9848-1.8375 7.2819-3.3039 7.327-3.2588 0.0451 0.0451-0.66782 1.3291-1.5843 2.8532-2.4854 4.1336-5.1485 9.1163-7.9353 14.847-2.6345 5.4177-4.0243 7.5608-7.9544 12.266-4.5319 5.4255-8.0286 8.3785-11.426 9.6497-1.9754 0.73907-5.2307 0.91949-7.4556 0.41321z"/><path d="m-165.69 125.56c-2.2176-0.62398-3.8932-1.6703-5.6046-3.4997-5.3992-5.7718-6.035-15.739-1.7908-28.074 3.0532-8.8736 10.474-23.834 16.294-32.848 2.4008-3.7187 4.3846-6.3746 4.5996-6.1576 0.84415 0.85235 3.6451 9.487 4.8297 14.889 2.5458 11.609 3.5329 20.463 3.2594 29.236-0.22546 7.2318-1.1381 11.602-3.3917 16.243-1.1461 2.36-1.6594 3.0752-3.6274 5.0538-3.4629 3.4816-6.9678 5.2113-11.024 5.4401-1.4224 0.0802-2.5849-0.0124-3.5442-0.28227z"/></g><path d="m-2780.5 1096.4c-43.653-3.6443-92.419-22.485-138.84-53.64-50.922-34.176-80.482-69.003-99.483-117.21-4.3867-11.129-4.1159-12.311 1.6992-7.4183 8.2044 6.9035 33.172 20.936 47.597 26.752 22.323 8.9994 37.684 12.298 61.842 13.278 23.387 0.94883 36.942-0.76407 47.894-6.0521 6.9041-3.3338 8.73-2.3142 8.7945 4.9106 0.081 9.0621 6.9074 31.855 13.598 45.402 12.237 24.778 31.494 42.562 55.166 50.947 16.048 5.6848 37.752 5.5889 55.608-0.2455 46.636-15.238 79.085-54.675 91.994-111.8 2.0498-9.0715 4.2891-17.011 4.9762-17.643 2.2538-2.0744 21.477-6.1174 41.646-8.759 25.624-3.356 65.416-2.3094 86.789 2.2826 46.365 9.9616 83.964 30.037 115.67 61.757 8.1394 8.1437 14.571 14.984 14.292 15.201-0.2789 0.21674-16.482-0.29099-36.006-1.1289-33.419-1.4339-36.714-1.3162-56.239 2.0084-38.252 6.5135-62.325 15.782-116.53 44.867-17.891 9.5998-40.646 21.327-50.566 26.06-32.781 15.64-74.402 27.324-105.53 29.625-25.619 1.8938-30.383 1.9812-44.37 0.8135z" fill="#576738" stroke-width="1.0658"/><path d="m-3171.9 762.93c-16.397 0.0192-33.232 1.0212-43.955 2.9982-17.52 3.23-49.913 10.83-81.839 19.205-23.891 6.267-52.71 11.899-82.378 16.096-29.664 4.1961-92.442 3.8437-124.07-0.69618-23.47-3.3692-23.473-3.3705-31.684-0.24136-15.878 6.0513-31.085 20.555-39.998 38.144-3.5177 6.942-3.942 10.401-5.4982 44.775-2.3046 50.906 0.8154 104.95 7.9116 136.98 8.0135 36.172 10.105 75.545 5.6004 105.43-1.3018 8.6372-2.3624 16.835-2.3608 18.218 0 2.2133 4.0326 2.5309 33.664 2.6393 30.225 0.1102 35.744 0.5587 54.098 4.4122 25.271 5.3063 50.252 13.599 102.33 33.964 60.074 23.49 83.804 30.564 112.49 33.54 7.3984 0.7676 23.431 1.0381 35.629 0.6034 63.017-2.2462 113.6-21.696 149.78-57.594 17.549-17.411 37.951-48.279 46.059-69.686 3.1326-8.2709 3.2107-9.8174 1.4635-29.314-1.0146-11.321-4.6151-40.192-8.0014-64.16-3.3862-23.967-7.0043-52.489-8.0385-63.38-1.9716-20.761-1.1776-57.106 1.6027-73.433 2.2252-13.066-2.9915-36.116-12.302-54.367-8.991-17.624-36.777-34.185-69.178-41.235-8.9813-1.9542-24.94-2.9182-41.338-2.8992zm-125.01 82.075c11.375 0.11975 22.863 2.339 37.897 6.6957 38.931 11.282 60.497 30.324 73.557 64.946 8.0581 21.363 11.285 39.37 11.309 63.12 0.068 66.179-31.588 116.63-81.069 129.21-21.834 5.5519-52.607 5.326-78.04-0.5724-46.818-10.858-91.195-52.856-103.17-97.641-3.4704-12.977-3.5376-36.772-0.1425-50.873 12.975-53.887 51.479-94.854 102.44-108.99 14.584-4.0448 25.848-6.0234 37.222-5.9036z" fill="#f6aa9d" stroke-width="1.0658"/><path d="m-3327.2 1327.6c-32.15-2.477-72.754-10.87-98.395-20.34-43.881-16.205-83.664-39.588-149.04-87.6-17.997-13.216-36.144-26.158-40.328-28.758-4.1836-2.6006-7.0495-5.2348-6.3689-5.8538 5.0215-4.5664 40.974-9.429 69.715-9.429 49.108 0 74.43 5.4968 153.65 33.352 62.965 22.141 94.92 29.977 131.94 32.356 33.795 2.1717 85.05-4.5844 115.01-15.16 42.718-15.077 77.809-41.128 98.243-72.933 12.737-19.824 11.868-18.95 10.81-10.884-7.9781 60.786-57.121 122.48-124.91 156.81-46.335 23.468-100.38 33.053-160.33 28.435z" fill="#576738" stroke-width="1.0658"/><path d="m-2929.6 1337.6c0.4814-2.3961 1.62-13.98 2.5306-25.743 3.0304-39.142 9.1091-57.054 24.442-72.024 8.9424-8.7306 15.193-11.568 38.313-17.391 8.5378-2.1504 10.578-2.1657 17.426-0.1311 26.89 7.988 43.394 34.39 36.443 58.298-7.2925 25.085-32.135 46.361-63.148 54.081-10.73 2.6712-43.826 7.2654-52.338 7.2654-4.1116 0-4.4596-0.4137-3.6679-4.3565z" fill="#f6aa9d" stroke-width="1.0658"/><path d="m-2969 1340.8c-7.8417-0.2192-28.941-1.4669-46.887-2.7724s-44.086-2.3736-58.089-2.3736c-14.003 0-26.574-0.4275-27.936-0.9499-1.825-0.7003 3.2502-6.6312 19.318-22.575 43.464-43.128 57.66-71.498 66.316-132.52 2.49-17.555 2.8918-30.181 2.7219-85.546-0.1323-43.223-0.9888-73.696-2.5594-91.091-1.2982-14.377-2.2494-26.286-2.1138-26.466 0.1353-0.18022 4.4952 6.1922 9.6883 14.16 11.689 17.936 42.976 49.948 64.096 65.581 31.293 23.163 69.894 43.776 102.97 54.986 49.968 16.934 105.05 18.101 162.38 3.4393 34.554-8.8372 60.947-20.563 118.67-52.724 50.03-27.873 79.73-39.749 94.061-37.611 14.193 2.1176 24.607 8.6356 29.857 18.688 2.5279 4.8403 1.8046 13.26-4.1124 47.868-1.6386 9.5843-3.4293 25.268-3.9793 34.852-1.6361 28.511-5.6075 61.195-7.9973 65.816-4.5541 8.8066-27.577 26.097-49.148 36.911-47.956 24.041-90.038 21.75-167.85-9.1392-39.352-15.622-43.764-17.102-66.536-22.324-23.604-5.4131-52.733-6.7266-76.041-3.4288-28.871 4.0849-67.863 14.39-83.17 21.98-15.592 7.7323-34.454 25.24-41.519 38.539-7.6985 14.491-12.364 34.31-14.162 60.164-0.9092 13.07-2.1193 24.476-2.6893 25.347-0.5975 0.9135-7.0727 1.4154-15.294 1.1856z" fill="#fbaa1d" stroke-width="1.0658"/><path d="m-3323.9 1586.4c-12.401-1.1266-32.284-5.3227-50.196-10.594-89.958-26.471-158.34-82.411-200.61-164.12l-8.6142-16.649 0.8559-22.181c0.5227-13.543 2.3856-30.201 4.7838-42.776 2.1603-11.327 4.436-24.871 5.0571-30.098 1.9213-16.17 6.2833-21.423 17.728-21.35 11.722 0.075 20.512 3.4472 40.898 15.69 55.947 33.598 102.37 51.376 156.1 59.774 24.722 3.8645 78.02 3.8542 100.47-0.018 37.963-6.55 63.461-14.777 96.704-31.203 46.019-22.739 80.346-52.108 105.84-90.55 4.4529-6.7153 8.325-11.981 8.6046-11.701 0.9443 0.9443-8.0705 20.684-13.09 28.663-6.4626 10.274-27.253 36.226-41.767 52.136-14.347 15.728-19.62 24.547-19.62 32.813 0 8.284 6.1907 14.876 17.002 18.106 13.666 4.0817 95.302 13.567 142.64 16.574 12.198 0.7747 28.206 2.2249 35.572 3.2225 25.471 3.4497 66-2.7981 86.921-13.4 32.622-16.531 58.897-52.564 58.897-80.77 0-10.988-3.8413-25.119-9.5322-35.065-4.5019-7.8684-17.193-21.055-25.293-26.281-3.8425-2.4791-3.647-2.5646 8.4489-3.6981 20.848-1.9537 52.956 2.3263 78.261 10.432 8.177 2.6193 27.374 10.116 42.66 16.659 52.218 22.352 81.453 29.699 117.74 29.59 13.515-0.042 25.477-0.9852 32.5-2.5665 23.525-5.2966 49.288-16.658 69.173-30.507l10.012-6.9723 0.9662 32.834c0.5316 18.059 1.066 45.705 1.1881 61.435 0.2137 27.554 0.077 28.891-3.7376 36.546-7.7805 15.613-24.225 30.388-53.123 47.729-16.724 10.036-36.214 24.588-68.068 50.824-74.935 61.718-112.53 77.709-162.57 69.144-35.165-6.02-91.678-27.003-119.27-44.285-37.129-23.253-48.499-27.008-77.77-25.685-25.967 1.1739-35.684 4.2524-67.834 21.492-17.96 9.6307-19.849 9.65-39.625 0.4047-9.2949-4.3456-22.766-9.719-29.936-11.941-33.896-10.505-71.897-8.6995-99.848 4.7445-18.976 9.1272-30.668 22.704-52.438 60.893-7.8968 13.853-10.878 17.375-25.573 30.212-9.1487 7.9919-19.129 15.59-22.179 16.886-11.64 4.9432-30.964 7.187-48.318 5.6105z" fill="#fbaa1d" stroke-width="1.0658"/><path d="m-3037.8 1587.4c-6.4501-1.7318-19.638-6.7436-29.308-11.137-31.319-14.232-44.191-19.06-61.937-23.231-14.922-3.5073-21.068-4.0961-42.773-4.098-21.878 0-26.643 0.461-34.815 3.3818-5.2072 1.8613-9.6051 3.2466-9.7731 3.0786-0.1682-0.1683 4.4101-8.1454 10.174-17.728 11.271-18.739 31.26-40.576 41.66-45.511 7.882-3.7402 31.722-6.377 46.617-5.1558 24.576 2.0149 40.766 6.4527 66.536 18.239 21.62 9.8875 36.683 8.3315 62.989-6.5069 21.809-12.302 35.134-16.273 55.033-16.401 20.736-0.1329 24.512 1.471 59.096 25.103 13.592 9.2877 29.427 19.642 35.189 23.009 5.7621 3.3672 9.8958 6.4556 9.186 6.8631-0.7099 0.4077-3.9827 1.2267-7.273 1.8206-10.265 1.8527-29.425 8.6145-57.385 20.252-32.76 13.635-62.744 23.86-82.556 28.152-19.662 4.26-44.505 4.2065-60.659-0.1305z" fill="#f0743c" stroke-width="1.0658"/><path d="m-3041.9 1682c-18.527-4.9869-24.166-8.9271-54.234-37.898-24.612-23.715-37.233-34.324-58.492-49.17-10.31-7.1997-17.498-10.603-35.562-16.836-20.214-6.9753-22.204-7.9786-18.563-9.3628 21.461-8.1594 55.951-6.9334 86.998 3.0923 5.5816 1.8024 22.624 9.2348 37.872 16.516 39.74 18.978 45.81 20.615 76.041 20.504 37.353-0.1371 68.973-7.5683 124.3-29.211 38.444-15.039 59.468-22.105 59.468-19.988 0 0.37-9.0893 6.2119-20.198 12.982-33.919 20.67-51.276 33.104-69.962 50.118-44.66 40.663-54.542 47.741-77.356 55.408-16.398 5.5104-37.995 7.1618-50.31 3.8469z" fill="#f0743c" stroke-width="1.0658"/><path d="m-2440.1 1846.1c-39.159-29.093-80.385-70.492-101.62-102.05-23.732-35.263-35.153-68.348-35.153-101.83 0-19.924 1.9166-29.755 8.6422-44.332 12.89-27.937 38.911-47.801 75.209-57.412 12.516-3.314 19.93-4.1459 42.505-4.769 21.317-0.5885 27.904-0.2898 29.885 1.3542 2.1765 1.8062 2.3883 4.6163 1.4766 19.586-1.4115 23.178-4.406 41.653-11.911 73.486-3.4192 14.503-6.9244 30.646-7.7893 35.874-4.587 27.726-3.4791 54.506 3.9913 96.478 7.0802 39.779 8.5038 50.498 9.5416 71.842 0.7031 14.461 0.4946 20.99-0.6707 20.99-0.9303 0-7.278-4.1506-14.106-9.2236z" fill="#f6aa9d" stroke-width="1.0658"/><path d="m-2907.3 1930.6c-2.9186-6.9852-2.8817-12.475 0.2024-30.15 4.4341-25.412 18.568-50.616 40.942-73.009 26.522-26.544 58.097-38.677 100.65-38.677 48.461 0 100.34 17.839 142.25 48.913 12.872 9.5441 29.918 29.392 36.736 42.776 6.9293 13.601 5.927 29.754-2.4651 39.727-5.6518 6.7169-15.559 9.1389-44.967 10.992-31.65 1.9951-160.86 2.6362-200.4 0.9943-22.548-0.9362-32.55-0.6492-47.795 1.3713-10.604 1.4055-20.086 2.5555-21.071 2.5555-0.9855 0-2.8246-2.4722-4.0872-5.4938z" fill="#f0743c" stroke-width="1.0658"/><path d="m-3468.8 1939.2c-13.505-0.6003-37.743-1.2012-53.862-1.3357-32.269-0.2688-37.671-1.5152-46.253-10.668-8.2311-8.7796-11.47-18.804-11.454-35.448 0.012-14.063 0.5928-16.763 8.8415-41.189 4.8549-14.376 10.077-31.842 11.604-38.813 3.2497-14.83 6.6195-22.019 13.292-28.358 4.7843-4.5447 4.9851-4.5834 18.392-3.5529 46.207 3.5518 109.18 25.586 144.09 50.414 28.409 20.208 42.701 41 42.819 62.29 0.071 12.951-1.9315 18.622-11.287 31.961-12.068 17.206-9.3872 16.4-53.421 16.073-21.012-0.1551-49.253-0.7744-62.758-1.3744z" fill="#f0743c" stroke-width="1.0658"/><path d="m-3028.2 1931.9c4.1878-14.747 5.4628-37.072 2.9947-52.438-10.52-65.49-86.477-143.04-160.06-163.41-40.094-11.101-78.044-11.951-151.48-3.3948-35.966 4.1907-67.306 4.1562-88.274-0.096-51.922-10.532-107.37-47.779-143.34-96.287l-9.2787-12.515-1.059-19.612c-0.5826-10.787-1.4706-37.435-1.9736-59.217-0.8815-38.166-0.7955-39.792 2.3653-44.753 2.1934-3.4428 4.5266-5.1485 7.0428-5.1485 6.4847 0 20.48 10.91 51.818 40.397 42.604 40.086 104.44 71.036 169.8 84.988 12.556 2.6804 21.671 3.4785 40.022 3.5044 22.09 0.03 24.599-0.2754 35.644-4.3526 36.81-13.589 61.418-10.339 97.411 12.864 20.08 12.945 45.635 33.084 65.76 51.826 10.891 10.143 24.452 21.633 30.135 25.534 20.114 13.807 46.268 19.544 74.958 16.442 36.946-3.9942 60.77-16.608 102.74-54.396 24.843-22.369 37.838-32.306 70.195-53.678 30.377-20.064 41.099-26.389 67.983-40.103l20.457-10.435 18.367 1.8534c29.616 2.9886 50.568-0.9324 80.569-15.077 29.239-13.786 50.068-28.106 99.363-68.312 45.78-37.339 64.002-48.553 82.037-50.484 10.784-1.1549 19.921 0.6894 23.243 4.6916 2.0727 2.4974 13.256 51.268 16.074 70.102 2.1879 14.619 1.8171 15.624-8.0614 21.836-8.4088 5.2886-14.816 6.9389-37.025 9.5368-28.198 3.2985-43.239 7.4326-64.314 17.677-16.263 7.9056-19.65 10.325-32.651 23.326-11.894 11.894-15.674 16.923-20.998 27.938-34.612 71.616 2.0883 163.7 97.933 245.71 6.5347 5.5921 15.231 12.564 19.324 15.492 8.1051 5.7983 10.775 11.117 10.775 21.465 0 12.78-14.187 28.155-30.045 32.561-9.1605 2.5449-24.607 1.8626-33.39-1.4752-11.268-4.2816-23.957-15.678-30.574-27.459-12.978-23.109-38.969-49.716-66.997-68.588-43.025-28.968-89.08-43.743-136.82-43.893-33.275-0.1048-58.414 5.4328-84.25 18.559-48.747 24.765-84.227 81.444-92.423 147.64-1.2647 10.214 1.7634 9.5978-54.073 11.009l-43.02 1.0869z" fill="#fbaa1d" stroke-width="1.0658"/><path d="m-3210.6 1943.8c-23.09-1.6327-58.906-3.8631-79.592-4.9565l-37.611-1.9881 4.7745-7.1289c7.9598-11.885 11.517-26.27 10.762-43.524-0.5957-13.623-1.1936-15.91-7.4655-28.568-19.535-39.424-79.473-75.497-152.26-91.637-28.654-6.3538-44.632-8.0882-74.836-8.1232-23.477-0.024-28.26-0.424-29.06-2.4089-1.4067-3.4907-2.8847-74.862-1.652-79.774 0.9318-3.7127 1.8215-4.1881 7.8377-4.1881 5.5168 0 9.4384 1.6729 20.96 8.9412 7.7956 4.9176 17.298 10.34 21.116 12.048s13.124 7.1659 20.678 12.127c24.259 15.929 52.527 27.993 80.26 34.251 6.0131 1.3568 22.339 2.8781 36.28 3.3807 25.505 0.9193 32.001 0.4257 89.507-6.7991 27.068-3.4007 78.362-3.8197 95.051-0.7764 41.342 7.5389 81.532 30.211 113.21 63.866 21.88 23.243 38.655 51.067 43.625 72.357 3.9123 16.76-0.4556 37.768-11.197 53.853-9.8281 14.718-17.101 19.715-30.68 21.079-19.764 1.986-76.517 1.023-119.71-2.0315z" fill="#f6aa9d" stroke-width="1.0658"/><path d="m-3325.4 1087.5c-32.241-6.7833-64.976-32.672-79.852-63.152-7.7115-15.8-10.249-26.556-10.092-42.773 0.4029-41.518 26.499-80.449 67.388-100.54 16.229-7.9721 31.188-10.343 55.498-8.7944 33.12 2.1093 56.217 9.4073 72.655 22.957 6.6346 5.4688 16.98 24.559 21.751 40.138 13.266 43.312 3.0032 97.631-24.017 127.12-16.957 18.505-43.284 27.813-77.796 27.504-7.9455-0.071-19.436-1.179-25.536-2.4623z" fill="#104162" stroke-width="1.0658"/></g></g></svg>