<?xml version='1.0' encoding='utf-8'?>
<svg xmlns="http://www.w3.org/2000/svg" width="1323.2mm" height="1323.2mm" version="1.1" viewBox="0 0 1323.2 1323.2"> <g transform="translate(-1233.1 83.72)"> <g transform="matrix(4.426 0 0 4.426 -2167.9 -251.74)" stroke-width=".22594"> <path d="m768.4 37.963h298.96v298.96h-298.96z" fill="#f1efe8" stop-color="#000000" style="paint-order:markers stroke fill"/> <path d="m954.27 144.54c-1.3931-0.55674-1.9714-2.0934-2.4811-6.5925-0.3412-3.0117-1.6822-6.8766-3.8643-11.137-3.9476-7.7077-9.1389-13.267-17.597-18.845-1.6584-1.0937-5.1042-3.3532-7.6572-5.0211-8.2131-5.3656-13.21-9.2318-18.215-14.093-5.4209-5.2648-8.981-9.8813-11.535-14.958-3.9634-7.8785-3.6352-15.029 0.89759-19.551 3.6323-3.6239 9.1548-4.9418 13.955-3.3303 2.6364 0.88501 4.3386 2.0204 6.5748 4.3857 2.8811 3.0473 4.4474 5.5977 9.6529 15.718 6.5628 12.759 10.723 19.636 14.976 24.757 1.4627 1.7613 3.3521 3.4212 3.8942 3.4212 0.4024 0 0.1446-1.4426-0.6044-3.382-0.965-2.4986-3.7526-7.3593-10.236-17.849-7.8054-12.628-9.6555-16.725-9.2645-20.514 0.39367-3.8142 3.4412-6.413 8.0391-6.8552 5.9756-0.5747 11.13 3.1997 14.879 10.896 1.8013 3.6974 2.3426 5.2165 4.4973 12.622 0.8766 3.0128 2.6147 8.2444 3.8623 11.626 2.7312 7.4022 3.5143 10.279 3.8434 14.117 0.4384 5.113 0.8435 22.209 0.7336 30.956-0.101 8.0385-0.1376 8.556-0.7232 10.234-0.9434 2.7025-2.265 3.9397-3.6272 3.3953z" fill="#5278a8" stroke-width=".22594"/> <path d="m964.61 146.04c-0.287-0.1914-1.0053-0.48705-1.5961-0.65701-1.2415-0.35716-2.0337-1.1323-2.461-2.4079-0.773-2.3079-0.1338-4.4719 2.5777-8.727 4.7259-7.416 6.4825-12.842 6.8192-21.065 0.3496-8.536-1.1254-13.616-6.8683-23.657-1.699-2.9704-3.473-6.3637-3.9423-7.5406-0.7918-1.9859-0.8538-2.3682-0.8625-5.3148-0.011-3.6185 0.4161-5.2638 2.3315-8.9862 3.902-7.5834 12.072-14.386 17.318-14.42 1.9252-0.0125 2.813 0.50535 3.3709 1.966 0.7421 1.9432 0.2176 4.3342-2.0127 9.1759-1.2004 2.6061-1.3248 4.0029-0.3686 4.1398 1.0925 0.1564 2.3596-1.1392 5.1314-5.2466 3.488-5.1689 5.9416-7.7032 8.8362-9.1268 7.317-3.5985 12.519 1.3285 10.144 9.6078-1.4264 4.9727-3.8403 9.2026-9.2842 16.269-4.5359 5.888-5.9957 8.0825-7.5734 11.385-2.9521 6.1804-3.9895 13.47-3.9046 27.437 0.034 5.5199-0.028 6.5281-0.5526 8.9835-1.1394 5.3382-3.0673 9.0433-6.69 12.857-4.0522 4.2658-8.5519 6.5685-10.412 5.3281z" fill="#5278a8" stroke-width=".22594"/> <path d="m945.31 147.34c-1.1893-0.52115-2.7586-2.3762-4.4696-5.2835-5.5459-9.4232-16.392-14.61-41.568-19.878-10.376-2.1713-13.689-3.4225-17.66-6.671-4.9415-4.0418-8.2583-9.4577-12.363-20.187-3.6609-9.5698-5.2451-12.49-11.266-20.77-4.2421-5.8334-6.0163-9.9453-6.0509-14.023-0.0226-2.6702 0.56917-4.4609 1.9026-5.7563 2.4207-2.3518 5.5118-1.9956 8.1505 0.93922 1.1802 1.3127 2.1265 3.0986 6.047 11.413 0.81858 1.736 2.1312 4.1226 2.917 5.3035 2.2306 3.3523 4.8982 5.5453 5.7318 4.7118 0.39802-0.39802-0.60921-2.7853-2.4324-5.7652-4.1516-6.7854-5.3114-10.534-3.9501-12.767 1.7415-2.8562 5.9124-2.4762 9.0835 0.82766 2.7774 2.8936 4.3662 6.8476 6.4046 15.938 1.7109 7.63 2.3066 9.5809 3.9503 12.936 2.327 4.7506 5.2608 7.957 10.461 11.433 1.0914 0.72954 4.8604 2.9409 8.3755 4.9141 10.421 5.8499 16.032 9.4959 22.052 14.328 7.532 6.0468 12.132 11.092 15.497 16.998 3.0045 5.2722 3.3485 10.482 0.7572 11.468-0.3733 0.14189-0.7006 0.25332-0.7275 0.24763-0.027-6e-3 -0.4061-0.16688-0.8427-0.35818z" fill="#5278a8" stroke-width=".22594"/> <path d="m932.61 158.86c-0.43657-0.26793-1.7462-1.4061-2.9104-2.5293-4.9189-4.7458-11.37-8.7223-16.122-9.9377-3.4644-0.88609-7.5423-1.1662-11.998-0.82424-5.0774 0.38971-7.9044 0.81534-16.859 2.5383-15.622 3.0058-20.081 3.4891-25.447 2.758-4.8118-0.65558-7.9234-1.7847-15.923-5.7781-9.7022-4.8434-11.353-5.2758-23.85-6.2461-10.544-0.81872-15.408-1.7126-19.182-3.5251-4.8735-2.3404-8.0214-6.8128-10.954-15.564-2.456-7.3278-3.4522-13.209-3.4603-20.429-8e-3 -7.4758 0.96452-12.37 3.4767-17.489 2.5195-5.1337 6.7613-8.489 12.237-9.6789 2.4609-0.53485 6.4731-0.41284 9.0202 0.2743 2.3058 0.62206 5.0679 2.0385 6.8281 3.5016 2.2537 1.8733 4.083 4.1456 7.515 9.3348 5.0014 7.5623 7.8512 10.848 9.409 10.848 0.46855 0 0.50619-0.12077 0.35044-1.1245-0.237-1.5273-1.7035-4.5613-3.392-7.0175-1.68-2.444-7.7372-8.7402-11.61-12.069-5.9087-5.0775-9.3712-7.1094-16.652-9.7719-6.5784-2.4055-8.1404-3.3191-9.0874-5.3149-0.54512-1.1488-0.54571-3.4162-1e-3 -5.0139 0.92087-2.7026 4.3529-5.356 7.7471-5.9895 4.593-0.85719 13.043 0.248 20.087 2.6272 8.942 3.0202 17.606 8.3824 24.395 15.099 4.8295 4.7774 8.1478 9.3714 10.989 15.214 2.0965 4.3107 3.5812 8.7396 5.8078 17.325 2.1117 8.142 2.7002 9.9386 4.3786 13.367 4.0877 8.3496 11.403 13.032 23.339 14.939 0.94128 0.15037 3.5437 0.51491 5.7831 0.8101 22.45 2.9592 37.496 10.188 41.039 19.716 0.83769 2.253 0.84929 6.1413 0.0229 7.6876-1.3063 2.4442-3.2449 3.3263-4.9758 2.2639z" fill="#5278a8" stroke-width=".22594"/> <path d="m974.52 160.6c-1.0439-0.69743-1.824-2.091-1.8246-3.2597-5e-4 -1.1873 0.9506-4.7205 1.7324-6.4347 1.11-2.4338 1.9716-3.4576 4.7495-5.643 10.051-7.9079 11.994-12.889 16.276-41.741 1.3153-8.8623 1.9088-12.141 2.945-16.272 3.563-14.202 13.155-26.915 23.781-31.52 2.7785-1.204 7.2919-2.3406 10.785-2.7158 3.5224-0.37831 10.22-0.37564 12.015 5e-3 7.0758 1.4998 8.2923 8.1304 2.9626 16.147-1.8987 2.856-5.1055 6.046-10.019 9.9666-5.4162 4.3216-8.9271 7.7524-11.5 11.238-1.7746 2.4037-11.511 18.252-14.744 23.998-1.795 3.1908-2.3465 4.8466-2.2362 6.7138 0.068 1.1505 2.7304-0.22137 5.5597-2.8648 3.3453-3.1255 6.6977-7.6251 12.966-17.403 4.7063-7.3416 6.9014-10.266 9.5422-12.71 2.6385-2.4429 4.7822-3.4718 7.4916-3.5959 1.889-0.0865 2.2205-0.0216 3.7588 0.7357 6.885 3.3895 8.8845 15.463 4.7141 28.463-2.2567 7.0348-5.7107 12.065-10.34 15.06-3.3492 2.1666-6.3007 3.2231-15.231 5.4518-7.9685 1.9888-11.145 3.0424-15.125 5.017-4.0803 2.0245-6.6103 3.9564-12.241 9.3472-4.9378 4.7274-7.2193 6.566-10.513 8.4722-6.0343 3.492-13.149 5.1179-15.505 3.5436z" fill="#5278a8" stroke-width=".22594"/> <path d="m950.72 184.73c-3.0922-0.74916-6.913-3.1883-9.0508-5.7779-1.5382-1.8633-2.975-4.7466-3.4163-6.8554-1.2657-6.0494 0.82598-12.813 5.3671-17.354 2.9774-2.9776 5.9038-4.3297 10.093-4.6633 1.1595-0.0924 2.6128-0.26011 3.2297-0.37279 3.0632-0.55959 7.6241 1.8406 10.361 5.4528 1.3839 1.8262 3.0206 5.2088 3.4957 7.2246 0.51259 2.1748 0.46293 5.7693-0.11305 8.1904-0.26055 1.095-0.98765 3.0451-1.6159 4.3334-2.4357 4.995-6.617 8.5941-11.41 9.8209-1.7558 0.44946-5.0891 0.45021-6.9409 2e-3z" fill="#275376" stroke-width=".22594"/> <path d="m1039.6 197.75c-0.9459-0.25695-3.7439-1.1881-6.2177-2.0692-7.2859-2.5949-10.821-3.2475-17.651-3.2581-15.389-0.0238-25.593-2.8535-33.205-9.2076-2.8797-2.404-5.898-6.6717-5.898-8.3394 0-0.35014-0.2496-1.201-0.5547-1.8907-1.084-2.4506-0.053-4.7387 3.1106-6.9028 2.8206-1.9296 4.2178-2.3388 8.0275-2.3509 1.819-6e-3 4.5843 0.1594 6.1452 0.36709 6.4576 0.85928 9.1515-0.64851 16.463-9.2143 3.7789-4.4275 6.8075-7.4799 9.1422-9.214 5.4154-4.0225 13.27-6.1196 20.108-5.3689 6.0004 0.65867 11.337 3.4526 12.866 6.7361 1.2018 2.5809 0.6291 4.9703-1.7455 7.2832-2.1982 2.1411-4.8169 3.2722-14.422 6.2292-4.7943 1.476-7.7823 3.1813-6.7419 3.8477 0.7745 0.49607 2.3236 0.783 6.4366 1.1921 2.309 0.22969 5.0645 0.6392 6.1234 0.91002 6.1933 1.584 10.28 5.8358 12.714 13.228 0.6523 1.9812 0.7423 2.6584 0.7557 5.6885 0.018 4.0331-0.4312 5.9327-1.9628 8.3023-2.0214 3.1274-4.9038 4.5408-9.2063 4.5141-1.5803-0.01-3.229-0.19557-4.2874-0.48309z" fill="#5278a8" stroke-width=".22594"/> <path d="m787.16 233.32c-2.033-0.72559-3.1121-1.8356-4.2748-4.3972-1.2566-2.7684-1.6161-5.3834-1.5992-11.63 0.0131-4.859 0.10213-6.0937 0.61028-8.4667 2.34-10.928 7.203-18.265 14.544-21.944 4.2196-2.1149 8.3827-3.0398 20.284-4.5062 9.7209-1.1977 12.707-1.6521 16.007-2.4362 2.9462-0.69983 5.3405-1.7526 5.2348-2.3018-0.23945-1.2434-5.9538-2.0223-11.781-1.6058-7.5064 0.53644-13.209 1.8838-24.543 5.7985-2.1828 0.75397-5.0403 1.6667-6.35 2.0283-2.7992 0.77286-7.1383 1.0989-8.7566 0.65806-2.2764-0.62013-4.5644-2.9699-5.6992-5.853-0.43947-1.1165-0.59881-2.1942-0.68455-4.6302-0.097-2.7555-0.0246-3.5126 0.54768-5.7307 1.9347-7.4984 6.2767-14.963 10.997-18.907 4.7246-3.9473 9.9495-5.5763 15.73-4.9039 3.8984 0.45348 7.7189 1.5401 15.567 4.4275 19.255 7.0846 28.781 9.7584 39.715 11.147 5.2517 0.66716 16.206 0.60938 24.66-0.13007 16.456-1.4393 27.025-1.7549 32.378-0.96678 1.5466 0.22771 4.1081 0.84283 5.6921 1.3669 4.4243 1.4638 7.0816 3.5063 8.5262 6.5534 0.99388 2.0964 0.72214 4.0111-0.76359 5.3803-1.2332 1.1364-2.3424 1.1798-7.928 0.3098-8.4531-1.3166-10.403-1.4765-13.417-1.1003-5.5718 0.69536-12.385 2.7716-17.454 5.3193-5.3231 2.6752-7.9742 4.533-16.025 11.23-11.982 9.9674-15.579 11.761-30.563 15.244-11.419 2.654-15.138 3.8537-21.299 6.8701-4.6121 2.2582-7.5943 4.2229-12.832 8.454-9.5997 7.7544-11.351 9.1185-13.747 10.71-5.7768 3.8373-9.7609 5.0889-12.775 4.0132z" fill="#5278a8" stroke-width=".22594"/> <path d="m1048.7 287c-0.823-0.4101-2.1597-1.5186-3.43-2.8443-3.4786-3.6303-6.0818-7.2987-18.158-25.588-6.36-9.6322-8.9007-12.934-12.953-16.835-4.4696-4.3022-9.0803-7.1457-18.847-11.624-8.8509-4.058-12.347-6.2429-16.276-10.171-5.4152-5.4134-8.9733-12.334-10.721-20.853-1.2692-6.1871-1.419-10.088-0.4667-12.148 0.9195-1.9886 3.7567-3.7719 6.3295-3.9784 2.2159-0.17788 3.5453 0.48779 5.7675 2.888 1.3821 1.4928 2.1579 2.7231 4.016 6.3685 1.87 3.6687 2.6174 4.8516 3.9753 6.291 1.8039 1.9122 3.737 3.0966 6.3135 3.8684 1.9998 0.59899 7.0259 0.5985 10.848-1e-3 1.4552-0.22828 4.5509-0.72309 6.8792-1.0996 5.1164-0.82732 11.222-1.1115 14.494-0.67459 6.9579 0.92913 14.677 4.8109 19.454 9.7833 4.1821 4.3531 4.9343 9.6207 1.8707 13.101-1.7726 2.0138-3.6512 2.3407-9.2214 1.6049-2.4017-0.31726-3.3383-0.33841-4.4812-0.10116-1.8306 0.38002-2.9336 1.3911-2.9336 2.689 0 1.4607 0.6726 1.9256 5.8208 4.0228 3.9894 1.6252 6.4204 3.1659 8.5392 5.412 3.9351 4.1714 5.4522 8.535 6.9223 19.91 0.3698 2.8608 1.0985 7.7424 1.6195 10.848 1.8903 11.269 1.4688 17.604-1.2828 19.282-1.1503 0.70139-2.4636 0.65237-4.0782-0.15222z" fill="#5278a8" stroke-width=".22594"/> <path d="m939.22 323.23c-5.462-0.14772-12.244-0.63061-17.33-1.2339-4.1962-0.49776-5.8767-0.56481-11.774-0.46985-15.133 0.24371-21.009 0.1547-23.416-0.3547-3.7758-0.7993-5.5724-1.8649-6.6878-3.9663-0.49116-0.92543-0.57828-1.5132-0.57353-3.8693 7e-3 -3.5834 0.68769-6.0538 2.9015-10.534 2.8041-5.6747 6.222-10.527 13.662-19.397 9.2631-11.042 11.878-16.06 18.664-35.818 6.6151-19.259 12.619-29.995 23.868-42.682 1.3312-1.5012 2.7308-3.2276 3.1103-3.8365 3.2485-5.2115 6.8563-9.4847 8.9218-10.567 1.449-0.75929 3.7548-0.75168 5.7186 0.0189 2.0236 0.794 4.9532 3.0795 6.1506 4.7984 1.7255 2.477 1.9484 3.5709 2.8593 14.035 0.5361 6.1588 1.8874 12.205 3.5865 16.047 1.2494 2.8252 3.5045 5.9556 6.1659 8.5595 4.3741 4.2795 8.6889 7.0875 22.377 14.563 10.391 5.6748 14.205 7.8812 18.282 10.578 9.9936 6.6111 20.728 21.568 24.641 29.469 3.2783 6.6189 3.6274 13.712 0.9842 19.997-2.6737 6.3574-8.9048 11.786-15.602 13.592-7.2086 1.9443-13.852-0.58473-17.375-6.6148-1.483-2.5382-2.2316-4.6929-3.6724-10.57-1.5591-6.36-2.2332-8.3671-3.9024-11.619-2.9857-5.8172-12.223-19.185-19.277-23.787-6.3882-4.168-11.319-5.6361-15.13-4.5045-1.9384 0.57564-1.9974 1.0099-0.3441 2.5301 2.1507 1.9775 10.01 8.2017 12.348 9.7787 2.8641 1.9319 6.8652 5.9667 8.4427 8.5138 2.8239 4.5595 4.0029 8.4244 3.799 12.453-0.2053 4.0546-1.6301 6.8347-5.408 10.552-6.9635 6.852-18.118 12.39-27.868 13.836-2.8119 0.41706-11.929 0.66966-18.124 0.5021z" fill="#5278a8" stroke-width=".22594"/> <path d="m833.65 325.32c-1.0186-0.04-3.8762-0.25651-6.35-0.48112-19.68-1.7868-25.629-4.7301-23.827-11.79 0.23721-0.92948 1.4325-3.8331 2.6562-6.4524 3.5744-7.651 4.4204-10.084 6.7164-19.315 2.1905-8.8064 2.5371-10.754 2.5431-14.288 4e-3 -2.2452-0.10324-3.3662-0.36558-3.8281l-0.37097-0.65311-1.1109 1.2624c-1.9491 2.215-4.5163 7.6606-7.0057 14.86-0.60378 1.7462-2.5214 8.0994-4.2613 14.118-3.2585 11.272-4.2936 14.206-6.1024 17.304-1.4566 2.494-3.9308 5.0791-5.3971 5.6391-4.7621 1.8187-7.4921-3.0632-9.5265-17.036-1.6304-11.198-1.2824-22.583 1.0895-35.636 1.7756-9.7709 3.978-16.011 7.5638-21.431 1.9754-2.9858 6.3792-7.3141 9.6373-9.472 5.1232-3.3933 9.5764-5.0944 19.164-7.321 21.098-4.8996 28.458-7.5705 39.508-14.337 5.9587-3.6488 12.251-8.2412 16.582-12.102 1.2369-1.1026 4.9874-4.69 8.3344-7.9721 3.347-3.2821 7.0974-6.7513 8.3344-7.7094 6.8273-5.288 13.22-8.3808 21.564-10.432 5.8097-1.4283 9.391-1.87 12.243-1.5099 4.6799 0.59071 12.06 3.7402 14.89 6.3539 3.4185 3.158 3.9136 7.5898 1.1355 10.164-0.4135 0.38318-1.6488 1.3357-2.7451 2.1167-3.4117 2.4305-4.1669 3.16-7.3587 7.1085-5.1199 6.3338-5.3317 6.7199-8.621 15.72-3.6387 9.9562-5.4683 13.034-13.188 22.183-7.3956 8.7652-8.942 10.668-12.199 15.013-8.5972 11.468-11.225 16.305-17.754 32.676-3.48 8.7264-7.176 17.389-8.8051 20.638-2.0261 4.0399-4.7187 7.2544-7.7834 9.2918-7.0642 4.6962-19.096 7.7115-29.189 7.3151z" fill="#5278a8" stroke-width=".22594"/> </g> </g> </svg>