<?xml version='1.0' encoding='utf-8'?>
<svg xmlns="http://www.w3.org/2000/svg" width="1322.9mm" height="1871.3mm" version="1.1" viewBox="0 0 1322.9 1871.3"> <g transform="translate(-107.21 -407.7)"> <g transform="matrix(5.5847 0 0 5.5847 428.7 2712.7)"> <path d="m-57.567-412.75h236.88v335.08h-236.88z" fill="#eceae8" stop-color="#000000" stroke-linecap="square" stroke-width=".94903"/> <path d="m-52.361-405.38h226.47v320.35h-226.47z" fill="#d5c3b2" stop-color="#000000" stroke-linecap="square" stroke-width=".94903"/> <path d="m54.638-271.53c-0.72357-0.27324-1.2771-0.68684-2.1087-1.5758-0.77098-0.82407-1.2503-1.5309-1.983-2.9243-0.24578-0.4674-1.0204-1.6893-1.7214-2.7153-1.4619-2.1398-2.0558-3.1705-2.4934-4.3271-1.1191-2.9584-1.1751-6.8104-0.16659-11.463 0.1573-0.7256 0.43958-2.0278 0.62729-2.8939 0.46791-2.1588 0.72902-3.6291 0.93041-5.2389 0.70647-5.6471 0.37439-8.0653-1.8724-13.635-1.3765-3.4123-1.7999-4.7169-2.2612-6.9672-0.85386-4.1648-0.93852-8.22-0.25641-12.282 0.17157-1.0218 0.5986-3.1764 0.96195-4.8534 0.61331-2.8308 0.98356-5.7516 0.98356-7.7591 0-3.1058-0.44367-5.1739-1.9571-9.1231-0.33261-0.86787-0.81147-2.1195-1.0641-2.7813-1.0382-2.7196-1.5893-5.2406-1.8067-8.2648-0.10071-1.4009-0.02152-3.1612 0.22225-4.9402 0.16915-1.2345 0.91136-5.5911 1.1789-6.9196 0.57147-2.8383 1.4418-4.4998 3.2694-6.2422 0.9553-0.9107 2.0392-1.634 3.4113-2.2764 1.1904-0.55731 1.6281-0.70276 4.2148-1.4004 3.1168-0.84061 4.1795-0.96091 8.4064-0.95164 2.3697 5e-3 2.9419 0.0311 3.7677 0.17043 3.1366 0.52937 5.7127 1.7514 8.3595 3.9656 1.4709 1.2304 2.453 2.4785 3.2017 4.0686 0.9132 1.9394 1.275 3.8087 1.1966 6.1819-0.11902 3.6008-0.96369 6.3274-3.9738 12.827-1.6951 3.6601-3.1899 6.8748-4.2127 9.0597-2.029 4.3341-2.9322 6.7918-3.8497 10.476-0.99694 4.0034-1.3962 7.0731-1.402 10.78-0.0041 2.5918-0.11413 4.4893-0.3384 5.8327-0.23006 1.3781-1.0231 4.53-2.1565 8.5716-1.3317 4.7483-1.5604 5.8152-2.373 11.068-0.64493 4.169-1.1787 8.0492-1.3109 9.5301-0.17048 1.9092-0.23265 6.5177-0.11557 8.5669 0.10129 1.7728 0.27844 3.6308 0.45747 4.798 0.073 0.47597 0.26126 2.0823 0.68818 5.8718 0.20969 1.8612 0.29781 4.6794 0.16569 5.2987-0.23262 1.0905-0.94322 2.022-1.8519 2.4277-0.68108 0.30406-2.0178 0.32361-2.7675 0.0405z" fill="#eceae8" stroke-width=".17906"/> <path d="m70.139-267.14c-1.0852-0.30029-2.2585-1.2113-2.6582-2.064-0.41996-0.89579-0.43712-1.1178-0.35534-4.5979 0.07968-3.3906 0.10108-3.7162 0.50109-7.6264 0.49996-4.8872 0.55621-5.7817 0.7221-11.485 0.21129-7.2641 0.47246-11.972 0.81492-14.69 0.23497-1.8648 0.48874-3.2166 1.1751-6.2597 0.69398-3.077 0.91916-4.2764 1.2632-6.7289 0.34347-2.448 0.56064-4.3766 0.72515-6.4396 0.3512-4.4039 0.48573-5.3535 1.0196-7.1976 0.73973-2.555 1.7316-4.5761 4.5712-9.3146 2.0735-3.4601 2.2134-3.7094 3.0383-5.4125 1.5888-3.2802 2.6925-6.5772 3.1926-9.5365 0.04906-0.29033 0.11852-2.9668 0.15665-6.0354 0.07175-5.7755 0.12797-6.7064 0.51187-8.4751 0.65204-3.0041 2.159-5.6887 4.6511-8.2859 3.6393-3.7927 8.2356-6.4512 14.786-8.5524 3.4449-1.105 6.3713-1.5506 10.196-1.5527 1.6396-8.8e-4 2.2962 0.033 3.1327 0.16164 3.6993 0.56891 6.6375 2.1194 8.436 4.4516 2.3851 3.0929 2.7713 6.1558 1.1758 9.3241-0.89997 1.7872-1.9981 3.2527-8.0098 10.69-5.2716 6.5216-7.1179 9.1655-9.0338 12.937-1.6145 3.1777-2.5149 5.3916-3.8205 9.3937-1.1605 3.5574-1.4205 4.281-2.058 5.7272-1.2376 2.8076-2.4656 4.6055-5.186 7.5928-2.3274 2.5557-4.1265 4.9028-7.0893 9.2485-2.6081 3.8255-3.5392 5.8011-5.9648 12.656-0.34683 0.98023-0.96938 2.7177-1.3835 3.8611-1.0766 2.9729-1.6346 4.7735-2.5009 8.07-0.26423 1.0055-0.87448 3.0126-1.3561 4.4603-0.48164 1.4476-1.0274 3.1676-1.2129 3.822-0.44129 1.5574-1.3252 4.9741-1.441 5.57-0.1355 0.69741-0.32894 2.4339-0.43238 3.8814-0.05034 0.70436-0.1453 1.9144-0.21104 2.689-0.06574 0.77458-0.14223 1.8118-0.16998 2.3051-0.1039 1.8468-0.33918 3.0629-0.80425 4.1567-0.77614 1.8255-1.6458 2.6669-3.303 3.1957-0.72382 0.23094-2.3474 0.26276-3.079 0.0603z" fill="#eceae8" stroke-width=".17906"/> <path d="m39.731-267.6c-0.3271-0.11399-0.8276-0.33756-1.1122-0.49682-1.1164-0.62466-2.95-2.3673-3.9933-3.7953-0.75255-1.0301-2.4935-3.8833-3.4356-5.6305-0.70476-1.3071-1.769-3.1137-3.0969-5.2569-1.4469-2.3354-2.0263-3.6295-3.0922-6.9062-1.1273-3.4658-1.7285-4.8912-2.726-6.463-0.46644-0.73502-0.66827-1.0175-2.3631-3.3073-3.3232-4.4897-4.7925-7.7277-6.1706-13.598-1.1428-4.8683-1.5172-6.3464-1.9128-7.5515-0.66417-2.0235-1.5635-3.7791-2.5976-5.071-0.21062-0.26312-1.4027-1.5197-2.6492-2.7925-2.2415-2.2888-2.9549-3.1447-3.7523-4.5021-0.44967-0.76539-1.0078-2.0112-1.3475-3.008-1.1784-3.4574-1.3259-6.6006-0.69207-14.749 0.23985-3.0835 0.2689-5.3606 0.082236-6.4456-0.16588-0.96415-0.65069-2.4545-1.0278-3.1595-0.3808-0.7119-0.7554-1.2128-1.8681-2.4981-2.4406-2.819-3.217-4.2594-3.7194-6.9001-0.2203-1.158-0.20038-3.1949 0.045153-4.6164 0.24353-1.4099 0.75251-3.4163 1.1435-4.5075 0.90028-2.5128 2.9251-5.7694 4.9014-7.883 2.1883-2.3404 4.3731-3.6445 7.0014-4.1791 0.96208-0.19568 4.6976-0.17387 6.0572 0.0354 2.0038 0.30839 3.8301 0.8465 5.1061 1.5044 1.0217 0.52681 2.0033 1.4757 3.145 3.04 1.8155 2.4875 2.2816 3.4158 3.554 7.078 0.93064 2.6785 1.2851 3.8072 1.8145 5.7779 0.25412 0.94597 0.61996 2.2235 0.81299 2.839 0.60986 1.9446 0.76248 2.7875 1.2277 6.7811 0.23024 1.9763 0.50706 3.4758 1.1408 6.1799 0.94484 4.0313 0.96989 4.2144 0.96817 7.0756-0.0016 2.7087-0.09081 3.886-0.62404 8.2381-0.47012 3.837-0.52064 4.4158-0.52086 5.968-3.39e-4 2.167 0.20605 3.0978 1.4519 6.5488 0.41324 1.1447 0.88298 2.5415 1.0439 3.104 0.68604 2.3987 1.1436 5.4714 1.4474 9.7189 0.07241 1.0126 0.17257 2.4 0.22257 3.083 0.11614 1.5864 0.34695 2.9696 0.62766 3.7614 0.12162 0.34307 0.72975 1.6725 1.3514 2.9543 1.788 3.6868 2.4769 5.4831 2.9407 7.6683 0.17727 0.83518 0.19143 1.1137 0.19154 3.7663 8.4e-5 2.3846-0.0342 3.2218-0.20472 4.9978-0.14224 1.4814-0.20649 2.7082-0.21025 4.0143l-0.0054 1.881 0.31972 0.50362c0.47809 0.75307 2.2633 4.4374 2.9038 5.993 1.1447 2.7799 1.3314 3.283 1.562 4.2078 0.48842 1.9595 0.50878 3.245 0.07227 4.5639-0.35001 1.0576-1.1946 1.9795-2.0061 2.1899-0.51809 0.13432-1.3612 0.0686-2.0071-0.15654z" fill="#eceae8" stroke-width=".17906"/> <path d="m27.075-259.37c-1.4076-0.20141-2.9669-0.69922-4.1544-1.3263-0.25294-0.13356-1.3676-0.78236-2.4771-1.4418-1.1094-0.6594-2.7026-1.5345-3.5403-1.9448-3.7974-1.8596-7.1557-3.8799-10.148-6.1052-2.7312-2.0309-4.0473-2.8532-6.096-3.8091-2.7926-1.3029-4.8918-2.5873-6.4347-3.9371-0.39582-0.34629-1.5579-1.465-2.5823-2.486-4.9112-4.8946-6.294-6.1765-7.8169-7.2467-1.432-1.0063-2.4033-1.3691-5.0525-1.8872-3.7117-0.72586-6.6174-1.5786-8.4872-2.4907-1.0561-0.51519-2.2847-1.3994-3.2022-2.3048-1.2613-1.2445-2.1483-2.5546-2.9211-4.3146-1.1884-2.7062-1.8585-5.6089-2.5344-10.979-0.32297-2.5657-0.40596-2.9937-1.0205-5.2616-0.96357-3.5562-1.1809-5.0044-1.1809-7.8679 0-1.7601 0.22933-5.5371 0.58993-9.7162 0.08911-1.0327 0.22244-2.7999 0.29629-3.927 0.07384-1.1271 0.18942-2.8177 0.25682-3.7568 0.42457-5.915 0.36916-8.0345-0.33019-12.629-1.0696-7.0272-0.76518-14.597 0.79729-19.83 1.7309-5.7966 4.6462-10.466 7.5339-12.068 2.0408-1.1318 4.9005-0.95509 7.1809 0.44374 0.68464 0.41999 2.3359 2.1416 2.9998 3.1276 0.54698 0.81236 2.2554 3.8821 2.9802 5.355 0.57957 1.1777 1.0762 2.4145 1.6835 4.1925 1.0301 3.0158 1.4503 4.6358 1.6616 6.4055 0.05347 0.44789 0.11692 0.93022 0.14099 1.0718 0.02408 0.1416 0.07445 3.7211 0.11194 7.9545 0.07233 8.1682 0.10124 8.8204 0.55826 12.596 0.4391 3.6272 1.1805 6.7824 2.1525 9.1607 1.5827 3.8726 3.9519 7.8055 8.1956 13.605 1.0431 1.4255 2.1584 2.9906 2.4784 3.4782 1.5201 2.3158 3.0336 5.2492 4.8755 9.4497 0.49531 1.1295 1.3948 3.18 1.9988 4.5567 2.3734 5.4093 2.8897 6.2858 5.6675 9.6204 1.3574 1.6296 5.2175 6.6646 6.2237 8.1181 1.6871 2.4372 3.2462 5.0566 4.6411 7.7976 0.57449 1.1289 1.0892 2.033 1.2299 2.1603 0.13308 0.12039 0.7493 0.5154 1.3694 0.8778 0.62008 0.3624 1.5656 0.91587 2.1011 1.2299s1.5197 0.88764 2.187 1.2746c2.5148 1.4582 3.9484 2.4922 5.1025 3.68 0.61737 0.63545 0.88164 0.98099 1.1007 1.4391 0.2723 0.56955 0.28821 0.65259 0.28779 1.5025-4.23e-4 0.83143-0.02204 0.94981-0.28548 1.5621-0.15677 0.36437-0.43117 0.88037-0.60977 1.1467-0.68391 1.0198-2.4129 2.51-3.4844 3.0033-1.1704 0.53881-2.618 0.7254-4.0443 0.5213z" fill="#eceae8" stroke-width=".17906"/> <path d="m77.028-257.5c-1.7931-0.53406-3.1224-1.9373-3.3968-3.5857-0.13107-0.78722-0.0063-1.3684 0.51039-2.3758 0.82467-1.6082 1.1532-2.0155 5.4265-6.7277 2.3765-2.6206 2.4318-2.6832 3.6259-4.1042 0.58026-0.69057 1.1224-1.4101 1.2048-1.599 0.1715-0.39321 0.45554-2.1009 0.58891-3.5406 0.12836-1.3857 0.29812-2.2831 0.64182-3.3929 0.43406-1.4016 0.8422-2.3117 3.0828-6.8742 2.4114-4.9104 2.8779-5.951 4.4043-9.8252 1.3556-3.4406 2.7373-6.0984 4.4476-8.5555 0.25-0.35916 0.91949-1.3856 1.4877-2.2808 1.3122-2.0675 3.3833-5.1603 4.2224-6.3057 1.6156-2.2053 2.6059-3.8419 3.9586-6.5426 1.5791-3.1526 3.1212-6.5932 3.9233-8.7535 1.6468-4.435 2.4625-5.7791 5.8224-9.5938 3.9842-4.5236 7.7877-10.228 13.493-20.235 0.95362-1.6728 2.039-3.5544 2.412-4.1813 1.0555-1.7742 1.738-3.0517 2.8319-5.3012 2.4343-5.0058 4.6521-8.2371 7.1721-10.45 1.5054-1.322 3.4306-2.766 5.0566-3.7926 1.3946-0.88057 3.2366-1.6095 4.7687-1.887 2.1839-0.3956 4.1637 0.35637 5.8976 2.24 1.492 1.6209 2.3649 3.5178 3.0329 6.591 0.59489 2.7368 0.68199 3.5646 0.68075 6.4702-2e-3 3.5079-0.18778 6.001-0.63788 8.537-0.17517 0.98699-0.60273 2.9695-1.4685 6.8093-1.0453 4.6357-1.2732 8.4734-0.7633 12.852 0.30216 2.595 0.34062 5.0548 0.097 6.2013-0.3219 1.5146-0.73448 2.5293-2.2576 5.5527-1.9055 3.7824-2.807 6.0463-3.8662 9.7083-0.65175 2.2534-1.217 3.2516-2.6075 4.6047-1.0801 1.051-1.717 1.4252-3.9985 2.3493-0.97005 0.3929-2.2209 0.92356-2.7797 1.1793-1.3374 0.61194-2.8542 1.2327-4.826 1.975-2.2879 0.86132-2.9859 1.2178-6.5193 3.3295-2.8063 1.6771-3.4472 2.1402-6.35 4.5878-2.1259 1.7926-4.0189 3.6254-5.0104 4.8513-0.37468 0.46322-1.1689 1.5045-1.7649 2.3139-1.2267 1.666-1.8141 2.4034-2.778 3.4879-1.2515 1.408-4.6468 4.8234-6.3953 6.4334-3.2042 2.9502-3.9879 3.7878-6.7463 7.21-2.9404 3.648-3.7249 4.8794-6.1271 9.6181-1.7215 3.396-3.2414 6.307-3.6281 6.9489-1.1273 1.8713-2.4452 3.133-4.552 4.358-1.2793 0.74384-2.3081 1.0105-4.3969 1.1397-1.2581 0.0778-1.8764 0.15282-3.8976 0.47286-1.588 0.25143-3.335 0.28747-4.0217 0.0829z" fill="#eceae8" stroke-width=".17906"/> <path d="m-5.6911-243.62c-1.2971-0.10505-4.4007-0.48785-5.334-0.65801-0.58208-0.10607-1.7632-0.38201-2.6247-0.61308-2.9933-0.80289-3.3808-0.78999-8.2127 0.27331-0.84498 0.18595-1.1527 0.21102-2.3283 0.18974-1.2082-0.0217-1.4142-0.0472-1.905-0.23437-0.86631-0.33035-1.5963-0.83006-2.5315-1.7328-0.4761-0.45963-0.9684-0.89151-1.094-0.95977-0.12559-0.0682-0.78635-0.25625-1.4684-0.41774-2.1392-0.50658-2.9555-0.87659-3.8642-1.7515-1.2513-1.2049-2.1147-2.9792-2.5244-5.188-0.21849-1.178-0.21999-4.2275-3e-3 -6.1565 0.42082-3.7414 1.0753-6.3096 2.5674-10.075 1.594-4.0223 3.4381-6.6341 5.744-8.1354 1.4197-0.92434 2.3665-1.11 3.7246-0.73034 0.88389 0.24707 1.6151 0.67432 3.6828 2.152 2.1192 1.5144 2.8197 2.0778 4.0217 3.2343 1.9171 1.8446 2.5233 2.284 5.0377 3.6511 1.0012 0.54437 2.5252 1.4284 3.3867 1.9645 2.0341 1.2657 3.5353 2.1096 6.6463 3.7357 2.9201 1.5264 4.3525 2.1487 7.1967 3.1266 5.1282 1.7633 7.8488 2.7858 9.6593 3.6303 1.3663 0.63731 1.8687 0.92801 3.4859 2.0167 0.71058 0.47837 1.5869 1.0176 1.9473 1.1982 0.59393 0.29764 0.73476 0.33301 1.502 0.37721 0.46567 0.0269 1.4944-3e-3 2.286-0.0674 0.79163-0.0639 2.7157-0.11915 4.2757-0.12284 2.0993-5e-3 2.9793-0.0386 3.3867-0.12946 1.2862-0.287 2.5974 0.0561 3.4077 0.89168 0.73268 0.7555 0.99143 1.6933 0.83527 3.0273-0.12239 1.0455-0.34401 1.7385-0.80412 2.5145-0.82568 1.3926-1.5562 2.015-3.7419 3.1877-3.2512 1.7444-4.6988 2.2326-7.0769 2.3865-1.1223 0.0727-4.3561-0.11902-6.5085-0.38559-0.90977-0.11262-2.0337-0.21354-2.4977-0.22413-1.1222-0.0258-3.1539-0.20833-4.3572-0.39191-4.6076-0.70296-6.243-0.8612-7.4638-0.7222-0.40304 0.0458-1.6603 0.2943-2.794 0.55198-2.7892 0.634-3.7903 0.73774-5.6595 0.58643z" fill="#eceae8" stroke-width=".17906"/> <path d="m83.378-239.86c-1.6624-0.14076-3.6136-0.59897-5.5689-1.3078l-0.82343-0.29849-1.0239 0.0292c-1.4802 0.0423-2.3132-0.17518-3.1172-0.81353-1.2878-1.0225-1.2542-2.7001 0.08154-4.0791 0.47521-0.49058 1.7582-1.3831 2.7895-1.9405 0.73877-0.3993 1.1289-0.56467 3.0057-1.274 0.93434-0.35311 1.7505-0.80106 2.9043-1.5939 1.1424-0.78507 1.746-1.1167 2.7261-1.4978 1.5336-0.59626 3.7104-1.1016 6.243-1.4492 0.63967-0.0878 1.2716-0.20498 1.4042-0.26039 0.24368-0.1018 1.3914-1.1002 2.2028-1.9163 0.94711-0.95256 2.2863-2.7856 3.2894-4.5023 0.7256-1.2419 1.5441-2.2922 2.3533-3.0199 1.0734-0.96525 2.2798-1.6764 7.4285-4.3789 2.6862-1.4099 3.7512-2.1702 6.7478-4.8164 2.6972-2.3818 4.3706-3.6304 7.2338-5.3975 0.84473-0.52135 1.9034-1.204 2.3527-1.5171 1.4608-1.0179 3.4868-2.1899 5.5085-3.1865 1.4649-0.72211 3.5563-1.4974 5.0413-1.8688 0.36591-0.0915 0.69459-0.22569 0.81343-0.33203 0.10968-0.0982 0.83896-1.0335 1.6206-2.0785 2.4624-3.292 3.4441-4.4034 5.0048-5.6659 1.9615-1.5868 3.334-2.2654 5.3668-2.6535 1.1239-0.21459 2.6093-0.21428 3.4711 7.7e-4 2.2343 0.55744 4.2975 2.0213 6.066 4.3039 1.8668 2.4096 2.5595 4.599 2.3195 7.3318-0.0878 0.99987-0.17242 1.5186-0.73637 4.5147-0.29501 1.5672-0.31263 2.8017-0.051 3.5738 0.10204 0.30117 0.50796 1.1328 0.90204 1.8481 0.39408 0.7153 0.85035 1.5854 1.014 1.9336 0.90474 1.9256 1.4079 4.4635 1.2812 6.4617-0.13467 2.1228-0.61776 5.1978-1.187 7.5556-0.20515 0.84971-0.50962 2.208-0.67661 3.0184-0.50449 2.4484-0.81509 3.3256-1.6619 4.6937-1.4606 2.3598-4.0511 4.4516-6.9814 5.6376-1.8028 0.72963-3.568 1.0794-5.5934 1.1083-2.0409 0.0291-3.2009-0.17373-6.4792-1.133-2.2968-0.67205-3.7081-0.99607-6.0446-1.3878-3.7417-0.62733-6.3133-0.83035-8.2484-0.65118-2.7736 0.25678-7.0956 0.93667-8.7843 1.3818-3.5923 0.94699-7.7921 2.0906-8.6147 2.3457-2.5853 0.80184-5.1564 1.3814-8.0483 1.8143-0.84093 0.12588-2.3628 0.40611-3.382 0.62276-3.2023 0.68072-4.6369 0.86074-7.4504 0.93498-1.8399 0.0486-3.4165 0.0182-4.699-0.0899z" fill="#eceae8" stroke-width=".17906"/> <path d="m55.989-236.84c-1.1235-0.12614-3.2779-0.47992-4.1487-0.68125-4.5837-1.0598-8.3742-3.8622-10.161-7.5123-1.666-3.4031-2.061-7.8754-1.0478-11.863 0.81396-3.2032 2.3632-6.0799 4.3054-7.9945 1.7839-1.7586 3.7813-2.736 6.0145-2.9432 0.39582-0.0367 1.1197-0.16022 1.6087-0.27444 2.056-0.48031 5.5948-0.18505 7.7444 0.64613 1.2342 0.47721 2.1083 1.1472 3.7887 2.904 1.7951 1.8766 2.3289 2.5869 3.374 4.4899 1.2402 2.2582 1.4936 2.7823 1.8092 3.7416 0.50963 1.5491 0.59514 2.2358 0.5967 4.7922 0.0015 2.5551-0.0061 2.609-0.6517 4.6035-0.4763 1.4714-0.81586 2.241-1.3455 3.0496-0.19748 0.30149-0.63716 1.0746-0.97705 1.718-0.95945 1.8161-1.7003 2.7573-2.8462 3.6158-1.211 0.90724-2.652 1.4945-4.2135 1.7171-0.73904 0.10534-2.8748 0.10018-3.85-9e-3z" fill="#bf9004" stroke-width=".17906"/> <path d="m-31.304-190.22c-0.90232-0.33427-1.6486-0.94916-2.2182-1.8276-0.23709-0.36565-0.40213-0.51742-0.72039-0.66245-0.50057-0.22811-1.0731-0.86951-1.4245-1.5958-0.34756-0.71847-0.63555-1.9423-0.8004-3.4015-0.07679-0.6797-0.32503-2.0862-0.55164-3.1257-0.79418-3.6428-0.93744-5.1509-0.96859-10.196-0.01789-2.8979-0.06149-4.3061-0.16556-5.3476-0.38222-3.8253-0.3001-8.3378 0.20765-11.411 0.32354-1.9581 1.3687-5.6706 2.1005-7.461 0.84104-2.0577 2.2593-3.4625 3.9079-3.8705 0.61468-0.15214 1.8943-0.12031 2.6349 0.065 0.4049 0.1016 1.1666 0.45353 2.3874 1.1031 2.1133 1.1244 3.3946 1.7098 4.5253 2.0677 0.4529 0.14333 1.425 0.45229 2.1601 0.68658 1.6392 0.52235 2.5917 0.75628 3.6272 0.8908 1.1928 0.15493 6.0987 0.55943 7.0165 0.57849 1.4702 0.0304 3.4857-0.29896 5.9958-0.9803 1.4388-0.39055 1.6774-0.46945 5.2225-1.7273 4.3796-1.5539 9.5367-3.083 12.023-3.5647 2.4005-0.4652 3.8863-0.53879 5.2063-0.25787 1.2729 0.2709 2.0899 0.81286 2.4925 1.6534 0.68224 1.4245 0.09779 3.2487-1.7413 5.4347-0.74973 0.89118-6.7583 6.6904-7.7205 7.4515-1.6744 1.3245-3.1666 2.1661-5.7245 3.2288-2.8057 1.1656-4.5144 2.4862-9.5305 7.3658-1.3504 1.3137-3.0459 2.8787-3.7677 3.4779-2.3447 1.9464-4.2072 3.9765-7.4534 8.1242-2.6968 3.4457-4.9645 6.0391-7.6532 8.7524-2.2971 2.3181-3.4563 3.2214-5.2246 4.0712-1.3616 0.65436-2.8606 0.84029-3.8422 0.47662z" fill="#eceae8" stroke-width=".17906"/> <path d="m153.14-99.955c-1.118-0.22608-2.0132-0.46018-3.75-0.98064-1.7821-0.53402-2.7538-0.89068-4.4627-1.638l-1.397-0.61091-2.413-0.0562c-1.9705-0.0459-2.545-0.0324-3.1327 0.0761-2.56 0.47238-2.5374 0.47049-4.953 0.4104-4.1703-0.10378-6.048-0.40533-10.118-1.625-5.6176-1.6836-5.4447-1.6537-10.287-1.7803-4.0958-0.10709-4.9974-0.19284-7.1316-0.67782-4.5126-1.0256-8.8111-3.2522-12.627-6.5405-2.7401-2.3615-6.1403-6.3164-7.8744-9.1592-2.2491-3.6869-3.1363-7.0225-2.6795-10.073 0.42045-2.8081 1.9186-4.8095 4.2258-5.6452 0.64927-0.23517 0.75294-0.24744 1.9141-0.22643 0.91684 0.0165 1.3635 0.0629 1.7643 0.18301 1.8126 0.54312 3.9503 1.7914 9.073 5.2983 1.6066 1.0998 4.0259 2.7321 5.3763 3.6275s3.8841 2.6238 5.6303 3.8412c1.7462 1.2173 3.918 2.7023 4.826 3.2999 2.0028 1.3181 2.9191 1.9708 5.5085 3.9236 3.2906 2.4816 5.3173 3.8277 7.3185 4.8608 2.1056 1.087 2.9163 1.3507 5.334 1.7347 3.0152 0.47892 4.5512 0.84151 6.6463 1.5689 1.6001 0.55553 2.9333 1.1514 5.588 2.4975 2.3437 1.1884 2.794 1.3997 2.794 1.3108 0-0.1078-7.0538-6.0213-9.398-7.8787-1.276-1.011-3.6431-2.7854-5.3763-4.03-5.9187-4.2502-8.7941-7.2428-12.647-13.163-0.79463-1.2209-0.99441-1.4584-2.5738-3.0607-1.9993-2.0282-2.7706-2.7242-4.2618-3.8456-2.1792-1.6387-7.7647-4.9752-11.162-6.6678-3.7032-1.8448-4.3837-2.1028-6.3535-2.4088-1.2968-0.20143-3.8533-0.19082-5.6733 0.0236-1.6144 0.19018-4.0628 0.22216-5.065 0.0662-3.775-0.58752-7.114-2.9907-11.027-7.9366-2.3063-2.9151-3.8036-6.0594-4.2427-8.9094-0.22727-1.4752-0.20425-4.5489 0.04442-5.9296 0.64299-3.5704 2.0617-5.5732 4.5624-6.441 0.85372-0.29627 1.8504-0.42495 2.6038-0.33623 2.693 0.31714 4.9052 1.7714 10.288 6.7628 3.033 2.8127 6.7317 6.081 10.16 8.9776 5.2908 4.4704 7.1956 6.1985 10.256 9.3043 1.0538 1.0696 1.9418 1.9452 1.9733 1.9459 0.16134 3e-3 -1.3846-2.1946-2.7779-3.9495-1.3019-1.6398-2.4434-2.9388-5.1299-5.8379-2.6164-2.8233-2.9653-3.2203-4.02-4.5745-1.8145-2.3296-3.0893-4.3546-4.31-6.8465-0.90031-1.8379-1.5068-3.4142-2.7083-7.0395-0.53613-1.6177-1.0326-3.0554-1.1033-3.195-0.21833-0.43104-1.5182-1.8917-3.5166-3.9517-2.0786-2.1426-2.428-2.4172-4.3997-3.4578-1.4497-0.76506-4.3638-1.9555-5.2257-2.1347-0.49484-0.10291-1.2766-0.0181-3.1615 0.34518-1.3563 0.261-2.9563 0.2577-3.8159-8e-3 -0.64056-0.19792-1.6787-0.71884-2.2604-1.1342-0.5717-0.40825-1.8916-1.7409-2.5411-2.5656-1.328-1.6863-2.9557-4.5028-3.7774-6.536-0.88273-2.1843-1.2577-4.2458-1.0749-5.9085 0.12362-1.124 0.28644-1.6923 0.78058-2.7244 0.3655-0.76345 0.5178-0.97527 1.1546-1.6059 0.83558-0.82745 1.6688-1.3019 2.7836-1.5849 0.96613-0.24526 2.6713-0.20744 3.6649 0.0808 1.3661 0.39698 2.1162 0.86917 3.9075 2.4596 0.48191 0.42789 1.7144 1.4569 2.7389 2.2868 1.0245 0.82984 2.434 1.9872 3.1322 2.572 1.7491 1.4648 2.1569 1.7856 2.2066 1.7365 0.02357-0.0233-0.28284-1.0453-0.68091-2.2711-0.83761-2.5792-1.3148-4.4517-2.1555-8.4583-0.78833-3.757-0.85239-3.9862-2.0515-7.3412-1.2051-3.3718-1.3154-3.6308-2.1089-4.9558-0.33437-0.55826-0.80296-1.3414-1.0413-1.7404-0.34735-0.58135-0.59548-0.86667-1.25-1.4374-0.82634-0.72056-2.0903-1.5216-3.2262-2.0445-0.8606-0.39622-1.5548-0.87679-1.7105-1.184-0.07209-0.14231-0.13106-0.41962-0.13106-0.61626 0-0.307 0.05083-0.40741 0.35983-0.7107 0.2798-0.27463 0.5105-0.39884 1.0372-0.55849 0.95133-0.28837 1.3576-0.31834 2.0717-0.15279 1.3187 0.30568 4.9366 2.6502 5.8962 3.8208 0.19131 0.23339 0.64496 0.87271 1.0081 1.4207 0.36315 0.54799 0.99389 1.4652 1.4017 2.0382 0.92253 1.2963 1.2625 1.9418 2.0272 3.8481 0.33298 0.83007 0.83225 2.0043 1.1095 2.6095 0.97309 2.124 1.2816 3.1213 1.9771 6.3907 0.21096 0.99164 0.38355 1.8129 0.38355 1.8251 0 0.0122 0.03224 0.0228 0.07164 0.0236 0.03941 8.3e-4 0.09736-0.57331 0.12879-1.2759 0.15946-3.5655 0.97227-9.9065 1.579-12.318 0.74357-2.9558 2.0299-4.8765 4.1042-6.1282 2.0996-1.267 4.4304-1.4536 6.2372-0.49946 1.1065 0.58432 2.5334 1.8698 3.1122 2.8039 0.48712 0.78607 0.64256 1.4249 0.63729 2.6189-0.0095 2.1491-0.63924 4.0075-3.0639 9.0413-3.0466 6.3251-4.1886 9.5779-4.5065 12.836-0.14848 1.522-0.20419 6.0763-0.09595 7.844 0.24871 4.062 0.43539 4.9447 1.6803 7.945 0.63768 1.5368 1.8492 4.894 2.5654 7.1087 2.6286 8.1289 3.9038 10.733 7.3409 14.991 0.44415 0.55026 2.8881 3.1432 5.431 5.7621 2.5429 2.6189 4.9414 5.1064 5.3299 5.5278s0.72517 0.74757 0.74814 0.72489c0.0601-0.0594-1.6795-5.7572-2.6843-8.7918-1.9545-5.903-3.282-8.6537-6.2768-13.006-0.54016-0.78506-1.2563-1.8565-1.5914-2.3809-0.6945-1.0868-1.9917-3.6942-2.5367-5.0987-1.625-4.188-2.795-9.2786-3.3179-14.436-0.05769-0.56895-0.10426-2.1742-0.10424-3.5935 6.8e-5 -6.8978 1.2252-12.99 3.4668-17.239 1.6866-3.1971 4.5245-6.2969 6.6165-7.2272 2.3996-1.067 5.0154-0.25047 7.6685 2.3937 0.91209 0.90902 2.0269 2.3377 2.6153 3.3518 1.0811 1.8632 1.8823 4.1596 2.3292 6.6762 0.20229 1.1391 0.22153 1.4474 0.22708 3.6388 6e-3 2.1779-0.0184 2.6025-0.2646 4.6972-0.14887 1.2666-0.32998 3.1482-0.40248 4.1812-0.16757 2.3882-0.33024 4.2838-0.61153 7.1268-0.31182 3.1514-0.31364 6.1613-7e-3 11.03 0.12322 1.9543 0.24788 4.1309 0.27701 4.837 0.1091 2.6434 0.30036 4.5203 0.89066 8.7406 0.18474 1.3207 0.45176 3.4227 0.59338 4.6711 0.35955 3.1693 0.49597 4.0903 1.0166 6.8637 0.1374 0.73187 0.38291 2.2843 0.54558 3.45 0.16267 1.1656 0.39255 2.5749 0.51084 3.1318 0.40888 1.9249 1.2993 5.3169 1.8235 6.9466 0.58571 1.8209 1.0412 3.3532 2.2764 7.6584 0.46156 1.6088 0.89443 3.0801 0.96192 3.2697 0.46818 1.3149 2.3434 5.1524 3.0188 6.1778 0.54169 0.82234 2.3866 2.4988 6.3114 5.7351 1.1642 0.95995 3.2025 2.6728 4.5297 3.8062 2.8963 2.4736 6.3966 5.4782 7.3066 6.2719 0.36316 0.31675 0.6758 0.57622 0.69474 0.57662 0.18253 4e-3 -0.93884-2.2274-1.8243-3.63-0.67582-1.0705-3.1626-6.0768-4.1097-8.2734-0.44474-1.0315-0.97875-2.5785-1.9406-5.6216-0.72761-2.3021-1.0705-3.0475-3.4552-7.5124-5.2703-9.8676-6.1586-11.948-7.8493-18.38-0.86314-3.2837-1.5254-5.5067-2.6534-8.9062-1.0138-3.0555-1.264-3.7481-2.6611-7.3673-2.2893-5.9304-3.0609-8.9175-3.7776-14.625-0.84586-6.7355-0.847-12.403-4e-3 -17.629 1.339-8.2978 3.8015-15.998 6.619-20.699 2.8342-4.7287 6.3404-7.6224 10.424-8.6031 0.82222-0.19746 1.2068-0.23957 2.3117-0.25316 2.003-0.0247 3.3494 0.26605 4.9738 1.0738 2.2916 1.1395 3.9828 2.8879 4.9162 5.0825 0.68434 1.6089 1.5378 4.642 1.7408 6.1867 0.19665 1.4962 0.16515 3.0801-0.17464 8.7842-0.2629 4.4132-0.67568 7.0082-2.2434 14.104-1.453 6.5759-1.717 8.2901-1.7263 11.207-0.01 3.081 0.27312 4.5611 1.6529 8.6464 2.0758 6.1458 2.6459 9.4699 2.6462 15.429 0 2.9503-0.0845 5.0188-0.36896 9.0131-0.38217 5.3661-0.39027 8.0117-0.0353 11.542 0.37381 3.7182 0.7045 5.2576 2.1129 9.8359 1.0126 3.2916 1.5303 5.4747 1.9362 8.1642 0.28103 1.8624 0.38725 3.1779 0.38832 4.8091 8.5e-4 1.2172 0.024 1.4259 0.2574 2.3141 0.93959 3.5758 1.3259 5.9082 1.3766 8.3109 0.0215 1.0203 0.0347 1.0911 0.28729 1.5452 0.29058 0.52242 1.2052 2.6036 1.3845 3.1504 0.0621 0.18944 0.11377 0.59721 0.11478 0.90616 2e-3 0.71798-0.30711 1.3922-0.84053 1.8312-0.24614 0.20255-0.43211 0.45756-0.55528 0.76142-0.24693 0.60919-0.79769 1.1421-1.411 1.3652-0.44068 0.16032-0.67488 0.17556-2.5179 0.16388-1.7108-0.01094-2.1725-0.04115-2.921-0.19264z" fill="#444d35" stroke-width=".17906"/> <path d="m11.844-102.37c-3.6595-0.49783-6.1091-1.8697-7.7289-4.3283-1.2124-1.8403-2.2111-4.61-2.6637-7.3874-0.20767-1.2745-0.20612-3.6017 0.00318-4.7883 0.37324-2.116 0.90695-3.9149 1.7946-6.0488 0.90975-2.1871 1.5242-3.3095 3.4617-6.3235 1.3883-2.1598 2.2467-3.6439 2.9299-5.0661 1.5462-3.2185 2.5199-6.9278 2.8691-10.929 0.12063-1.3824 0.10752-3.433-0.04315-6.7471-0.17289-3.803-0.05833-5.5396 0.55822-8.4621 0.59488-2.8198 2.102-7.537 3.7582-11.763 1.3534-3.4533 1.9988-5.8294 2.9675-10.925 1.2268-6.453 1.3878-6.9683 5.0831-16.266 1.1039-2.7776 1.4717-3.5833 3.2086-7.0288 1.1795-2.3398 2.2449-4.5846 2.6718-5.6294 0.93509-2.2889 2.7629-6.5983 3.4428-8.117 0.59605-1.3314 0.71816-1.6416 1.5259-3.8766 1.4377-3.9777 2.0918-5.2759 3.4899-6.9261 0.92412-1.0908 2.0923-1.9378 3.1671-2.2965 1.2919-0.43111 3.1346-0.47236 4.1449-0.0928 1.3843 0.52015 2.476 1.7912 2.8222 3.2861 0.20062 0.86623 0.12591 2.5452-0.16116 3.6218-0.21559 0.80847-0.36355 1.2137-1.8588 5.0909-0.80771 2.0943-1.2251 3.3175-2.1785 6.3834l-0.52025 1.6731 0.06038 2.5925c0.07421 3.1867-0.0084 3.8207-0.79952 6.1382-0.45228 1.3248-0.67875 1.8752-2.004 4.8699-1.7905 4.0461-2.2081 5.1988-2.7793 7.6723-0.72946 3.1585-0.81363 4.1792-0.81617 9.897-0.0032 7.2011-0.10022 7.8867-2.2801 16.109-0.72295 2.727-1.027 4.1104-1.31 5.9607-0.53784 3.516-0.77272 6.5813-0.69664 9.0916 0.08505 2.8061 0.2022 3.8431 1.1957 10.584 0.21193 1.4379 0.4803 3.5406 0.59638 4.6727 0.11608 1.1322 0.32776 3.196 0.4704 4.5864 0.48334 4.7114 0.91908 7.3696 1.6879 10.297 0.91492 3.4835 1.1594 6.4389 0.7594 9.1817-0.37662 2.5827-1.1162 4.2129-2.6177 5.77-2.1856 2.2665-5.1437 3.7386-8.9799 4.4689-1.9312 0.36764-5.7026 0.86243-8.255 1.083-1.4363 0.12413-5.9908 0.10554-6.9759-0.0285z" fill="#eceae8" stroke-width=".17906"/> <path d="m-31.176-102.21c-1.9052-0.4336-3.099-1.455-3.8658-3.3073-0.60424-1.4598-1.3133-4.7624-1.886-8.7843-0.31483-2.2112-0.4471-3.5828-0.93776-9.7249-0.16461-2.0605-0.55252-5.5629-0.93503-8.4422-0.22754-1.7128-0.60756-3.8352-1.0528-5.8795-0.47981-2.2034-0.55141-2.7135-0.55141-3.9288 0-1.1239 0.08011-1.6706 0.63723-4.3482 0.52424-2.5196 1.0193-5.3676 1.2836-7.3843 0.2158-1.6466 0.22388-1.8616 0.23439-6.237 0.0094-3.918 0.03095-4.641 0.15908-5.3396 0.44894-2.4477 1.2489-4.6562 2.3827-6.5776 1.4524-2.4614 4.8572-6.0067 8.0651-8.3979 1.2708-0.94729 1.6534-1.1961 3.6632-2.3822 5.1113-3.0166 7.3616-4.7894 11.216-8.8357 1.5584-1.6361 2.9343-3.2303 4.7735-5.5306 1.7698-2.2136 2.8165-3.447 4.6267-5.4523 2.9844-3.306 3.9772-4.4727 6.7973-7.988 0.74192-0.92482 2.0879-2.513 2.991-3.5294 0.90315-1.0163 2.0908-2.3641 2.6393-2.995 1.2197-1.403 1.8413-1.9786 3.5324-3.2707 2.8347-2.1658 3.4017-2.6399 4.9982-4.1789 0.90965-0.87684 2.1458-2.0455 2.747-2.5971 1.4919-1.3687 2.5416-2.6189 3.6257-4.3178 1.7301-2.7115 2.8216-3.9837 4.8152-5.6122 1.4143-1.1552 2.4734-1.8557 3.3626-2.2238 2.8181-1.1665 5.4503-0.75502 6.7456 1.0545 0.54834 0.76605 0.75173 1.8007 0.53867 2.7403-0.22676 1-0.83002 1.8877-3.4042 5.0095-0.83588 1.0137-1.9249 2.3732-2.4201 3.0211-0.49518 0.64797-1.4693 1.8997-2.1647 2.7816-1.9804 2.5114-5.0096 6.5398-5.8582 7.7906-0.42463 0.62586-1.1713 1.7836-1.6593 2.5727-0.48799 0.78912-1.4328 2.2889-2.0996 3.3329-0.89952 1.4084-1.3574 2.2269-1.7746 3.1725-0.80052 1.8141-1.4735 3.0674-3.0646 5.7076-3.2243 5.3502-4.3503 7.7243-5.305 11.186-0.81779 2.9652-1.2077 5.178-1.498 8.5021-0.34921 3.9982-0.82545 5.7031-3.4072 12.198-1.5235 3.8327-2.3536 6.2893-3.0118 8.9142-0.9076 3.6192-1.2523 5.9874-1.6252 11.167-0.17119 2.3777-0.32537 3.2844-1.0504 6.1769-0.32245 1.2864-0.70072 2.9329-0.84062 3.6589-0.39513 2.0505-1.0848 6.9699-1.6254 11.594-0.76799 6.569-1.3968 9.3334-2.7096 11.913-1.4188 2.7879-2.574 4.2579-4.8137 6.1253-0.58544 0.48812-1.5597 1.3168-2.1651 1.8416-2.0649 1.7898-4.6821 3.5314-6.979 4.6441-1.1533 0.55871-1.8047 0.7648-4.197 1.3279-3.9505 0.92983-7.1821 1.2311-8.9323 0.83277z" fill="#eceae8" stroke-width=".17906"/> <path d="m59.248-99.955c-2.7915-0.40791-5.7588-1.2439-7.5108-2.116-2.9171-1.4521-5.7033-4.7719-6.467-7.7056-0.33404-1.2832-0.26314-3.4631 0.30433-9.3564 0.17701-1.8383 0.42381-3.6413 0.80525-5.8828 0.1834-1.0778 0.37243-2.382 0.42008-2.8983 0.11034-1.1956 0.11103-9.8845 9.31e-4 -12.142-0.16231-3.3288-0.37125-4.8041-1.0628-7.5044-1.3219-5.1618-1.3923-5.5133-1.5655-7.8143-0.10518-1.3974-0.05893-2.6944 0.1828-5.1265 0.199-2.0022 0.73671-5.6798 1.1466-7.8422 0.80239-4.233 0.80763-4.8705 0.0741-9.0193-0.54015-3.0551-0.59515-3.608-0.58813-5.9124 0.01587-5.2154 1.1221-10.418 4.2261-19.876 2.0486-6.2419 2.4018-7.8258 2.0405-9.1486-0.06461-0.23651-0.44266-1.3989-0.84012-2.583-0.9386-2.7964-1.0284-3.2375-1.0223-5.0238 0.0074-2.1803 0.39517-3.9589 1.4288-6.5536 0.57662-1.4475 0.97641-2.861 0.97641-3.4522 0-0.77141 0.70776-1.6814 1.4601-1.8773 1.0746-0.27979 2.4227 0.13356 3.3324 1.0217 0.55634 0.5432 0.72687 0.82574 1.4466 2.3967 1.0353 2.2599 1.1703 3.0681 1.0986 6.5767-0.06821 3.3375-0.18316 4.4708-0.87405 8.6176-0.2704 1.623-0.30589 2.0355-0.38186 4.4382-0.1335 4.2219-0.09642 4.8242 0.59309 9.632 0.789 5.5016 1.1516 8.619 1.4555 12.515 0.21427 2.7463 0.81104 7.232 1.2716 9.5584 0.14054 0.70982 0.53685 2.4124 0.88069 3.7836 2.0674 8.244 2.8019 12.017 3.518 18.074 0.18676 1.5794 0.39632 3.2769 0.46568 3.7722 0.06936 0.49527 0.25956 2.0384 0.42267 3.4292 0.34501 2.9418 0.62443 4.709 0.97495 6.1661 0.4473 1.8595 1.0096 3.1188 2.6883 6.0214 1.5594 2.6963 2.6897 4.8293 4.7599 8.9832 1.207 2.4218 1.8015 4.3963 2.2017 7.3126 0.77136 5.6212-0.12796 10.659-2.5479 14.273-0.96371 1.4392-2.7127 2.9843-4.1818 3.6943-1.908 0.92209-5.9342 1.606-9.4827 1.6106-0.74507 9.35e-4 -1.488-0.01766-1.651-0.04117z" fill="#eceae8" stroke-width=".17906"/> </g> </g> </svg>