<?xml version='1.0' encoding='utf-8'?>
<svg xmlns="http://www.w3.org/2000/svg" width="1323.4mm" height="1323.4mm" version="1.1" viewBox="0 0 1323.4 1323.4"><g transform="translate(3482.7 3216)"><g transform="matrix(.68659 0 0 .67541 -1241.1 -1776.2)" stroke-width="1.4685"><g transform="matrix(8.607 0 0 8.607 -7653 1310.1)"><path d="m509.84-399.89h223.96v227.66h-223.96z" fill="#fffae8" stop-color="#000000" stroke-linecap="square" stroke-width="1.4844" style="paint-order:markers stroke fill"/><path d="m672.91-309.2c-0.40955-0.12987-1.083-0.41015-1.4965-0.62284-0.80594-0.41453-5.3876-3.9172-7.2924-5.575-1.6064-1.3981-2.8782-3.3584-3.3721-5.1976-0.89428-3.3302-1.232-10.03-1.0654-21.135 0.0696-4.6437 0.12494-11.626 0.12279-15.517l-4e-3 -7.074-0.72878-2.817-0.72878-2.817-1.2444-1.4647c-1.9681-2.3165-3.7798-3.7569-6.3624-5.0583-2.678-1.3495-4.6454-1.7706-10.146-2.1716-2.191-0.15975-5.2403-0.41315-6.7761-0.56311-4.759-0.46469-9.8068-0.31093-15.265 0.46495-1.2792 0.18184-1.3229 0.20659-2.3818 1.3489-2.6881 2.8998-4.6589 5.9311-5.5222 8.494-0.77144 2.29-0.79785 7.3162-0.10918 20.78 0.16235 3.174 0.24255 6.0222 0.17821 6.3294-0.17243 0.82323-0.7799 1.3962-1.4803 1.3962-1.0275 0-1.4498-0.52718-2.039-2.5457-0.29367-1.006-0.98093-3.0019-1.5272-4.4353-0.54632-1.4334-1.2934-3.6534-1.6602-4.9332-1.4508-5.0625-3.3211-8.2976-6.8317-11.817-2.5386-2.5449-2.8572-2.7186-5.6744-3.0935-1.962-0.26109-2.9993-0.14899-4.6358 0.50097-1.7849 0.70892-2.6814 1.3775-3.8505 2.8716-1.6739 2.1393-4.2498 7.5202-5.577 11.65-0.3586 1.1158-0.98709 2.9084-1.3966 3.9835-0.40955 1.0751-0.83113 2.4573-0.93686 3.0716-0.10574 0.61432-0.28702 5.0542-0.40284 9.8664-0.18435 7.6601-0.17386 9.1305 0.0842 11.809 0.80782 8.3841-0.17808 12.029-3.163 11.692-2.382-0.26848-3.3706-2.7683-3.9019-9.8661-0.15518-2.073-0.40858-4.6067-0.56312-5.6306-0.54939-3.64-0.83679-5.9986-1.1134-9.1379-0.31357-3.5584-0.38766-4.0096-1.7548-10.688-1.2965-6.3335-1.8908-8.5829-3.0005-11.356-1.0022-2.5042-2.9434-6.0732-4.6072-8.4702-3.9479-5.688-10.069-8.0967-17.277-6.7987-3.566 0.64211-8.2957 2.19-10.603 3.4698-1.8076 1.0028-2.841 0.77203-3.198-0.71409-0.10532-0.43844-0.21598-2.5982-0.24592-4.7996-0.0686-5.041-0.10449-5.93-0.26451-6.551-0.1009-0.39128-0.0277-0.6022 0.33449-0.96439 0.63145-0.63145 1.317-0.78663 5.9252-1.3411 3.7893-0.45595 4.1671-0.46947 7.7985-0.279 3.5091 0.18407 16.759 0.44731 23.642 0.46971 1.587 5e-3 4.2677-0.10364 5.9571-0.24169 2.4165-0.19754 3.7778-0.20747 6.3822-0.0465 4.4078 0.27236 7.3582 0.25549 12.592-0.072 4.7271-0.29576 6.8157-0.22412 13.417 0.46024 3.6908 0.38262 6.7498 0.51913 7.3533 0.32815 0.20478-0.0648 1.5032-0.20935 2.8855-0.32125 1.3822-0.11188 3.5603-0.32421 4.8401-0.47183 5.6537-0.65211 13.947-0.82733 17.599-0.37182 2.8316 0.35318 6.2183 0.35461 10.543 4e-3 2.7992-0.22666 11.281-0.39145 13.93-0.27061 0.35836 0.0163 1.1542-0.11668 1.7685-0.29561 1.2252-0.35686 0.72963-0.37687 12.193 0.49228 7.5267 0.57064 10.463 0.63072 13.776 0.28191 2.7264-0.28705 8.1178-0.55617 16.103-0.80378 6.5906-0.20438 10.785 0.75674 13.009 2.9811 1.354 1.354 2.0352 3.0338 2.8061 6.9197 0.68304 3.4429 0.82511 5.8003 0.93118 15.451 0.054 4.9146 0.17668 10.067 0.27262 11.449 0.0959 1.3822 0.23364 3.3642 0.30606 4.4043 0.1312 1.885 0.12999 1.8928-0.37308 2.3959-0.44729 0.44727-0.60381 0.49273-1.3751 0.39935-2.7982-0.33879-8.4169-1.3093-11.481-1.9832-7.3071-1.6068-9.2783-1.9437-11.356-1.941-1.7887 2e-3 -2.2244 0.0691-3.444 0.528-2.7727 1.0432-5.169 2.9832-6.2955 5.0968-0.79225 1.4864-1.2218 3.1957-1.9973 7.9472-0.36762 2.2525-1.0352 5.6453-1.4835 7.5394s-0.98986 4.6168-1.2034 6.0502c-0.49977 3.3541-0.84388 4.7469-1.536 6.2174-1.2679 2.6935-3.566 3.8828-6.007 3.1088z" fill="#f1e5ca" stroke-width=".17062"/><path d="m576.45-306.94c-0.91369-1.2939-0.99798-2.113-0.43582-4.2351 1.2197-4.6042 1.5222-9.4352 1.0336-16.506-0.48919-7.0795-0.19398-9.3304 2.0349-15.515 1.6957-4.7054 2.6118-7.9256 3.27-11.494 0.68412-3.7091 1.1142-5.1395 1.897-6.3087 1.2681-1.8942 4.2783-2.7407 7.26-2.0414 3.461 0.81163 5.3391 2.608 7.3774 7.056 0.47887 1.045 1.7606 3.6174 2.8483 5.7163 3.6535 7.0502 5.2139 12.387 6.0419 20.664 0.22197 2.2188-0.25315 2.6525-2.9765 2.717-4.0919 0.0969-8.3893 1.961-11.292 4.8982-2.6972 2.7297-4.0023 5.6591-4.5693 10.256-0.17046 1.3822-0.42873 2.7016-0.57393 2.932-0.32845 0.5211-1.5257 0.57228-2.6062 0.11141-0.95067-0.40546-3.7152-0.40833-5.0993-5e-3 -0.56108 0.16337-1.5601 0.67755-2.22 1.1426-1.2364 0.87128-1.7059 1.0159-1.9905 0.61286z" fill="#eaa688" stroke-width=".17062"/><path d="m698.32-275.08c-4.7209-0.21855-7.0462-0.99376-9.3349-3.112-1.4928-1.3817-2.2429-2.6002-3.972-6.4528-1.8892-4.2092-3.0239-5.9888-5.0293-7.887-1.2002-1.1361-1.9541-1.6675-3.2918-2.3204-3.0018-1.465-3.434-1.5272-10.671-1.5361-7.325-8e-3 -7.4505-0.0282-12.52-1.9135-1.6119-0.59942-3.5171-1.2819-4.2338-1.5166-1.6207-0.5307-3.2679-1.3445-4.4164-2.1819-0.48364-0.35264-1.7402-1.0256-2.7924-1.4954-2.272-1.0145-3.2629-1.6587-4.0117-2.6078-0.64255-0.81447-2.2239-3.9085-3.0136-5.8965-0.81482-2.0512-2.8979-6.4512-3.6846-7.7829-0.83481-1.4132-3.8372-4.5749-5.2738-5.5538-2.0857-1.4211-5.2357-2.3196-8.8804-2.533-1.1249-0.0659-2.2239-0.23262-2.5209-0.38249-1.0446-0.52709-1.0988-0.94113-1.1385-8.7112-0.0345-6.7453-0.0603-7.2254-0.55571-10.332-0.63079-3.9552-0.82722-9.0531-0.48678-12.634 0.91731-9.6484 1.7304-12.552 4.2034-15.011 1.4111-1.403 3.0343-2.3565 5.299-3.1128 1.6371-0.54674 1.9552-0.59065 4.2816-0.59107 2.186-3.9e-4 2.8403 0.0775 5.0263 0.59835 1.3822 0.32934 3.5184 0.72451 4.7471 0.87817 5.0742 0.63457 7.1823 1.1166 10.669 2.4393 4.464 1.6936 7.1408 4.1076 8.0219 7.2345 0.11541 0.40955 0.37592 2.5457 0.57894 4.7471 0.40587 4.4011 0.54607 5.4518 1.2047 9.0287 0.87724 4.7639 1.0724 7.3256 0.85339 11.204-0.26908 4.7662-0.24643 7.5241 0.0853 10.39 0.15408 1.331 0.36332 4.4204 0.46501 6.8652 0.10945 2.6318 0.2995 4.9394 0.46587 5.6568 0.90229 3.8906 3.9704 6.883 11.47 11.188 6.042 3.4678 9.3456 2.6464 11.503-2.8598 1.3508-3.4477 1.8264-5.779 2.4304-11.914 0.34363-3.4903 0.94567-7.8138 1.4912-10.709 1.1061-5.8702 3.2168-8.4117 7.5818-9.1292 2.0014-0.32899 12.234 0.37149 16.559 1.1335 6.2068 1.0936 9.425 3.6818 10.411 8.3732 0.30813 1.4656 0.30943 0.92129-0.0381 15.917-0.0703 3.0329-0.0328 6.429 0.0945 8.5633 0.11599 1.9454 0.34357 5.757 0.50575 8.4702 0.47054 7.8726 0.40077 9.4192-0.77252 17.127-0.55228 3.6279-0.77331 4.394-1.7244 5.9766-0.88116 1.4663-1.8158 2.0272-3.3831 2.0302-0.56704 1e-3 -1.4422 0.12677-1.9448 0.27924-0.7261 0.22027-1.9692 0.2712-6.0502 0.24791-2.825-0.0162-6.5186-0.0933-8.208-0.17151z" fill="#eaa688" stroke-width=".17062"/><path d="m571.34-259.22c-1.8998-0.74329-3.6608-2.3917-5.6606-5.2986-3.9243-5.7043-4.9312-6.7832-11.326-12.136-6.8344-5.7203-7.0486-5.8721-12.841-9.0975-2.0799-1.1581-5.3257-3.0148-7.2128-4.1259-3.3962-1.9998-6.6012-3.5671-8.1322-3.9769-0.95282-0.25507-1.4892-0.93137-1.2328-1.5546 0.31542-0.76697-0.0294-8.331-0.54929-12.046-0.26502-1.8942-0.56839-4.6586-0.67416-6.1432-0.2666-3.7423-0.24429-16.399 0.0367-20.819 0.26794-4.2151 0.28965-9.2446 0.0612-14.179-0.28891-6.2403 0.47783-12.03 2.0412-15.414 0.80176-1.7353 2.4467-3.4098 4.2736-4.3504 1.582-0.8145 6.0847-2.5528 8.3772-3.2342 2.4478-0.72749 5.7595-0.84807 7.8136-0.28452 2.9541 0.81044 5.5167 2.5559 7.0292 4.7877 0.90045 1.3287 2.1275 4.1259 4.6197 10.532 1.5435 3.9672 1.8728 5.2132 2.4981 9.4531 0.26427 1.7918 0.73433 4.7238 1.0446 6.5156 0.94239 5.4422 1.9852 12.027 2.4025 15.172 0.77685 5.8533 1.2306 7.4666 3.7172 13.217 1.9795 4.5779 2.8449 6.2237 3.8751 7.3695 1.0816 1.203 2.0725 1.71 3.3201 1.6988 1.2442-0.0112 1.9029-0.36617 3.6109-1.946 1.967-1.8194 2.8952-2.2728 4.654-2.2732 1.6158-3.8e-4 2.4609 0.35691 3.5738 1.511 1.4486 1.5022 1.9619 3.3018 2.5667 8.998 0.89255 8.4062 0.47743 10.279-3.5064 15.824-3.3111 4.6078-4.6546 7.5652-6.172 13.586-1.1951 4.7419-1.7747 6.1008-3.098 7.2626-1.4741 1.2943-3.3442 1.6429-5.1093 0.95226z" fill="#eaa688" stroke-width=".17062"/><path d="m563.61-246.12c-0.93492-0.13644-3.0292-0.5162-4.654-0.84393-2.4147-0.48706-3.413-0.59809-5.4672-0.60807-2.2538-0.011-2.7821 0.0535-5.1194 0.62496-2.4334 0.59493-2.8098 0.63707-5.6778 0.63578-2.5914-1e-3 -3.319-0.0669-4.654-0.42082-2.4254-0.64291-3.7579-1.0916-6.7948-2.2878-5.2188-2.0557-6.8738-3.1206-6.2937-4.0495 0.1687-0.27011 0.15376-0.52727-0.0674-1.1621-0.15626-0.4484-0.36252-1.7368-0.45838-2.863-0.0958-1.1263-0.37948-3.7651-0.63029-5.864-0.62553-5.235-0.84887-9.1845-0.88424-15.637-0.0317-5.7778 0.31494-10.062 0.90665-11.206 0.34366-0.66455 0.87327-0.78543 2.8434-0.64897 3.6964 0.25603 7.0882 1.8722 16.904 8.0545 4.1466 2.6117 5.591 3.7528 10.171 8.0356 1.0427 0.97504 3.1106 2.7862 4.5952 4.0248 3.3251 2.7741 6.2698 5.6808 8.6055 8.4945 3.4539 4.1607 4.7515 5.1037 7.0318 5.11 0.92398 2e-3 1.4251-0.1058 2.1199-0.4583 2.5213-1.2792 4.7333-5.6945 5.8154-11.608 0.83181-4.5456 1.467-6.0699 3.7585-9.019 2.9439-3.7887 3.9235-5.7951 4.9896-10.219 0.58883-2.4434 0.77254-5.1388 0.55729-8.1766-0.29731-4.1957-0.23409-9.6152 0.13546-11.611 0.76988-4.1578 1.946-8.007 3.0503-9.9828 0.66047-1.1817 2.5092-3.1201 3.8335-4.0194 1.5513-1.0535 5.3682-2.8515 7.0049-3.2998 1.8452-0.50539 5.723-0.80912 8.4801-0.66421 3.5739 0.18785 8.0554 0.63542 9.3358 0.93239 2.5309 0.58696 4.5688 2.0433 6.1017 4.3605 1.1191 1.6916 4.567 8.6439 5.7101 11.514 1.4102 3.5401 2.0904 4.7235 3.4418 5.9877 1.2817 1.199 2.6804 1.9458 5.0098 2.6751 4.491 1.406 7.4383 2.4066 8.889 3.0176 3.3031 1.3914 4.7632 2.7411 4.9385 4.565 0.15613 1.6248-0.61761 3.091-3.3856 6.4158-3.243 3.8953-4.9502 6.9901-6.7262 12.193-2.1272 6.2321-4.0185 8.6702-8.3696 10.789-2.7576 1.343-4.7014 1.9137-6.6086 1.9405-1.4263 0.02-1.6801-0.032-2.5734-0.52677-1.9759-1.0945-2.8308-2.7873-4.2053-8.3272-0.97172-3.9162-1.4468-5.1731-2.591-6.8542-2.0103-2.9538-6.5866-6.3952-9.518-7.1578-2.0898-0.54362-4.8559-0.25172-6.4192 0.67738-1.6328 0.97036-3.369 2.9989-7.2996 8.5281-8.1367 11.446-9.1264 13.165-11.59 20.127-0.57892 1.6362-1.8547 3.9559-2.729 4.9617-1.4839 1.7073-3.3954 2.7507-6.0371 3.2953-3.6301 0.74841-12.075 1.0512-15.476 0.55485z" fill="#ec6858" stroke-width=".17062"/><path d="m525.02-200.55c-0.73354-0.88991-0.83861-1.5092-0.69192-4.0778 0.0661-1.1562 0.0399-4.5139-0.058-7.4616-0.28005-8.4291-0.29157-12.831-0.0462-17.646 0.29529-5.7949 0.0811-11.631-0.52624-14.338-0.36911-1.6447-0.39122-1.9816-0.19239-2.9306 0.38882-1.856 1.5388-2.7154 3.3472-2.5012 0.47663 0.0565 1.9894 0.61606 3.3718 1.2473 1.379 0.62969 3.0099 1.3363 3.6242 1.5702 0.61432 0.23396 1.8071 0.77248 2.6507 1.1967 1.9558 0.9836 5.5678 1.8862 7.5482 1.8862 1.7675 0 3.6652-0.36111 5.8108-1.1057 1.9891-0.69032 4.9137-1.3138 6.1725-1.3158 0.49585-7.5e-4 2.1162 0.16339 3.6009 0.36487 1.4846 0.20149 3.7883 0.45052 5.1194 0.55341 2.2411 0.17324 3.6022 0.44696 6.2363 1.2542 1.4502 0.44439 5.9635 0.44767 7.6086 5e-3 2.0192-0.54269 4.8009-1.8263 6.104-2.8165 0.93645-0.71164 1.4114-1.2476 1.94-2.189 0.38497-0.68568 1.2388-1.9087 1.8974-2.7178 0.65859-0.80913 1.6845-2.3005 2.2798-3.3142 0.59527-1.0137 1.5205-2.4714 2.0561-3.2393 1.3821-1.9816 3.5342-6.7181 4.1868-9.2149 0.35313-1.3509 0.90173-2.7718 1.6121-4.1753 0.98741-1.9509 1.2984-2.3647 3.745-4.9832 2.5407-2.7193 4.1211-4.0435 5.5267-4.6308 0.84457-0.35289 3.7961-0.3465 5.1694 0.0112 2.4821 0.64651 5.2455 2.5775 7.1406 4.9896 0.49691 0.63248 1.3769 1.6833 1.9555 2.3351 1.8177 2.0477 2.2992 3.3564 2.957 8.0358 0.67132 4.7757 0.67096 4.7752 4.1113 5.3129 1.0628 0.16609 2.5554 0.46276 3.317 0.65926 1.9937 0.51438 2.7343 0.46741 4.1311-0.26207 5.1722-2.7011 5.9679-3.1833 6.8252-4.1357 0.84859-0.94275 2.2169-3.4798 4.7648-8.8346 0.56026-1.1775 1.5232-2.9367 2.1398-3.9094 1.1797-1.8608 3.2535-5.2209 4.7681-7.7256 1.8258-3.0193 2.5112-3.9813 3.2946-4.6244 0.44094-0.36197 1.5138-1.2527 2.3841-1.9794 2.688-2.2445 5.9425-3.5744 8.7495-3.5753 1.5743-5.6e-4 5.0088 0.84206 6.369 1.5624 1.2061 0.63876 3.4829 2.768 4.4186 4.1322 0.34487 0.50278 0.89321 1.5918 1.2186 2.4201 0.32532 0.82827 1.2335 2.7607 2.0182 4.2943s1.4267 2.8897 1.4267 3.0136c0 0.37072 2.1705 3.1352 3.1601 4.025 1.2252 1.1015 1.9133 1.402 4.1618 1.817 1.0411 0.19215 2.982 0.55948 4.313 0.81629 2.9507 0.56931 3.2238 0.57407 4.7471 0.0829 1.6335-0.5268 4.5589-0.62737 10.053-0.34557 7.4194 0.38058 6.8088 0.28918 7.6672 1.1476 1.1266 1.1266 1.5214 2.1718 1.5339 4.0608 0.019 2.8841-0.45496 14.78-0.63416 15.917-0.0969 0.61432-0.13228 1.5358-0.0786 2.0477 0.12779 1.2197-0.25459 2.4647-0.90646 2.9514-0.63226 0.47206-1.6679 0.49347-2.1637 0.0447-0.59597-0.53935-2.9212-1.8793-5.2319-3.0149-1.1774-0.57868-2.6853-1.4484-3.3509-1.9326-1.6898-1.2296-3.3562-2.1088-5.2562-2.7731-0.89437-0.3127-1.8822-0.70096-2.1951-0.86278-0.65985-0.34122-3.5696-1.0729-5.556-1.3971-0.75478-0.12318-2.568-0.23562-4.0294-0.24987l-2.657-0.0259-2.1713 1.117c-3.002 1.5443-6.4141 4.1355-7.7144 5.8584-0.55216 0.73166-1.6245 1.8879-2.383 2.5694-0.75848 0.68153-1.7658 1.8285-2.2384 2.5489-0.47264 0.72037-1.8088 2.496-2.9691 3.9459-2.6765 3.3442-3.1011 3.6002-5.9729 3.6002-1.7619 0-2.0243-0.0475-3.0369-0.54992-0.60961-0.30245-1.7149-0.96263-2.4562-1.467-3.559-2.4218-6.8576-4.0385-9.5306-4.6711-4.1196-0.97499-6.1686-0.95665-10.115 0.0906-4.0803 1.0826-5.2768 1.8173-9.3415 5.7358-1.4818 1.4286-3.0735 2.8725-3.537 3.2088-0.46352 0.33627-1.3873 1.258-2.0528 2.0484-1.9345 2.2973-5.5432 6.1579-6.3894 6.8354-1.7448 1.397-3.557 2.422-6.8279 3.8621-1.8942 0.83398-3.9811 1.6731-4.6377 1.8647-0.65656 0.19159-2.0388 0.63767-3.0716 0.99131-4.3947 1.5047-6.0077 1.5779-12.407 0.56295-4.548-0.72129-7.1508-1.3198-10.879-2.5015-4.4872-1.4224-6.6093-1.8268-10.794-2.0571-1.8448-0.10153-3.7731-0.26174-4.2851-0.35611-2.3924-0.44094-4.9989 0.0425-8.3558 1.55-0.60255 0.27058-2.278 0.87184-3.7232 1.3362-2.8645 0.9203-6.0834 2.5934-9.3965 4.884-0.9584 0.66263-2.6917 1.7359-3.8518 2.3851-3.383 1.8931-5.0126 3.1549-6.9619 5.3906-0.96011 1.1012-2.3152 2.8664-3.0113 3.9226-0.69611 1.0562-1.8443 2.5094-2.5516 3.2294-1.5728 1.6011-2.0951 1.7085-2.9957 0.61587z" fill="#9d4855" stroke-width=".17062"/><path d="m527.55-186.44c-1.2906-0.41448-1.8034-1.4607-1.8024-3.6771 1e-3 -3.308 0.7465-6.2617 2.0614-8.1727 1.1135-1.6184 8.3304-9.3283 10.177-10.872 4.3493-3.6362 8.1866-6.3518 10.499-7.43 2.6852-1.252 12.655-4.3911 15.867-4.9958 2.4302-0.45751 9.4502-0.44308 12.309 0.0253 2.8538 0.46751 6.4545 1.4165 9.308 2.4532 1.331 0.48356 3.551 1.1752 4.9332 1.537 2.3578 0.61716 2.6972 0.65843 5.4917 0.66768 2.6751 8e-3 3.3764-0.0628 6.8844-0.70373 5.9646-1.0897 10.948-2.5559 13.208-3.886 1.5537-0.91445 3.0332-2.146 5.8604-4.8782 1.4937-1.4435 3.7627-3.5015 5.0424-4.5734 1.2796-1.0719 3.3516-2.9285 4.6045-4.1257 5.3092-5.0735 9.4074-7.3392 13.663-7.5538 2.1708-0.10945 3.555 0.16677 7.4119 1.4791 3.1384 1.0678 5.1465 1.9905 8.3705 3.8458 3.0455 1.7526 4.0405 2.1211 5.7884 2.1436 2.4078 0.0311 3.6687-0.85364 6.9523-4.8783 2.1493-2.6344 9.1984-9.558 11.445-11.241 1.7933-1.3436 3.0972-2.037 4.8728-2.5911 1.1741-0.36646 1.7959-0.43577 3.9093-0.43577 3.5142 0 5.0112 0.45683 11.449 3.4938 3.3586 1.5844 8.4541 3.8436 11.076 4.9109 2.827 1.1506 2.4824 0.51605 2.7178 5.0052 0.13277 2.5319 0.14625 4.8838 0.0383 6.6953-0.10822 1.817-0.093 4.3856 0.0436 7.3533 0.15697 3.4103 0.15595 5.6176-4e-3 8.7495-0.44634 8.7382-0.44952 11.693-0.0191 17.803 0.2291 3.2521 0.5231 6.1504 0.67736 6.6772 0.21046 0.71875 0.23366 1.2388 0.10184 2.2829-0.11329 0.89747-0.10543 1.5251 0.0234 1.8664 0.25818 0.68399-0.39106 2.0151-1.1202 2.2968-0.76655 0.29606-4.053 0.38482-5.6237 0.15187-2.8617-0.42443-4.2127-1.1838-4.9279-2.77-0.21876-0.48513-0.54974-0.81136-1.0905-1.0748-0.42702-0.20806-1.466-0.89023-2.3088-1.5159-0.84286-0.6257-2.2251-1.585-3.0716-2.1318-1.6382-1.058-2.5315-1.9435-3.094-3.0665-0.46791-0.93424-0.47682-0.97918-1.2264-6.1846-0.63654-4.4202-1.4194-8.3134-2.0588-10.238-0.17096-0.51472-0.77078-1.5769-1.3329-2.3604-0.56216-0.78354-1.3175-1.8924-1.6786-2.4642-0.86825-1.3751-2.0458-2.5739-2.7494-2.7992-2.2077-0.7069-8.6544-0.76488-12.483-0.11227-2.4468 0.41709-2.7429 0.51515-4.8402 1.6028-2.873 1.4899-3.8002 2.0981-5.4127 3.5505-2.3452 2.1122-4.3514 3.758-5.1563 4.23-0.43269 0.2537-1.2893 0.85012-1.9037 1.3254-0.61432 0.47525-1.741 1.2292-2.5037 1.6753-1.9434 1.1369-2.8661 2.0433-3.3759 3.3163-0.48292 1.2059-2.0383 3.8034-2.7061 4.5192-0.76715 0.82232-4.878 2.5442-7.2857 3.0518-2.7782 0.58563-5.8321 1.9532-8.023 3.5927-0.3435 0.25705-1.0097 1.0638-1.4806 1.7927-0.47081 0.72892-1.1975 1.7023-1.6148 2.163-0.96692 1.0675-2.3539 2.7492-2.7634 3.3509-0.30377 0.44619-0.43781 0.47394-3.2462 0.67175-1.6111 0.1135-4.4087 0.31401-6.2169 0.44559-3.3554 0.24416-3.5423 0.23912-13.902-0.37469-3.2602-0.19316-9.7689-0.23039-41.264-0.23603-13.335-2e-3 -20.983 0.0673-22.711 0.20707-1.4334 0.11588-4.8681 0.2545-7.6325 0.30807-2.7645 0.0536-5.6127 0.13654-6.3294 0.18436-0.71672 0.0478-1.5388 0.0114-1.827-0.0813z" fill="#6f375a" stroke-width=".17062"/><path d="m637.86-186.36c-0.57031-0.40687-0.52793-0.89834 0.21035-2.4389 0.68805-1.4357 3.0101-4.1608 4.5359-5.3233 1.9012-1.4484 5.0303-3.167 6.1906-3.4001 1.4224-0.28572 5.5674-1.6569 6.8418-2.2632 0.81263-0.38666 1.4764-0.8433 1.6675-1.1471 0.17455-0.27761 0.51004-0.74223 0.74553-1.0325 0.23547-0.29027 0.85441-1.4028 1.3754-2.4722 1.1589-2.3788 2.4025-3.7189 5.1003-5.4959 1.0239-0.67443 2.448-1.7656 3.1647-2.4248 0.71671-0.65919 2.1289-1.7807 3.1383-2.4922 1.0094-0.71155 2.224-1.5722 2.6993-1.9126 0.86063-0.61634 3.7701-2.0804 4.1343-2.0804 0.10523 0 0.79475-0.32589 1.5322-0.72421 2.0886-1.128 3.1222-1.406 5.2502-1.4116 3.1003-8e-3 3.9978 0.59256 6.5482 4.3839 2.2879 3.401 2.9609 5.0583 3.6059 8.8794 0.21995 1.303 0.44553 2.4431 0.50129 2.5335 0.0557 0.0904 0.17197 1.634 0.25821 3.4302 0.14545 3.0289 0.1904 3.3165 0.61971 3.9653 0.25458 0.3847 0.766 0.93539 1.1365 1.2238 0.37049 0.28834 1.818 1.4671 3.2168 2.6195 1.5838 1.3048 3.1428 2.4066 4.1328 2.9204 1.6681 0.86596 3.3436 2.1852 3.3436 2.6326 0 0.19891-0.28494 0.26367-1.1635 0.26447-1.6912 2e-3 -7.1041 0.49025-11.474 1.036-3.3606 0.41966-4.0214 0.45158-5.7709 0.27889-1.8404-0.18168-15.621-0.3325-20.871-0.22844-1.2798 0.0253-3.9605 0.17827-5.9571 0.33979-4.9734 0.40235-13.648 0.52844-17.778 0.25842-3.1729-0.20748-4.2882-0.15813-6.0502 0.26765-0.2884 0.0697-0.62471-2e-3 -0.88426-0.18634z" fill="#513452" stroke-width=".17062"/></g></g></g></svg>