<?xml version='1.0' encoding='utf-8'?>
<svg xmlns="http://www.w3.org/2000/svg" version="1.1" id="Layer_1" x="0px" y="0px" viewBox="0 0 500 500" enable-background="new 0 0 500 500"> <g> <g> <path fill="#DEBE7A" d="M100.5,336.8c7.4-16,19.8-29.6,25.5-46.4c7.9-23.4,2-50.9,14.6-72.2c12.5-21.1,38.6-28.7,59.7-41.1 c23.4-13.7,42.2-35.1,52.8-60.1c8.3-19.4,12.9-42.4,30.3-54.4c16.9-11.6,40.2-8.1,58.3,1.5c34,17.8,55.9,54.4,61.4,92.3 c5.5,38-4,77-21,111.4c-17,34.4-41.3,64.6-66.7,93.4c-17.9,20.2-36.5,39.9-58.5,55.4s-47.6,26.8-74.5,28.3 c-21.1,1.2-42.4-3.7-60.9-14c-17.6-9.8-27.3-23.6-26-44.1C96.6,370,93.1,352.8,100.5,336.8z"/> </g> <g> <g> <g> <path fill="#FFFEE6" d="M239.2,418.4c10.6,22.8,39.5,31.9,39.5,31.9s11.6-28,1-50.8c-10.6-22.8-39.5-31.9-39.5-31.9 S228.6,395.5,239.2,418.4z"/> </g> <g> <path fill="#FFFEE6" d="M269,340.8c11.6,22.4,40.8,30.2,40.8,30.2s10.5-28.4-1.1-50.8c-11.6-22.4-40.8-30.2-40.8-30.2 S257.4,318.4,269,340.8z"/> </g> <g> <path fill="#FFFEE6" d="M266.6,239c20.1,15.2,49.9,9.7,49.9,9.7s-2.8-30.2-22.8-45.4c-20.1-15.2-49.9-9.7-49.9-9.7 S246.5,223.8,266.6,239z"/> </g> <g> <path fill="#FFFEE6" d="M235.2,150.8c23.3,9.7,50.7-3.1,50.7-3.1s-10.3-28.5-33.5-38.2s-50.7,3.1-50.7,3.1 S211.9,141.1,235.2,150.8z"/> </g> <g> <path fill="#FFFEE6" d="M157,60c24.7,4.9,49.1-13.1,49.1-13.1s-15.7-25.9-40.4-30.8s-49.1,13.1-49.1,13.1S132.3,55.1,157,60z"/> </g> <g> <path fill="#FFFEE6" d="M348.9,407.6c-21.9,12.4-50.7,2.9-50.7,2.9S305,381,327,368.6c21.9-12.4,50.7-2.9,50.7-2.9 S370.9,395.2,348.9,407.6z"/> </g> <g> <path fill="#FFFEE6" d="M367.6,294.4c-17.6,18.1-47.8,17.1-47.8,17.1s-1.8-30.2,15.8-48.3s47.8-17.1,47.8-17.1 S385.2,276.3,367.6,294.4z"/> </g> <g> <path fill="#FFFEE6" d="M348.6,173.6c-11.3,22.5-40.5,30.7-40.5,30.7s-10.8-28.3,0.5-50.8c11.3-22.5,40.5-30.7,40.5-30.7 S359.9,151,348.6,173.6z"/> </g> <g> <path fill="#FFFEE6" d="M277,51.6c1,25.2-20.6,46.5-20.6,46.5s-23.1-19.5-24.1-44.7s20.6-46.5,20.6-46.5S276,26.4,277,51.6z"/> </g> </g> <g> <g> <path d="M245,500l-2.5-2.1c113.8-134.4,97.1-336.4-37.4-450.2l2.1-2.5c16.7,14.2,32,30,45.4,47.1c13.1,16.6,24.6,34.6,34.1,53.5 c9.4,18.5,17,38.1,22.6,58.1c5.6,19.8,9.3,40.3,11,60.9c1.7,20.6,1.4,41.4-0.8,61.9c-2.3,20.7-6.5,41.2-12.7,61.1 c-6.3,20.2-14.7,39.8-24.8,58.4C271.6,465.1,259.1,483.3,245,500z"/> </g> <g> <path d="M283.4,438.6c-0.2,0-0.3,0-0.5-0.1c-0.3-0.1-7.5-2.4-16.1-7.5c-8-4.8-18.7-13.1-24.4-25.2c-5.7-12.2-5.1-25.7-3.6-34.9 c1.6-9.9,4.5-16.9,4.6-17.2c0.3-0.8,1.2-1.2,2-0.9c0.3,0.1,7.5,2.4,16.1,7.5c8,4.8,18.7,13.1,24.4,25.2 c5.7,12.2,5.1,25.7,3.6,34.9c-1.6,9.9-4.5,16.9-4.6,17.2C284.7,438.3,284.1,438.6,283.4,438.6z M245.4,404.4 c5.3,11.4,15.5,19.2,23.1,23.8c6.1,3.6,11.5,5.8,14,6.7c0.9-2.5,2.7-8.1,3.9-15.1c1.4-8.7,1.9-21.5-3.4-32.9 c-5.3-11.4-15.5-19.2-23.1-23.8c-6.1-3.6-11.5-5.8-14-6.7c-0.9,2.5-2.7,8.1-3.9,15.1C240.6,380.2,240,393,245.4,404.4z"/> </g> <g> <path d="M312.2,359.4c-0.1,0-0.3,0-0.4-0.1c-0.3-0.1-7.6-2.1-16.4-6.9c-8.2-4.5-19.3-12.3-25.4-24.2 c-6.2-11.9-6.2-25.5-5.1-34.7c1.2-10,3.8-17.1,3.9-17.4c0.3-0.8,1.1-1.2,2-1c0.3,0.1,7.6,2.1,16.4,6.9 c8.2,4.5,19.3,12.3,25.4,24.2s6.2,25.5,5.1,34.7c-1.2,10-3.8,17.1-3.9,17.4C313.5,359,312.9,359.4,312.2,359.4z M271.3,278.7 c-0.8,2.5-2.4,8.2-3.2,15.3c-1,8.8-1,21.6,4.7,32.8c5.8,11.2,16.3,18.6,24,22.8c6.2,3.4,11.8,5.4,14.3,6.2 c0.8-2.5,2.4-8.2,3.2-15.3c1-8.8,1-21.6-4.7-32.8c-5.8-11.2-16.3-18.6-24-22.8C279.4,281.5,273.9,279.6,271.3,278.7z"/> </g> <g> <path d="M302.7,238.1c-1.5,0-3.1,0-4.8-0.1c-9.3-0.5-22.7-2.8-33.4-10.9c-10.7-8.1-16.5-20.4-19.5-29.2c-3.2-9.5-3.9-17-4-17.4 c-0.1-0.8,0.5-1.6,1.3-1.8c0.3-0.1,7.8-1.4,17.8-0.9c9.3,0.5,22.7,2.8,33.4,10.9c10.7,8.1,16.5,20.4,19.5,29.2 c3.2,9.5,3.9,17,4,17.4c0.1,0.8-0.5,1.6-1.3,1.8C315.4,237.2,310.2,238.1,302.7,238.1z M244.5,181.7c0.4,2.6,1.4,8.4,3.6,15.2 c2.8,8.4,8.3,20,18.4,27.5c10,7.6,22.7,9.8,31.6,10.3c7.1,0.4,12.9-0.2,15.5-0.6c-0.4-2.6-1.4-8.4-3.6-15.2 c-2.8-8.4-8.3-20-18.4-27.5c-10-7.6-22.7-9.8-31.6-10.3C252.9,180.8,247.1,181.4,244.5,181.7z"/> </g> <g> <path d="M246.7,142.8c-6.5,0-13.4-1-20.1-3.7c-12.4-5.2-21.1-15.5-26.2-23.3c-5.5-8.4-8.1-15.5-8.2-15.8c-0.3-0.8,0.1-1.7,0.8-2 c0.3-0.1,7.2-3.3,17-5.3c9.1-1.9,22.6-3,35,2.2c12.4,5.2,21.1,15.5,26.2,23.3c5.5,8.4,8.1,15.5,8.2,15.8c0.3,0.8-0.1,1.7-0.9,2 c-0.3,0.1-7.2,3.3-17,5.3C257.4,142,252.2,142.8,246.7,142.8z M195.8,100.2c1,2.5,3.4,7.8,7.3,13.8c4.9,7.4,13.1,17.2,24.7,22 c11.6,4.8,24.4,3.8,33,2c7-1.4,12.5-3.5,14.9-4.5c-1-2.5-3.4-7.8-7.3-13.8c-4.9-7.4-13.1-17.2-24.7-22c-11.6-4.8-24.4-3.8-33-2 C203.7,97.1,198.2,99.2,195.8,100.2z"/> </g> <g> <path d="M167.8,63.1c-3,0-6-0.3-9-0.9c-13.2-2.6-23.8-11-30.3-17.7c-7.1-7.1-11-13.6-11.2-13.9c-0.4-0.7-0.3-1.7,0.4-2.2 c0.3-0.2,6.4-4.7,15.6-8.6c8.6-3.6,21.6-7.4,34.8-4.8c13.2,2.6,23.8,11,30.3,17.7c7.1,7.1,11,13.6,11.2,13.9 c0.4,0.7,0.3,1.7-0.4,2.2c-0.3,0.2-6.4,4.7-15.6,8.6C186.9,60.2,177.7,63.1,167.8,63.1z M120.8,30.3c1.5,2.2,4.9,7,9.9,12 C137,48.6,147,56.6,159.4,59c2.8,0.6,5.6,0.8,8.4,0.8c9.4,0,18.2-2.8,24.5-5.4c6.5-2.8,11.5-5.8,13.7-7.3c-1.5-2.2-4.9-7-9.9-12 c-6.2-6.3-16.3-14.3-28.6-16.7c-12.3-2.4-24.6,1.2-32.8,4.6C128.1,25.7,123.1,28.8,120.8,30.3z"/> </g> <g> <path d="M323.3,405.2c-2.3,0-4.5-0.1-6.5-0.3c-10-0.8-17.2-3.1-17.5-3.2c-0.8-0.3-1.3-1.1-1.1-1.9c0.1-0.3,1.8-7.7,6.3-16.7 c4.2-8.4,11.6-19.7,23.3-26.3c11.7-6.6,25.2-7.1,34.5-6.3c10,0.8,17.2,3.1,17.5,3.2c0.8,0.3,1.3,1.1,1.1,1.9 c-0.1,0.3-1.8,7.7-6.3,16.7c-4.2,8.4-11.6,19.7-23.3,26.3C342.2,403.8,331.9,405.2,323.3,405.2z M301.8,399 c2.6,0.7,8.3,2.1,15.4,2.7c8.8,0.7,21.6,0.3,32.6-5.9l0.8,1.4l-0.8-1.4c10.9-6.2,18-16.9,21.9-24.8c3.2-6.3,4.9-12,5.7-14.5 c-2.6-0.7-8.3-2.1-15.4-2.7c-8.8-0.7-21.6-0.3-32.6,5.9c-10.9,6.2-18,16.9-21.9,24.8C304.3,390.8,302.5,396.4,301.8,399z"/> </g> <g> <path d="M319.5,299.9c-0.5,0-0.8,0-0.9,0c-0.8,0-1.5-0.7-1.6-1.5c0-0.3-0.4-7.9,1.3-17.8c1.6-9.2,5.5-22.2,14.9-31.8 c9.4-9.6,22.2-13.9,31.3-15.8c9.8-2,17.4-1.8,17.7-1.8c0.8,0,1.5,0.7,1.6,1.5c0,0.3,0.4,7.9-1.3,17.8 c-1.6,9.2-5.5,22.2-14.9,31.8l-1.2-1.1l1.2,1.1c-9.4,9.6-22.2,13.9-31.3,15.8C328.3,299.7,321.8,299.9,319.5,299.9z M380.7,234.4c-2.7,0-8.5,0.3-15.5,1.8c-8.7,1.8-20.8,5.8-29.6,14.9c-8.8,9-12.5,21.3-14,30.1c-1.2,7-1.3,12.8-1.3,15.5 c2.7,0,8.5-0.3,15.5-1.8c8.7-1.8,20.8-5.8,29.6-14.9c8.8-9,12.5-21.3,14-30.1C380.6,242.9,380.7,237.1,380.7,234.4z"/> </g> <g> <path d="M304,196.8c-0.7,0-1.3-0.4-1.5-1.1c-0.1-0.3-2.8-7.4-4.1-17.3c-1.2-9.2-1.4-22.8,4.6-34.8c6-12,17-20,25.1-24.5 c8.8-4.9,16-7,16.3-7.1c0.8-0.2,1.7,0.2,2,1c0.1,0.3,2.8,7.4,4.1,17.3c1.2,9.2,1.4,22.8-4.6,34.8c-6,12-17,20-25.1,24.5 c-8.8,4.9-16,7-16.3,7.1C304.3,196.7,304.2,196.8,304,196.8z M343.9,115.6c-2.5,0.8-8,2.9-14.2,6.4 c-7.7,4.3-18.1,11.8-23.7,23.1c-5.7,11.3-5.5,24.1-4.3,32.9c0.9,7,2.6,12.6,3.4,15.1c2.5-0.8,8-2.9,14.2-6.4 c7.7-4.3,18.1-11.8,23.7-23.1l1.5,0.7l-1.5-0.7c5.6-11.2,5.5-24,4.3-32.8C346.4,123.8,344.8,118.1,343.9,115.6z"/> </g> <g> <path d="M250.9,94.4c-0.4,0-0.9-0.2-1.2-0.5c-0.2-0.2-5.5-5.7-10.6-14.3c-4.8-8-10.3-20.4-9.5-33.8c0.8-13.4,7.7-25.1,13.4-32.5 c6.1-8,12-12.8,12.2-13c0.7-0.5,1.6-0.5,2.2,0.1c0.2,0.2,5.5,5.7,10.6,14.3c4.8,8,10.3,20.4,9.5,33.8l0,0 c-0.8,13.4-7.7,25.1-13.4,32.5c-6.1,8-12,12.8-12.2,13C251.7,94.3,251.3,94.4,250.9,94.4z M256.1,3.9c-2,1.8-6.3,5.8-10.6,11.5 c-5.4,7-11.9,18-12.7,30.6c-0.7,12.6,4.5,24.3,9.1,31.9c3.6,6.1,7.3,10.6,9.1,12.5c2-1.8,6.3-5.8,10.6-11.5 c5.4-7,11.9-18,12.7-30.6c0.7-12.6-4.5-24.3-9-31.9C261.6,10.4,257.9,5.9,256.1,3.9z M275.9,48.5L275.9,48.5L275.9,48.5z"/> </g> </g> </g> </g> </svg>