<?xml version='1.0' encoding='utf-8'?>
<svg xmlns="http://www.w3.org/2000/svg" version="1.1" id="Layer_1" x="0px" y="0px" viewBox="0 0 5000 4999.999" enable-background="new 0 0 5000 4999.999"> <g> <path d="M2500,2928.749c0,396.673-224.084,745.88-558.547,919.221c48.466,153.549,133.526,298.122,255.316,419.773h-0.138 C2384.148,4455.122,2500,4714.028,2500,4999.999c0-285.833,115.85-544.739,303.092-732.118 c114.762-114.762,203.862-256.874,255.178-419.911C2726.455,3675.503,2500,3328.499,2500,2928.749z"/> <path d="M2196.77,2803.23c-279.555,279.552-683.941,369.244-1044.879,255.316c-74.287,142.779-116.265,305.026-116.265,477.078 l-0.138-0.137c0,265.119-101.215,530.101-303.369,732.256c346.885-346.886,801.042-305.42,737.215-303.445 c170.204-0.801,330.716-42.619,472.12-116.328C1828.913,3491.438,1914.112,3085.888,2196.77,2803.23z"/> <path d="M2071.25,2499.999c-401.703,0-748.034-228.436-919.222-558.271c-153.685,48.329-298.258,133.527-419.91,255.178 c0.138-0.138,0.138-0.138,0.138-0.276C544.876,2384.148,285.97,2499.999,0,2499.999c285.97,0,544.876,115.852,732.256,303.369 c115.758,115.757,257.897,204.125,419.634,255.178C1324.358,2726.594,1671.223,2499.999,2071.25,2499.999z"/> <path d="M2196.77,2196.907c-279.423-279.23-369.279-683.843-255.316-1044.877c-142.22-74.153-304.274-116.404-476.941-116.404 c-265.121,0-530.24-101.077-732.395-303.369c204.26,204.399,307.517,475.563,303.222,748.437 c0.081-5.443,0.285-10.852,0.285-16.319c0,172.19,41.978,334.577,116.403,477.354 C1508.561,1829.053,1914.112,1914.25,2196.77,2196.907z"/> <path d="M1035.224,1487.391c-0.384,17.229-1.116,34.464-2.36,51.686C1034.203,1521.945,1034.853,1504.703,1035.224,1487.391z"/> <path d="M2500,2071.25c0-394.82,222.258-744.825,558.27-919.221c-48.467-153.549-133.525-297.983-255.178-419.773h0.138 C2615.85,544.877,2500,285.971,2500,0c0,285.971-115.852,544.877-303.369,732.256h0.138 c-121.791,121.79-206.85,266.224-255.316,419.773C2273.405,1324.358,2500,1671.362,2500,2071.25z"/> <path d="M2803.092,2196.907c279.112-279.111,683.969-369.543,1044.739-255.178c76.136-146.024,116.543-308.589,116.543-477.354 c0-264.981,101.075-529.826,303.369-732.117c-202.294,202.292-467.275,303.369-732.257,303.369 c-167.45,0-330.2,39.83-477.217,116.404C3170.947,1508.561,3085.887,1914.112,2803.092,2196.907z"/> <path d="M2928.75,2499.999c396.673,0,745.886,224.081,919.219,558.547c153.55-48.468,297.847-133.526,419.637-255.178 c187.517-187.517,446.285-303.369,732.395-303.369c-286.11,0-544.878-115.851-732.395-303.369c0,0.138,0,0.138,0.138,0.276 c-121.791-121.651-266.364-206.849-419.912-255.178C3675.364,2273.543,3328.5,2499.999,2928.75,2499.999z"/> <path d="M3847.968,3058.547c-356.529,112.538-762.081,27.478-1044.876-255.316c278.547,278.737,369.815,683.126,255.178,1044.739 c141.637,73.76,302.273,115.59,472.743,116.334c-61.19-1.88,390.33-42.583,736.73,303.577 c-193.057-192.924-303.369-453.048-303.369-735.018C3963.96,3361.778,3921.982,3200.497,3847.968,3058.547z"/> </g> </svg>