<?xml version='1.0' encoding='utf-8'?>
<svg xmlns="http://www.w3.org/2000/svg" width="1323.2mm" height="1323.2mm" version="1.1" viewBox="0 0 1323.2 1323.2"> <g transform="translate(1321.5 229.63)"> <g transform="translate(3528.9 -1970.6)"> <path d="m-4850.4 1741h1323.2v1323.2h-1323.2z" fill="#fff" stroke-width="1.2252"/> <g transform="matrix(1.1297 0 0 1.1297 691.75 -135.08)" stroke-width="1.051"> <path d="m-4887.8 1678.8v124.17c0 118.16 0.089 124.1 1.8392 122.61 1.0116-0.8596 18.864-16.421 39.673-34.581 33.985-29.658 43.154-38.004 69.406-63.184 19.305-18.517 39.227-31.963 55.852-37.692 13.224-4.5568 21.938-5.3206 71.27-6.2524 49.529-0.9359 50.672-1.0328 87.036-7.2765 22.191-3.8104 32.938-4.1058 40.899-1.1271 3.0682 1.1479 11.244 5.9197 18.168 10.604 32.979 22.31 43.168 28.392 88.784 53.003 59.798 32.262 79.363 41.598 131.34 62.669 66.019 26.764 80.408 36.913 152.42 107.51 41.947 41.128 51.734 49.461 70.937 60.403 13.464 7.6721 21.425 10.475 58.518 20.602 33.54 9.1568 42.735 10.988 55.271 10.949 3.8892-0.01 8.7267 0.4262 10.75 0.9668 5.1835 1.3854 4.8483 1.4075 14.713-0.9606 40.524-9.7281 69.712-13.249 101.42-12.232 19.474 0.6248 35.037 2.3471 54.176 5.9939 6.038 1.1507 11.335 2.0914 11.77 2.0914 0.4349 0 0.7901-94.113 0.7901-209.14v-209.14h-567.51zm942.78 55.005c66.887 0 121.2 54.32 121.2 121.21 0 66.887-54.312 121.21-121.2 121.21-66.887 0-121.21-54.32-121.21-121.21 0-66.887 54.32-121.21 121.21-121.21z" fill="#f0e9e1"/> <path d="m-4021.8 2129.8c-2.0231-1.0133-8.2899-4.5572-13.926-7.8755s-20.297-10.963-32.579-16.989c-12.282-6.0256-29.425-15.046-38.095-20.046-64.474-37.178-94.566-50.718-130.32-58.635-12.057-2.6701-30.401-4.6704-49.395-5.3866-27.181-1.0248-34.952-2.6025-80.398-16.322-25.191-7.6049-56.952-18.03-75.143-24.666-30.088-10.974-40.122-14.202-44.14-14.195-10.173 0-37.039 8.4684-63.582 20.005-68.129 29.612-82.007 34.308-156.59 52.988-49.037 12.281-62.505 16.082-95.111 26.844-13.872 4.579-31.371 10.045-38.885 12.147-15.642 4.3753-43.249 10.959-45.979 10.965-1.7346 0-1.8392-4.297-1.8392-75.635v-75.639l14.976-13.33c27.004-24.036 51.643-44.85 67.599-57.105 8.6286-6.627 24.962-19.445 36.297-28.485 24.912-19.868 38.791-29.867 49.28-35.504 16.766-9.0094 37.883-12.656 77.245-13.34 44.295-0.7686 61.971-1.8164 80.355-4.7625 3.7806-0.6058 11.84-1.1897 17.909-1.2969 10.22-0.1827 11.466 0.04 16.877 2.763 3.2133 1.6273 12.199 7.7018 19.968 13.499 24.957 18.622 38.828 27.055 81.647 49.642 46.349 24.449 78.304 38.94 111.67 50.64 8.9593 3.1423 23.147 8.1237 31.528 11.071 53.032 18.645 74.764 33.802 118.12 82.376 20.546 23.021 57.325 60.142 67.392 68.019 16.256 12.719 30.716 21.162 47.945 27.996 10.53 4.1763 70.276 18.928 84.075 20.758 2.8504 0.3774 4.9688 0.9013 4.7074 1.1627-0.2614 0.2621-9.854 3.6837-21.317 7.6053-11.463 3.9216-24.09 8.374-28.061 9.8941-8.4419 3.2325-7.5634 3.1721-12.224 0.8381z" fill="#e4c3ad"/> <path d="m-4482.6 2198.4c-54.329-2.7614-87.5-5.7229-173.93-15.528-67.198-7.6237-96.237-9.1652-171.04-9.0814l-60.167 0.067v-73.053l10.245-1.9729c18.076-3.4807 52.504-13.095 83.286-23.258 32.902-10.862 49.154-15.57 92.483-26.792 75.932-19.665 88.499-23.898 148.15-49.906 32.877-14.334 54.534-21.557 64.634-21.557 4.7881 0 72.346 19.029 117.74 33.164 56.444 17.576 57.54 17.834 82.499 19.348 22.984 1.3942 28.633 1.932 40.462 3.8533 35.915 5.8334 68.196 19.498 130.84 55.388 10.115 5.7949 29.032 15.712 42.038 22.037 20.625 10.032 40.613 20.781 45.007 24.206 2.9166 2.2728-62.628 25.705-91.248 32.621-25.859 6.2489-88.051 17.561-110.87 20.167-3.4682 0.3972-7.488 0.8814-8.9331 1.0788-13.828 1.8895-45.632 4.5457-81.974 6.8455-27.344 1.7307-48.233 2.2863-93.534 2.4873-32.08 0.143-61.638 0.091-65.684-0.1152z" fill="#d5c8bb"/> <path d="m-4186.8 2326.5c-11.782-0.6879-32.952-3.5685-52.189-7.1009-50.254-9.2279-62.695-10.83-143.29-18.448-122.01-11.533-144.48-14.968-224.38-34.304-89.216-21.592-107.78-25.191-167.1-32.398-11.56-1.4041-36.626-4.919-55.7-7.8107-19.075-2.8913-38.938-5.773-44.14-6.4038-16.014-1.9412-14.188 0.7547-14.188-20.937v-18.789l14.451-0.8155c27.916-1.5745 83.342-1.0494 102.73 0.9736 30.524 3.1852 66.329 7.8047 119.28 15.391 76.319 10.933 105.89 13.868 159.74 15.853 26.947 0.9934 68.334 0.2661 96.687-1.7021 11.988-0.8313 20.727-1.4843 27.85-2.0805 4.0461-0.3377 9.7213-0.8068 12.611-1.0407 2.8901-0.2344 8.5652-0.7285 12.611-1.0995 4.0462-0.3694 9.2484-0.8464 11.56-1.057 2.312-0.2105 8.4601-0.6601 13.662-0.9993 5.2022-0.3416 11.064-0.8183 13.026-1.0642 1.962-0.2462 7.6371-0.7288 12.611-1.0736 4.9742-0.3456 10.699-0.8004 12.722-1.0125 2.0231-0.2105 8.1712-0.6808 13.662-1.0415 5.4911-0.3614 10.693-0.8484 11.56-1.0844 0.867-0.2343 4.4139-0.6863 7.8821-0.9997 3.4681-0.3138 8.1974-0.856 10.51-1.2052 2.3121-0.3495 5.3861-0.7694 6.8311-0.9342 7.8823-0.8989 14.49-1.7159 16.815-2.0798 1.445-0.2264 4.7555-0.7038 7.3566-1.0621 2.6011-0.3575 9.2221-1.3724 14.713-2.2538s11.639-1.8021 13.662-2.0456c2.0231-0.2423 4.8606-0.6836 6.3057-0.9775 4.392-0.893 6.9055-1.3486 11.164-2.023 8.494-1.345 10.635-1.7442 19.838-3.7004 5.2022-1.1058 10.641-2.2339 12.086-2.5064 21.737-4.1 48.223-12.692 97.738-31.707 17.052-6.5483 37.281-14.052 44.955-16.676 33.602-11.489 75.181-21.868 105.33-26.294 25.907-3.8028 67.68-3.4422 93.534 0.808 8.9593 1.4724 19.718 3.4612 23.909 4.4189l7.6194 1.7418v73.978c0 58.479-0.2753 73.979-1.3137 73.982-1.7444 0-46.387 4.0507-51.759 4.689-2.3121 0.2741-6.6953 0.7539-9.7405 1.0645-57.11 5.8231-77.428 8.7708-112.69 16.35-19.094 4.1036-33.191 7.63-85.652 21.426-67.674 17.797-130.44 26.53-172.88 24.052z" fill="#ce7e5b"/> <path d="m-3760.3 2432.9c-13.153-6.8502-40.598-16.284-64.318-22.109-21.796-5.3516-40.322-7.8357-63.742-8.5459-33.109-1.0042-60.777 1.5261-123.37 11.282-64.822 10.104-82.945 12.476-112.57 14.734-23.408 1.7843-69.023 1.5241-91.958-0.5247-62.474-5.5808-104.82-14.133-203.36-41.071-78.007-21.325-114.95-29.965-155.01-36.257-39.344-6.1794-55.819-9.5791-70.414-14.531-9.7403-3.3048-16.051-6.3212-57.802-27.628-38.957-19.881-58.336-27.739-85.258-34.57-21.912-5.5597-53.193-9.6982-84.207-11.14l-15.502-0.7209v-18.758c0-16.128 0.2253-18.758 1.6064-18.758 13.433 0 110.23 13.423 141.17 19.576 7.3086 1.4533 44.974 10.617 83.702 20.364 121.53 30.586 138.97 33.548 244.35 41.506 105.22 7.9462 120.54 9.713 169.73 19.575 49.702 9.9655 54.871 10.625 85.652 10.934 14.74 0.147 30.11-0.135 34.156-0.6291 4.0462-0.4938 13.741-1.6588 21.544-2.5895 34.196-4.0781 60.8-9.7884 117.94-25.315 54.036-14.683 82.272-20.967 112.74-25.09 6.9362-0.9386 13.794-1.8768 15.239-2.085 8.3181-1.1971 11.76-1.6007 18.392-2.1564 4.0461-0.3376 9.0119-0.8047 11.035-1.0347 16.503-1.8741 55.841-5.7659 63.057-6.2386 4.9132-0.3217 10.234-0.8568 11.823-1.1888l2.8901-0.6042v83.108c0 65.812-0.2733 83.098-1.3137 83.06-0.7226-0.04-3.5121-1.194-6.1989-2.5934z" fill="#c16636"/> <path d="m-4722.2 2552c-15.55-1.2703-39.096-4.8365-55.175-8.3561-32.066-7.0195-74.51-21.889-102.15-35.787l-8.1981-4.1218v-226.23l16.552 0.7376c65.483 2.9183 95.598 10.273 152.12 37.152 68.502 32.573 68.65 32.62 127.57 40.674 32.286 4.4134 49.11 7.4128 74.226 13.233 20.029 4.641 61.814 15.587 91.944 24.085 114.74 32.362 168.43 43.008 239.09 47.413 30.566 1.9058 83.09 0.1469 115.05-3.8482 16.16-2.021 44.48-6.424 70.44-10.952 48.962-8.5396 64.359-10.971 83.025-13.112 19.947-2.2875 55.276-2.3177 70.945-0.06 26.27 3.7843 54.059 12.628 80.129 25.503l13.925 6.8765v46.77l-3.9411-0.879c-6.3145-1.4077-32.036-4.9703-50.222-6.9559-13.246-1.4459-26.397-1.8415-62.492-1.8784-25.144-0.04-48.554 0.3098-52.022 0.7495-3.4681 0.4381-8.9068 0.9954-12.086 1.2385-16.639 1.2718-77.689 10.78-91.432 14.241-2.0231 0.5092-5.3336 1.1849-7.3567 1.5019-2.023 0.3177-4.6241 0.7821-5.7801 1.0347-8.1346 1.7763-44.134 9.9814-65.042 14.824-64.918 15.038-76.431 15.642-130.09 6.8292-73.454-12.064-114.48-12.874-181.11-3.5765-10.404 1.4522-20.099 2.8516-21.544 3.1106-1.445 0.2582-21.308 3.555-44.14 7.3253-120.43 19.887-154.21 23.734-205.99 23.457-14.162-0.075-30.477-0.5243-36.258-0.9966z" fill="#8b5845"/> <path d="m-4733.9 2696.1c-44.868-3.2682-84.732-16.219-138.84-45.105l-14.961-7.9874-0.032-134.01 11.449 5.7416c45.374 22.756 89.636 38.212 127.8 44.628 39.852 6.6989 77.105 6.5643 138.73-0.5013 2.3121-0.2661 6.5684-0.9239 9.4585-1.4641 5.1599-0.964 11.101-1.8661 18.392-2.792 3.0197-0.3853 18.259-3.1324 27.98-5.0469 1.2273-0.2423 4.0648-0.7193 6.3057-1.0617 2.2408-0.3416 12.587-2.2594 22.991-4.2593 10.404-2 20.336-3.8819 22.07-4.1818 1.7341-0.2979 4.3352-0.7925 5.7802-1.0947 3.3591-0.7019 34.192-6.4841 38.36-7.1935 1.7341-0.2939 12.848-2.1938 24.697-4.2191 11.849-2.0254 23.673-3.9526 26.274-4.2827 2.6012-0.3297 6.1481-0.8318 7.8822-1.1154 17.022-2.7852 38.187-3.9085 64.05-3.4001 34.699 0.682 53.962 3.2154 101.47 13.345 8.3813 1.7867 19.887 3.9511 25.568 4.809 9.9689 1.5058 35.617 2.2057 40.762 1.1122 1.3791-0.2939 5.0577-0.802 8.1748-1.1308 8.6553-0.9136 29.516-5.3187 53.001-11.191 11.662-2.9163 21.913-5.4517 22.78-5.634 0.867-0.1827 4.4139-1.0669 7.8821-1.9654 7.3413-1.9022 48.154-11.176 52.022-11.82 1.445-0.2423 5.9378-1.1297 9.984-1.9749 4.0461-0.8449 13.032-2.4929 19.968-3.6619 6.9362-1.169 13.794-2.365 15.239-2.6581 1.4451-0.2939 5.2285-0.7952 8.4076-1.1162 3.1791-0.3217 6.4949-0.7892 7.3684-1.0403 0.8735-0.2502 4.184-0.6919 7.3566-0.9795 3.1726-0.286 8.0548-0.8146 10.849-1.1705 17.651-2.2494 37.374-3.0582 72.164-2.9596 41.335 0.1191 74.048 2.9286 110.63 9.5083l9.2095 1.6564-0.2764 35.201-0.2765 35.201-5.2547 2.0429c-23.12 8.9884-97.408 32.462-179.19 56.618-123.82 36.574-156.93 43.385-240.14 49.394-43.995 3.1773-40.429 2.8559-80.398 7.2435-50.511 5.5446-66.771 6.7406-91.958 6.7621-28.185 0.04-37.251-1.2155-71.99-9.8416-30.961-7.6884-42.629-9.5247-64.633-10.172-20.978-0.6164-41.865 0.9772-72.476 5.5308-56.346 8.3815-68.228 10.078-83.289 11.89-9.1246 1.0983-17.3 2.0095-18.167 2.0254-0.867 0-6.3057 0.5056-12.086 1.0887-15.476 1.5611-47.691 2.2133-61.09 1.2373z" fill="#e8ba8b"/> <path d="m-4887.8 2733.4c0-44.266 0.3869-80.328 0.8598-80.135 0.4728 0.1946 8.3944 4.2128 17.603 8.9332 44.207 22.66 82.612 34.887 123.41 39.29 17.837 1.9248 82.444 1.5606 99.538-0.5609 1.611-0.1986 6.7124-0.6594 11.337-1.0208 4.6242-0.3615 9.9656-0.8552 11.87-1.0971 1.9042-0.2423 6.8699-0.6836 11.035-0.9811 4.165-0.2979 21.051-1.9547 37.525-3.6829 46.503-4.8786 55.68-5.522 79.346-5.5653 23.589-0.044 32.558 0.7555 61.48 5.4755 34.07 5.5597 36.49 5.7802 63.582 5.7913 28.458 0 38.249-0.4278 79.872-3.5844 38.252-2.9012 44.096-3.2226 107.2-5.8962 44.83-1.899 45.014-1.9113 62.797-4.1119 43.966-5.4413 80.932-14.071 156.33-36.495 98.496-29.296 159.24-48.718 202.57-64.774l8.6704-3.2126v232.11h-1135z" fill="#31514e"/> <path d="m-3945 1745.2c-60.697 0-109.81 49.108-109.81 109.81 0 60.697 49.116 109.81 109.81 109.81 60.697 0 109.81-49.116 109.81-109.81 0-60.697-49.108-109.81-109.81-109.81z" fill="#c97c2e"/> </g> </g> </g> </svg>