<?xml version='1.0' encoding='utf-8'?>
<svg xmlns="http://www.w3.org/2000/svg" width="1343.7mm" height="1902.5mm" version="1.1" viewBox="0 0 1343.7 1902.5"><g transform="translate(3724.7 -1862.8)"><g transform="matrix(.93823 0 0 .93823 -230.06 -272.96)"><path d="m-3724.7 2276.4h1432.1v2027.8h-1432.1z" fill="#f0e0c9" stop-color="#000000" stroke-linecap="square" stroke-width="5.3292"/><path d="m-3035.8 2855.4c-2.5614-0.626-8.732-1.6499-13.713-2.2755-18.865-2.3691-37.055-16.36-47.711-36.695-7.7141-14.722-9.5405-23.567-9.7521-47.226-0.1018-11.343-0.294-21.377-0.4287-22.299-0.1341-0.9219-4.5434-6.3105-9.798-11.975-30.198-32.551-39.063-66.187-28.315-107.43 1.1443-4.3907 5.42-16.365 9.5015-26.61 8.4002-21.085 8.2309-20.574 14.42-43.536 8.8774-32.938 17.894-46.539 55.949-84.394 22.527-22.409 26.83-26.081 35.7-30.465 8.7206-4.31 11.334-4.9847 19.31-4.9847 8.4486 0 10.548 0.6284 24.961 7.4708 8.655 4.1089 22.002 9.6389 29.66 12.289 24.155 8.3588 30.944 13.169 37.172 26.336 2.4182 5.1123 9.156 29.393 17.962 64.728 19.433 77.975 25.547 118.78 20.835 139.04-0.851 3.6589-5.7443 15.416-10.874 26.126-6.2485 13.047-9.7042 22.049-10.471 27.276-2.3621 16.101-8.3775 43.698-10.712 49.145-2.883 6.7257-29.94 34.645-46.016 47.484-15.332 12.244-26.039 17.239-38.137 17.794-26.078 1.1951-35.276 1.2412-39.543 0.1982z" fill="#dd8943" stroke-width="1.0658"/><path d="m-2880.9 2942.4c-11.79-3.4892-26.164-11.977-31.867-18.82-6.3998-7.677-14.855-24.56-17.531-35.004-4.9188-19.2 4.2439-45.734 26.171-75.786 6.0539-8.2973 7.0828-10.793 10.664-25.868 4.5128-18.994 8.0374-28.426 18.155-48.58 13.264-26.422 15.233-42.395 12.471-101.18-1.207-25.689-1.2634-38.487-0.2126-48.264 4.2974-39.984 6.9704-58.263 9.5139-65.062 8.068-21.564 31.452-39.525 65.796-50.539 15.119-4.8486 30.957-7.185 59.208-8.7343 13.538-0.7424 33.296-2.6197 43.907-4.1718 34.881-5.102 58.851-3.7002 85.153 4.9801 14.548 4.8013 30.103 5.422 49.229 1.9642 44.198-7.9905 67.568-3.8873 84.521 14.84 13.168 14.546 20.522 33.651 20.594 53.502 0.018 4.3036 1.9192 12.055 5.3913 21.954 7.0288 20.038 9.1757 30.408 10.468 50.56 0.7 10.92 2.295 21.201 4.6443 29.937 2.1416 7.9635 3.887 18.647 4.3476 26.61 2.1584 37.326-16.904 60.243-58.118 69.872-22.408 5.235-32.454 8.2025-39.25 11.594-4.5216 2.2565-13.361 10.063-27.595 24.372-39.279 39.483-53.683 47.433-115.69 63.844-27.54 7.2892-43.693 12.806-52.346 17.876-3.1499 1.846-10.117 8.2754-15.482 14.288-21.988 24.64-30.18 30.61-56.112 40.896-5.7741 2.2904-19.142 9.8772-29.937 16.991-10.727 7.0692-23.097 14.343-27.487 16.164-10.598 4.396-27.168 5.1554-38.61 1.7693z" fill="#dd8943" stroke-width="1.0658"/><path d="m-3164.9 2946.5c-1.8295-0.3185-9.6466-2.0168-17.371-3.773-7.7248-1.7561-22.394-4.1413-32.598-5.3004-24.256-2.7553-35.512-5.4835-62.771-15.214-30.678-10.951-31.939-11.287-62.223-16.573-53.213-9.287-79.788-20.368-117.53-49.007-10.487-7.9585-25.156-17.794-32.598-21.856-25.067-13.684-35.616-22.308-44.947-36.745-9.9669-15.421-13.172-31.363-12.916-64.241 0.191-24.478-0.4479-26.996-11.047-43.518-7.9947-12.463-13.796-23.869-17.347-34.108-3.0873-8.9012-6.4362-29.873-6.3904-40.02 0.018-4.0248-1.306-19.734-2.9424-34.908-2.5763-23.89-2.7645-29.037-1.4027-38.38 2.4463-16.784 8.7706-28.608 22.779-42.587 17.066-17.031 34.505-25.829 59.101-29.818 20.342-3.2991 69.433-2.3502 111.35 2.1525 7.6838 0.8253 26.843 1.4214 42.577 1.3244 32.951-0.203 45.16 1.114 61.869 6.6738 15.816 5.2627 58.053 25.872 71.888 35.077 34.873 23.204 51.601 61.189 49.51 112.43-1.3055 31.997 2.5303 50.421 16.9 81.175 13.454 28.793 15.661 36.664 18.659 66.549 1.1153 11.115 2.763 20.392 4.1352 23.284 1.2546 2.6439 5.6246 7.6121 9.711 11.04 15.207 12.758 26.153 24.673 28.338 30.848 6.78 19.16 10.719 33.715 11.361 41.977 1.3528 17.42-5.1638 31.682-21.398 46.83-14.68 13.698-25.838 17.754-48.017 17.453-7.3471-0.099-14.855-0.4419-16.685-0.7614z" fill="#dd8943" stroke-width="1.0658"/><path d="m-3007.2 2994.1c-50.423-3.2126-70.217-23.021-63.1-63.146 3.3332-18.793 4.1895-22.108 7.3444-28.439 8.4568-16.971 29.595-32.179 44.726-32.179 2.0884 0 6.0232-0.9384 8.744-2.0853 17.516-7.3839 46.769-0.3053 63.283 15.313 7.834 7.4091 13.539 17.798 18.2 33.142 3.9918 13.142 3.4026 30.947-1.3494 40.78-4.0255 8.3293-12.836 17.856-23.662 25.587-15.19 10.846-25.17 12.878-54.185 11.029z" fill="#e63112" stroke-width="1.0658"/><path d="m-2536.2 3340.4c-25.578-5.7248-54.553-23.622-78.528-48.507-14.298-14.841-25.89-30.196-39.946-52.917-17.775-28.731-32.03-49.713-39.176-57.662-3.7809-4.2057-15.959-15.356-27.062-24.778-25.063-21.268-38.707-35.323-58.293-60.046-18.516-23.372-25.229-29.555-44.304-40.802-18.557-10.942-29.4-19.689-43.49-35.084-6.1289-6.6964-18.129-18.407-26.667-26.023-20.859-18.607-24.167-26.916-14.545-36.538 7.4362-7.4361 16.942-6.6996 37.347 2.8939l11.349 5.3359 25.945-0.4191c14.27-0.2306 31.421-0.2144 38.114 0.036 14.414 0.5407 15.771 0.048 41.829-15.157 32.31-18.854 50.506-25.926 83.463-32.44 11.191-2.2118 22.86-5.1346 25.931-6.495s13.088-7.5342 22.26-13.72c22.422-15.121 28.436-17.038 57.834-18.436 18.2-0.8653 26.128-1.9076 40.581-5.3353 15.645-3.7105 19.678-4.1855 31.267-3.6822 21.667 0.9407 37.528 9.2913 50.685 26.685 15.144 20.02 21.91 41.055 22.822 70.955 0.7134 23.404-1.1817 38.19-8.5474 66.688-9.9494 38.495-9.3936 30.384-8.5479 124.74 0.5748 64.127-2.6772 98.358-12.022 126.54-9.7453 29.389-26.609 46.49-52.32 53.054-7.3815 1.8845-29.487 2.5729-35.977 1.1203z" fill="#dd8943" stroke-width="1.0658"/><path d="m-3503.9 3351.2c-9.4884-2.555-15.392-5.734-27.038-14.559-5.4363-4.1195-15.415-10.199-22.176-13.51-13.499-6.6116-21.193-13.823-24.178-22.662-1.0993-3.2553-2.1067-17.805-2.7937-40.35-0.5909-19.392-1.7291-37.795-2.5293-40.895-0.8001-3.0998-3.8533-10.828-6.7847-17.173-7.6295-16.514-9.3008-23.197-9.3008-37.189 0-15.472 2.3352-27.709 9.4118-49.32 7.4513-22.755 7.795-34.961 1.6236-57.662-6.085-22.382-7.5451-33.686-6.6685-51.621 1.8394-37.636 15.215-71.624 36.388-92.463 19.83-19.518 51.614-20.251 85.644-1.9757 6.952 3.7333 17.43 9.3786 23.284 12.545 13.842 7.4867 24.138 10.664 44.926 13.862 23.769 3.6574 30.688 6.2404 53.649 20.026 24.553 14.742 46.73 22.46 64.413 22.417 5.369-0.018 14.198-1.5226 23.284-3.981 17.189-4.6512 26.878-5.0009 47.589-1.7184 12.132 1.9228 15.902 2.0273 24.615 0.682 5.6585-0.8737 17.473-2.4783 26.254-3.5657 11.496-1.4238 20.979-3.6596 33.873-7.9867 19.352-6.4945 27.42-7.3976 35.59-3.9839 2.8627 1.1961 12.291 9.5045 23.025 20.29 15.461 15.535 18.601 19.398 21.011 25.848 7.7311 20.692 3.903 43.839-10.898 65.895-6.3779 9.5046-12.948 17.061-45.56 52.399-11.071 11.996-24.904 27.499-30.74 34.451-14.932 17.787-30.338 32.046-41.07 38.015-5.0492 2.8083-13.072 7.594-17.829 10.635-4.7565 3.041-14.336 8.0344-21.288 11.097-17.781 7.8318-21.121 10.368-32.53 24.698-13.564 17.038-21.417 22.948-47.301 35.599-12.074 5.9011-29.438 15.034-38.585 20.296-20.023 11.517-29.023 15.227-51.435 21.206-22.306 5.9497-27.069 7.622-47.688 16.744-34.519 15.271-50.8 18.593-68.188 13.91z" fill="#dd8943" stroke-width="1.0658"/><path d="m-2878.2 3559.3c-26.716-3.3824-45.263-15.932-57.3-38.769-11.175-21.202-16.012-44.73-14.804-72.015 0.7496-16.936 2.2274-25.546 9.6134-56.011 5.642-23.271 5.8253-40.798 0.743-71.058-6.1085-36.369-5.6637-44.274 4.8358-85.943 5.8379-23.169 6.0397-24.643 6.1932-45.238 0.087-11.709-0.3652-29.072-1.0049-38.585-0.961-14.286-0.7434-20.076 1.2505-33.263 3.8452-25.431 3.3785-34.651-2.5932-51.225-11.672-32.394-13.032-36.962-13.751-46.172-0.6648-8.5137-0.3604-10.369 2.7294-16.631 4.5019-9.125 10.285-13.055 20.586-13.989 22.226-2.0154 39.155 12.843 66.578 58.436 5.1912 8.6306 10.466 14.9 20.709 24.614 7.5588 7.1688 18.762 18.722 24.895 25.674 6.1335 6.9519 24.351 26.111 40.483 42.576 37.399 38.172 42.994 45.762 69.134 93.802 17.28 31.756 22.723 39.573 42.55 61.103 26.781 29.081 40.733 49.44 57.191 83.448 14.912 30.815 20.151 51.503 19.037 75.178-0.813 17.277-4.3354 26.564-13.583 35.812-9.0402 9.0401-18.914 13.493-48.485 21.864-24.991 7.0744-39.02 12.012-67.62 23.799-25.504 10.51-44.901 15.013-83.564 19.396-39.708 4.5017-65.683 5.4919-83.823 3.1948z" fill="#dd8943" stroke-width="1.0658"/><path d="m-3110.4 3572.1c-10.006-2.0582-22.31-6.221-39.25-13.279-15.591-6.4962-21.203-8.1008-37.254-10.655-29.695-4.726-38.124-8.5011-69.928-31.321-12.116-8.6937-25.588-17.473-29.937-19.51l-7.907-3.7026-31.267 0.3472c-34.31 0.382-46.87-0.7991-63.1-5.9293-5.909-1.8677-19.76-5.6504-30.781-8.4061-24.068-6.0178-34.36-10.924-44.784-21.349-10.783-10.783-15.992-22.158-16.749-36.572-0.7215-13.746 1.8345-22.936 9.4906-34.124 7.5074-10.97 17.347-17.481 49.461-32.726 25.039-11.886 29.733-13.579 67.191-24.223 26.497-7.5298 25.65-7.1269 103.12-49.027l18.627-10.075 23.949-24.161c14.604-14.733 29.141-27.977 37.254-33.94 18.647-13.704 25.121-20.083 34.326-33.818 13.817-20.617 19.488-27.247 44.954-52.556 16.522-16.42 27.726-28.823 33.652-37.254 8.19-11.653 9.4963-14.526 16.73-36.795 10.83-33.338 13.83-38.637 25.462-44.968 11.773-6.4075 25.475-3.6438 37.043 7.4718 17.514 16.829 27.437 47.92 24.012 75.234-1.7674 14.095-5.625 28.539-12.185 45.625-11.468 29.868-10.778 25.74-11.775 70.518-0.5515 24.776-1.792 47.688-3.185 58.83-2.1332 17.062-2.1404 19.744-0.1107 41.246 2.4578 26.038 2.7914 59.548 0.7355 73.9-2.9588 20.656-5.9939 29.536-18.981 55.539-10.623 21.27-13.186 28.991-18.328 55.216-6.798 34.675-12.059 47.519-25.232 61.6-16.688 17.839-38.945 24.274-65.249 18.863z" fill="#dd8943" stroke-width="1.0658"/><path d="m-2938.7 4126.7c-1.8294-0.3018-9.0142-1.9647-15.966-3.6896-6.952-1.7248-20.668-4.7783-30.479-6.7852-17.824-3.6463-17.847-3.6474-26.878-1.305-16.803 4.3579-35.495 2.6718-58.398-5.2675-17.05-5.9103-20.771-6.2216-37.54-3.1405-19.91 3.6584-36.555 2.9272-61.281-2.6914-30.894-7.0201-40.054-7.5652-82.006-4.8819-57.747 3.6936-76.143 1.2753-131.18-17.242-39.777-13.384-45.276-14.726-70.801-17.286-24.02-2.4088-32.47-4.458-46.306-11.228-29.128-14.253-54.847-48.587-66.535-88.817-6.8439-23.558-7.3275-48.533-1.832-94.599 2.2493-18.855 2.6497-27.67 2.0065-44.178-2.4899-63.903-2.4919-72.427-0.024-99.876 3.6229-40.292 3.2055-72.288-1.4049-107.69-7.274-55.847-4.4598-86.154 10.97-118.14 8.8133-18.271 21.531-28.126 36.372-28.184 11.852-0.048 22.822 6.2467 42.293 24.262 41.328 38.237 48.268 42.165 96.62 54.683 43.349 11.223 53.923 16.171 81.134 37.965 6.5862 5.2746 17.962 12.93 25.28 17.011 29.918 16.685 41.585 25.073 56.774 40.812 17.42 18.051 33.196 44.983 42.242 72.111 6.6111 19.827 9.8484 34.3 14.866 66.463 7.1116 45.584 10.781 56.304 24.19 70.673 4.2241 4.5269 14.858 13.152 23.63 19.167 17.802 12.206 26.56 20.939 32.87 32.779 7.6429 14.339 8.6187 20.322 9.5135 58.331 0.7415 31.49 1.0569 35.011 3.5164 39.25 2.2675 3.9084 6.0415 6.3096 23.477 14.939 15.073 7.4601 22.88 12.205 28.442 17.289l7.6662 7.006-0.8865-4.725c-0.488-2.5994-3.5563-12.964-6.8193-23.034-6.7661-20.879-8.0535-27.173-10.076-49.261-2.2029-24.058-4.2675-28.448-30.38-64.59-32.941-45.593-39.899-90.502-22.868-147.6 2.7556-9.2378 8.0963-27.274 11.868-40.08 5.7294-19.453 8.8427-27.201 18.92-47.088 6.6339-13.093 13.194-26.864 14.579-30.602 4.6487-12.553 16.061-50.507 22.01-73.198 6.2122-23.696 9.1108-29.546 16.544-33.39 15.045-7.78 33.736 9.7929 39.448 37.088 1.0913 5.2148 2.4857 22.055 3.0987 37.422 1.2766 32.005 2.7686 40.523 12.236 69.852 13.145 40.72 14.171 52.882 8.0917 95.915-3.5318 25.001-3.6373 27.443-3.2963 76.299 0.3784 54.173 0.1838 56.876-7.0356 97.881-2.5124 14.27-6.1182 36.038-8.013 48.373-5.594 36.418-11.902 57.366-23.195 77.017-4.3994 7.6557-4.7318 8.7434-2.269 7.4264 5.2859-2.8277 18.525-16.3 23.471-23.886 5.9409-9.11 11.484-23.603 18.651-48.763 8.7919-30.866 10.714-42.266 12.048-71.477 2.1203-46.407 5.7623-54.085 44.538-93.895 21.143-21.707 23.209-24.274 28.913-35.924 3.3787-6.9009 9.248-22.426 13.043-34.5 13.221-42.065 26.668-61.744 54.482-79.732 11.261-7.2831 19.567-11.18 48.564-22.786 62.56-25.04 78.54-37.937 117.78-95.063 17.176-25.004 24.18-33.792 44.393-55.688 28.28-30.636 35.215-40.472 50.987-72.322 5.5123-11.131 12.162-22.738 14.777-25.793 15.053-17.586 35.821-12.012 47.577 12.768 6.2027 13.075 8.5528 26.322 8.5464 48.175-0.01 27.462-2.9747 43.283-16.742 89.286-9.0435 30.218-14.523 52.606-17.32 70.765-3.2953 21.397-3.9712 93.604-1.3111 140.07 4.752 83.01 1.5309 115.38-14.774 148.48-12.067 24.496-23.028 36.715-82.899 92.418-58.776 54.684-63.268 56.996-155.23 79.916-59.688 14.876-69.419 16.653-113.53 20.737-15.733 1.4563-35.453 3.5543-43.822 4.6612-14.018 1.8546-37.37 2.4203-45.322 1.0977z" fill="#617035" stroke-width="1.0658"/></g></g></svg>