<?xml version='1.0' encoding='utf-8'?>
<svg xmlns="http://www.w3.org/2000/svg" width="1323.2mm" height="1323.2mm" version="1.1" viewBox="0 0 1323.2 1323.2"> <g transform="translate(67.671 -89.137)"> <g transform="matrix(3.9646 0 0 3.9646 -2414.3 -1908.7)"> <path d="m591.91 503.92h333.75v333.75h-333.75z" fill="#fdfcf7" stroke-width=".30903"/> <g transform="matrix(1.1148 0 0 1.1148 -81.48 -79.848)" stroke-width=".26458"> <path d="m610.86 583.53v-53.049h285.75v43.656c0 24.011-0.0726 43.656-0.16145 43.656-0.0888 0-1.4878-0.4103-3.1088-0.9117-7.9595-2.462-12.607-3.025-17.663-2.1395-3.2954 0.5771-5.2617 1.3475-12.404 4.8601-6.7207 3.3053-10.948 4.9105-15.214 5.7771-1.8519 0.3762-3.5968 0.4838-7.8494 0.4838-3.0075 0-5.554-0.086-5.6589-0.1908-0.10491-0.105 0.11885-1.7123 0.49726-3.5719 1.289-6.3344 1.5704-9.4489 1.417-15.684-0.19222-7.8135-1.0438-12.862-3.3473-19.844-1.5149-4.5914-3.1833-8.4545-5.2786-12.222-11.247-20.225-31.464-34.629-55.058-39.23-10.64-2.0746-21.824-2.0611-32.407 0.039-27.943 5.5456-50.246 25.158-57.561 50.616-2.0688 7.1996-2.7629 12.845-2.5464 20.712 0.20734 7.5335 1.1872 12.969 3.521 19.532 0.71709 2.0164 0.87372 2.7345 0.62943 2.8855-0.81492 0.5036-4.6715 0.9262-8.3364 0.9134-4.583-0.016-7.3658-0.4831-14.047-2.3577-11.059-3.1031-13.756-2.8245-30.668 3.168-4.2201 1.4954-8.5064 2.9657-9.525 3.2675-1.8417 0.5455-10.403 2.6732-10.782 2.6796-0.10914 0-0.19844-23.869-0.19844-53.046z" fill="#e8f3f7"/> <path d="m744.74 638.51c-3.5487-0.38-7.4241-1.3605-9.929-2.512-2.1804-1.0023-7.9569-4.1283-11.634-6.2962-8.8-5.1873-13.905-7.308-18.785-7.804-1.8544-0.1884-5.11 0.333-7.3352 1.1748-0.83291 0.315-2.7384 1.3096-4.2344 2.2101-2.7128 1.6328-4.5109 2.5633-4.9539 2.5633-0.12854 0-0.60969-1.5776-1.0692-3.5058-2.4574-10.311-2.7657-20.828-0.89353-30.472 2.4993-12.875 8.5504-24.334 17.946-33.986 11.7-12.018 26.23-19.237 43.558-21.64 4.1136-0.5705 14.928-0.6514 19.027-0.1423 14.748 1.8315 28.43 7.5035 39.688 16.452 3.3184 2.6379 8.7238 7.9967 11.213 11.116 8.312 10.417 13.436 22.311 15.109 35.068 0.54327 4.1429 0.55307 12.728 0.0192 16.791-0.53916 4.1028-1.2208 7.1661-1.6294 7.3229-0.18495 0.071-2.5763-0.3495-5.3141-0.9343-6.7276-1.4373-7.6757-1.5929-11.453-1.8795-8.765-0.6654-15.224 0.9615-29.914 7.5349-14.405 6.4456-24.798 9.1791-34.52 9.0789-2.1828-0.023-4.3855-0.086-4.8948-0.1401z" fill="#f8c511"/> <path d="m610.87 640.92 1e-3 -2.358 4.0736-0.8589c4.6166-0.9734 8.2997-2.0595 16.785-4.9494 10.295-3.5066 13.891-4.3806 17.996-4.3743 2.9158 0 4.504 0.3336 9.6943 2.0089 7.7856 2.513 12.942 3.3093 17.912 2.7662 1.4992-0.1638 3.1987-0.4066 3.7767-0.5394 0.57799-0.1329 1.0847-0.2078 1.1261-0.1664 0.18667 0.1867-5.0876 2.8865-7.508 3.8432-11.755 4.6467-24.943 6.3147-53.87 6.8138l-9.988 0.1723z" fill="#b6d9ec"/> <path d="m760.17 653.22c-3.0488-0.5091-6.0017-1.9388-10.801-5.2295-2.4876-1.7057-10.673-7.6607-11.33-8.2428-0.11979-0.1061 0.80743 0.021 2.0605 0.2817 12.883 2.6837 28.022-0.065 46.708-8.4807 9.9664-4.4884 15.846-6.2171 22.211-6.5303 4.1071-0.2021 7.522 0.2029 16.021 1.9004 3.9291 0.7847 8.4534 1.5676 10.054 1.7399 3.6116 0.3886 8.0935 0.1828 11.836-0.5436 2.7044-0.5249 8.1716-2.2427 9.7725-3.0706 1.0604-0.5483 0.91137-0.1629-0.46934 1.214-0.65667 0.6548-2.836 3.2147-4.8429 5.6885-6.6708 8.2229-10.227 11.197-16.701 13.966-4.1922 1.7931-6.3211 2.1725-12.031 2.1437-4.7551-0.024-5.2704-0.078-9.525-1.0014-11.695-2.5376-10.685-2.3888-16.14-2.3806-4.755 0.01-5.1924 0.051-8.0819 0.818-1.6802 0.4458-5.3116 1.6706-8.0698 2.7218-7.1506 2.7251-12.305 4.3785-15.182 4.87-2.7142 0.4638-3.4204 0.4812-5.4905 0.1356z" fill="#b6d9ec"/> <path d="m829.94 674.11c-5.2781-0.531-9.4215-1.7815-17.84-5.3838-10.335-4.4226-12.906-5.0434-19.996-4.828-5.5165 0.1676-8.0258 0.6216-20.169 3.6487-17.352 4.3254-22.68 5.1513-31.822 4.9321-5.5882-0.1339-7.7103-0.3995-12.301-1.5396-4.5138-1.121-8.9087-3.0067-19.976-8.5711-14.566-7.3232-21.702-10.151-29.97-11.874-5.4847-1.1435-7.7908-1.3555-14.614-1.3434-7.2312 0.013-9.5636 0.2381-21.828 2.1087-13.441 2.05-17.983 2.5515-26.524 2.9288l-4.0349 0.1782v-7.4761h8.6688c29.778 0 47.737-2.7125 60.52-9.1406 1.6007-0.805 5.5893-3.3114 8.8635-5.5698 9.5272-6.5714 12.155-7.5892 17.098-6.6215 7.4128 1.4512 19.113 8.1678 34.947 20.061 8.0112 6.0176 9.9025 7.2925 12.91 8.7022 3.0374 1.4237 5.0622 1.8777 8.3317 1.8682 4.2084-0.012 8.1336-1.1295 18.524-5.2731 7.8422-3.1275 11.355-3.8906 16.933-3.6786 3.0937 0.1176 4.6561 0.3321 8.0698 1.1075 10.495 2.3841 11.444 2.5438 16.007 2.6942 3.3727 0.1112 4.9373 0.045 6.8792-0.2898 6.8403-1.1802 13.695-4.6378 19.041-9.6036 1.2087-1.1229 4.0685-4.2488 6.355-6.9464 4.9631-5.8553 8.6-9.4087 11.865-11.592 5.5689-3.725 10.052-5.0442 16.132-4.7471 3.5807 0.175 5.614 0.5723 10.835 2.1172l3.7703 1.1155v10.52l3e-5 10.52-1.3891 0.8501c-2.8516 1.7453-10.814 7.1083-15.677 10.558-19.408 13.771-31.367 19.59-42.333 20.598-3.2531 0.2991-4.0507 0.296-7.276-0.029z" fill="#91c5de"/> <path d="m721.79 697.57c-0.76187-0.215-2.012-0.7081-2.7781-1.0956-2.7094-1.3705-12.567-7.3692-17.136-10.428-6.1735-4.1328-7.2078-4.7726-10.671-6.6007-10.891-5.7496-22.945-8.3131-34.97-7.4369-5.5102 0.4014-9.8939 1.026-20.644 2.9411-10.448 1.8614-14.161 2.4581-18.779 3.0184-1.8918 0.2295-4.0051 0.4869-4.6964 0.5719l-1.2568 0.1546 3e-5 -11.204 3e-5 -11.203 7.3422-0.025c8.0564-0.028 10.117-0.199 25.069-2.0858 15.28-1.9282 21.892-2.1376 29.941-0.9483 9.8829 1.4602 18.079 4.4055 33.691 12.108 9.529 4.701 11.533 5.6052 15.214 6.8645 7.0792 2.422 11.635 3.1277 20.108 3.1149 9.3597-0.014 14.521-0.8252 30.824-4.844 10.332-2.5467 13.466-3.1586 17.605-3.4363 6.6924-0.4491 11.52 0.6194 19.569 4.3312 13.154 6.066 22.852 7.4794 33.494 4.8809 4.3099-1.0525 7.4642-2.2611 13.073-5.0094 7.4732-3.6618 14.281-7.7939 23.548-14.292 5.3824-3.7744 10.861-7.4614 14.089-9.4819l2.1828-1.3662v21.43l-2.4474 1.2244c-4.1772 2.0899-7.934 4.2222-17.661 10.024-5.166 3.0815-11 6.4675-12.965 7.5243-9.0865 4.8881-16.184 7.4768-24.474 8.927-1.9992 0.3497-4.1654 0.4653-8.8635 0.473-6.6664 0.011-9.7395-0.3054-11.858-1.2206-0.68134-0.2944-2.3699-0.9538-3.7523-1.4654-1.3824-0.5116-4.7162-1.9766-7.4083-3.2557-9.0995-4.3231-17.912-7.5803-22.539-8.3307-7.638-1.2388-19.037 0.5083-29.716 4.5544-4.29 1.6254-6.5098 2.6159-14.661 6.5421-8.2959 3.9957-11.531 5.1594-14.797 5.3219-1.5395 0.077-2.7466-0.014-3.6771-0.2768z" fill="#85b3ce"/> <path d="m856.79 708.11c-0.43656-0.049-2.0439-0.2213-3.5719-0.3825-8.1723-0.8621-17.159-3.4837-28.013-8.1717-5.2404-2.2634-5.6072-2.4712-4.0017-2.2666 8.1564 1.0398 14.928 0.9085 21.564-0.418 9.4333-1.8859 18.039-5.778 34.264-15.496 11.255-6.741 18.708-10.932 19.441-10.932 0.076 0 0.13788 6.5187 0.13756 14.486v14.486l-3.3728 1.4356c-9.3268 3.9701-18.328 6.4113-26.392 7.158-2.7086 0.2508-8.2319 0.3064-10.054 0.1013z" fill="#75adc8"/> <path d="m744.21 715.16c-4.8416-1.2026-8.1463-3.0797-16.575-9.4148-7.9906-6.0059-10.867-7.7839-15.118-9.3442-5.731-2.1036-12.695-2.8291-20.43-2.1282-4.7088 0.4267-9.1317 1.1864-19.182 3.2949-14.514 3.0448-18.152 3.5657-24.923 3.5692-10.506 0.01-21.216-2.7836-33.748-8.7882l-3.3734-1.6164v-9.6291l2.5797-0.1766c4.5469-0.3112 11.037-1.2086 22.334-3.0883 6.0628-1.0088 12.552-2.014 14.42-2.2337 17.459-2.054 29.856 1.0696 47.606 11.995 7.8792 4.8499 18.814 10.582 22.658 11.878 1.0791 0.3639 2.2036 0.4659 4.9668 0.4507 3.1574-0.017 3.8328-0.1049 5.8208-0.7545 2.7655-0.9038 5.9297-2.2488 12.965-5.5109 11.615-5.3858 19.15-7.8248 28.887-9.3502 3.3024-0.5173 9.2367-0.5847 11.594-0.1317 2.4439 0.4696 7.4574 2.1376 12.903 4.2928 2.5772 1.02 4.7103 1.879 4.7402 1.909 0.03 0.03-1.5332 0.01-3.4737-0.049-8.5934-0.2511-13.224 1.978-25.943 12.488-2.4738 2.0441-5.0337 4.154-5.6885 4.6886-4.1678 3.4026-10.139 6.6918-13.89 7.651-2.6559 0.6793-6.3899 0.6786-9.129 0z" fill="#75adc8"/> <path d="m775.57 729.26c-2.2058-0.1894-7.7987-0.9157-10.98-1.426-8.4039-1.3478-15.673-3.2435-28.84-7.5207-16.872-5.481-23.204-6.7552-33.602-6.7616-8.4274-0.01-15.379 0.8475-27.457 3.3682l-7.0709 1.4757-9.1281 0.053c-8.6746 0.051-9.5422 0.1021-17.462 1.0352-12.809 1.5091-20.208 1.5753-27.715 0.2482l-2.4474-0.4327v-13.208c0-7.2645 0.0893-13.167 0.19844-13.117 0.10914 0.05 1.4136 0.7132 2.8987 1.4738 4.0387 2.0684 9.7903 4.4732 14.101 5.8958 7.2555 2.3944 13.451 3.4332 20.453 3.429 6.7126 0 11.772-0.6826 23.738-3.1843 15.876-3.3192 22.44-4.0876 29.443-3.4466 8.9374 0.818 13.629 2.9886 23.998 11.101 10.166 7.9547 16.423 10.652 23.812 10.267 3.3049-0.1724 5.8235-0.8385 9.1936-2.4314 4.3454-2.054 7.3691-4.1881 15.016-10.598 8.359-7.0072 11.593-9.276 15.599-10.944 3.0862-1.2848 5.1977-1.698 8.6102-1.6847 5.0377 0.02 5.6162 0.2175 23.019 7.8715 14.808 6.513 22.677 8.848 33.558 9.9579 3.835 0.3912 13.56 0.1593 17.063-0.4069 6.6536-1.0754 13.657-3.06 20.524-5.8164 2.3858-0.9576 4.38-1.741 4.4318-1.741 0.0517 0 0.0941 4.2696 0.0941 9.4881v9.4882l-2.0728 0.9475c-13.07 5.9743-24.376 7.7929-38.005 6.1132-4.4308-0.5461-7.9311-1.1834-17.998-3.2771-13.233-2.7522-13.486-2.7852-21.299-2.7757-6.0015 0.01-7.0496 0.074-9.487 0.606-3.4116 0.7444-7.578 2.1271-10.558 3.5036-2.7313 1.2619-4.5273 1.7511-8.2456 2.2462-2.5232 0.3359-10.436 0.456-13.382 0.203z" fill="#4287a5"/> <path d="m751.09 741.88c-2.6053-0.2692-5.04-0.6828-7.2443-1.2306-6.7381-1.6745-18.459-3.8903-22.389-4.2326-4.0757-0.355-11.248-1.8732-16.199-3.4287-3.0654-0.9632-8.957-3.3355-15.022-6.0486-6.7235-3.008-9.6988-4.2027-13.891-5.5775-1.8918-0.6205-3.261-1.194-3.0427-1.2745 0.84979-0.3134 11.754-2.0174 16.272-2.5429 6.2436-0.7261 14.363-0.9644 18.653-0.5476 7.7552 0.7536 12.795 1.9953 29.898 7.366 3.7108 1.1653 8.0566 2.4859 9.6573 2.9348 12.129 3.4011 28.57 5.5828 36.706 4.8709 1.4163-0.1239 2.4879-0.146 2.3812-0.049-0.38193 0.3474-6.7501 3.7264-9.0059 4.7787-4.8787 2.2758-9.4924 3.7942-13.958 4.5937-2.8217 0.5052-9.6742 0.7125-12.817 0.3879z" fill="#317099"/> <path d="m641.29 743.56c-8.3932-0.402-17.254-2.1347-26.3-5.1432l-4.127-1.3726v-14.545l1.1245 0.1877c0.61846 0.1032 2.196 0.3634 3.5057 0.5782 3.4142 0.56 12.791 0.7646 17.376 0.3792 2.0851-0.1753 6.4105-0.605 9.6119-0.9549 7.9613-0.8702 20.907-1.031 24.739-0.3073 6.9535 1.3134 10.9 2.6086 22.357 7.3368 3.9291 1.6215 9.1669 3.6224 11.64 4.4465l4.4958 1.4983-4.3635 0.1678c-7.8694 0.3027-14.577 1.2474-28.837 4.0613-10.568 2.0854-13.903 2.649-18.654 3.1526-3.9179 0.4153-9.6993 0.652-12.568 0.5147z" fill="#317099"/> <path d="m892.65 752.49c-3.1472-1.2179-5.1657-2.1242-14.971-6.7218-9.4907-4.45-15.067-5.7229-25.113-5.7323-10.337-0.01-16.796 0.9393-35.983 5.2865-15.112 3.4237-20.54 4.1399-29.469 3.8879-7.5526-0.213-14.246-1.2573-24.639-3.8438-4.6051-1.1461-4.7013-0.9976 1.0582-1.6332 7.007-0.7731 13.479-3.2569 24.871-9.5441 12.831-7.0816 18.865-9.0024 28.31-9.0118 6.2803-0.01 9.1542 0.4457 25.268 3.9736 11.46 2.509 17.242 3.29 24.342 3.2872 6.736 0 11.861-0.7499 18.124-2.6425 3.0795-0.9306 8.611-3.0724 10.914-4.2259l1.2568-0.6295v14.424c0 11.368-0.0701 14.422-0.33073 14.415-0.1819-0.01-1.819-0.5854-3.638-1.2894z" fill="#1d4b67"/> <path d="m817.77 777.58c-8.4996-0.7197-14.191-2.4767-29.227-9.0225-11.368-4.9491-15.393-6.1878-21.044-6.4768-5.5174-0.2821-10.019 0.862-18.389 4.6733-8.9099 4.0575-13.512 5.1838-18.57 4.545-4.7375-0.5984-8.3212-2.08-18.534-7.6625-11.282-6.1668-18.067-8.3951-26.528-8.7115-2.717-0.1016-4.8562-0.018-7.3312 0.2861-1.9221 0.2362-4.4366 0.4295-5.5877 0.4295-3.651 0-6.3592 0.59-14.995 3.2668-2.6194 0.8119-6.0127 1.7789-7.5406 2.1488-13.168 3.1878-25.064 2.4808-37.637-2.2369l-1.5214-0.5709v-9.5343c0-8.9784 0.027-9.5229 0.46302-9.3386 2.0129 0.8507 9.5425 3.2456 12.833 4.0818 8.4222 2.14 14.364 2.7943 23.429 2.5797 7.016-0.1661 11.003-0.6264 19.895-2.2967 24.485-4.5992 29.961-5.2503 41.54-4.9392 12.804 0.344 21.733 1.804 42.333 6.922 18.2 4.5219 23.577 5.5762 31.75 6.226 9.8723 0.785 17.652-0.1099 34.925-4.0176 19.084-4.3172 27.127-5.4393 37.12-5.1784 8.8032 0.2299 12.741 1.295 23.494 6.3555 7.4145 3.4891 11.718 5.3292 15.387 6.5792l2.5794 0.8789v10.067l-3.0156-1.4878c-7.8928-3.8937-17.09-5.7062-25.415-5.0085-11.133 0.9331-20.048 4.6162-30.499 12.6-2.1188 1.6185-4.12 2.9043-5.3641 3.4465-3.5334 1.5401-7.9037 1.9595-14.552 1.3965z" fill="#174667"/> <path d="m610.86 775.22c0-13.055 0.0257-13.811 0.46302-13.641 1.551 0.6024 7.7515 2.3186 9.988 2.7645 4.4677 0.8909 7.1997 1.1357 12.568 1.1263 8.8396-0.015 15.881-1.3439 26.839-5.0635 1.3006-0.4414 2.4317-0.801 2.5135-0.7989 0.0818 0-0.73114 0.4833-1.8066 1.0696-4.5041 2.455-8.2172 5.1791-16.584 12.166-8.8691 7.4069-11.987 9.6332-17.012 12.147-4.6959 2.3491-8.9088 3.4904-14.257 3.862l-2.712 0.1884z" fill="#0a2a46"/> <path d="m610.86 796.93v-6.6266h2.8103c5.6242 0 11.044-1.2662 16.333-3.816 4.5802-2.2081 9.2124-5.4351 17.502-12.192 8.7163-7.1054 12.546-9.7393 17.718-12.187 6.9722-3.2995 14.579-4.7657 21.383-4.1214 7.729 0.7319 12.944 2.6019 24.559 8.8055 7.3349 3.9178 10.914 5.527 14.524 6.5297 2.2602 0.6278 2.9669 0.6984 7.0114 0.7008 3.8414 0 4.813-0.084 6.6568-0.5889 2.9271-0.8021 6.0978-2.0393 10.673-4.1647 5.127-2.3815 7.1455-3.1753 10.092-3.9688 3.3814-0.9105 7.025-1.1016 10.413-0.546 4.5796 0.7511 8.7125 2.2872 20.539 7.6343 8.9242 4.0348 15.854 6.376 21.442 7.2435 2.2276 0.3459 4.6436 0.4681 9.4008 0.4754 3.5215 0.01 6.3194 0.082 6.2177 0.1712-0.83381 0.7274-4.7529 3.5441-6.1381 4.4115-2.8373 1.7766-6.5857 3.4557-9.3927 4.2076-2.3975 0.6422-3.0929 0.7095-7.4083 0.7166-6.689 0.011-10.946-0.8369-22.73-4.5269-10.228-3.2028-11.245-3.4999-13.977-4.0871-2.1112-0.4537-3.6001-0.5846-6.6849-0.5874-5.7843-0.01-8.1309 0.6696-17.77 5.1114-6.946 3.2008-11.164 4.1425-17.419 3.8891-5.8867-0.2384-9.5542-0.9541-23.283-4.5435-4.6567-1.2175-10.014-2.5108-11.906-2.874-8.7883-1.6875-16.094-1.4914-24.155 0.6485-5.1106 1.3567-9.4782 3.1279-20.692 8.3911-9.8809 4.6375-14.91 6.7069-21.606 8.8897-3.3716 1.0992-10.551 2.9883-13.121 3.4524l-0.99219 0.1792z" fill="#0a2a46"/> <path d="m814.86 810.24c-6.306-0.4222-13.025-1.7043-22.093-4.2157-20.225-5.6015-26.292-6.4019-37.835-4.991-4.2098 0.5145-7.1418 1.0691-18.785 3.5536-18.232 3.8902-21.216 4.3168-30.295 4.3314-11.685 0.019-19.174-1.1687-39.026-6.1885-5.0932-1.2878-10.736-2.5888-12.539-2.8911-6.1624-1.0328-13.532-0.9845-19.969 0.1309-1.2902 0.2235-2.3828 0.3694-2.428 0.3241-0.0453-0.045 1.8438-0.9021 4.1978-1.9041 2.354-1.0021 7.3162-3.3048 11.027-5.1172 12.407-6.0599 18.278-8.3547 24.694-9.6532 2.4494-0.4957 3.7922-0.5966 7.8497-0.5898 6.9341 0.012 9.5182 0.5603 23.019 4.8875 13.907 4.4575 18.917 5.553 25.392 5.553 3.8519 0 7.2999-0.5639 10.653-1.7422 1.0574-0.3716 4.8396-2.0921 8.4048-3.8233 7.2826-3.5363 9.9283-4.4332 13.778-4.671 4.4601-0.2756 7.9902 0.4572 18.8 3.9024 11.938 3.8049 18.292 5.2255 24.439 5.4644 4.2374 0.1646 7.2612-0.1594 10.648-1.1408 6.1186-1.7731 10.685-4.6062 21.896-13.586 13.527-10.835 23.574-14.661 37.353-14.224 7.1342 0.2259 13.079 1.732 19.4 4.9147l3.0427 1.532 0.0688 12.235c0.0651 11.575 0.0437 12.227-0.39688 12.092-3.8441-1.1813-10.748-1.5587-15.547-0.8499-6.0402 0.8923-13.743 3.2261-25.003 7.5756-13.983 5.4013-22.251 7.8076-29.898 8.7018-2.6421 0.3089-8.7687 0.5292-10.848 0.39z" fill="#061a37"/> <path d="m610.86 811.89v-4.3408l1.3891-0.1886c0.76399-0.1038 3.8894-0.8211 6.9453-1.594 11.411-2.8861 16.747-3.6846 24.606-3.6822 6.6949 0 9.0238 0.3285 16.801 2.3543 13.123 3.4183 16.065 4.1504 19.711 4.9067 8.6686 1.7977 15.171 2.6074 22.754 2.8335 8.9393 0.2665 15.334-0.4987 29.104-3.4828 17.178-3.7226 21.615-4.5048 27.716-4.8867 8.404-0.5261 14.46 0.4181 29.792 4.6452 12.527 3.4537 18.316 4.5239 25.836 4.7768 11.992 0.4034 21.112-1.632 39.952-8.9162 9.8717-3.8168 13.437-5.0788 17.992-6.3683 8.981-2.5427 15.244-2.8652 21.63-1.1137l1.5214 0.4173v18.98h-285.75z" fill="#0f0f1a"/> </g> </g> </g> </svg>