<?xml version='1.0' encoding='utf-8'?>
<svg xmlns="http://www.w3.org/2000/svg" width="1323.2mm" height="1323.2mm" version="1.1" viewBox="0 0 1323.2 1323.2"> <g transform="translate(608.41 548.45)"> <g transform="translate(-592.1 -2251)"> <path d="m-16.311 1702.6h1323.2v1323.2h-1323.2z" fill="#fff" stroke-width="1.2252"/> <g transform="matrix(1.1376 0 0 1.1376 5651.6 -1857.8)" stroke-width="1.051"> <path d="m-4968.4 3143.9v294.27c0 161.85 0.2494 294.27 0.5542 294.27 0.7556 0 30.585-25.359 66.587-56.606 67.351-58.454 80.162-68.949 95.429-78.179 15.35-9.2795 28.362-12.07 41.082-8.8116 3.6105 0.9247 14.244 5.1756 23.63 9.448 9.3854 4.2723 20.374 9.2096 24.42 10.969 19.11 8.3108 63.665 25.44 66.173 25.44 0.6468 0 3.2834-2.1636 5.8603-4.8074 7.4388-7.6308 26.323-21.542 61.922-45.619 67.115-45.394 90.883-63.981 162.33-126.93 17.964-15.829 44.487-38.314 58.937-49.967 21.91-17.669 32.129-26.952 61.526-55.887 51.108-50.305 64.654-62.148 76.674-67.029 5.2964-2.1501 7.4956-2.3463 26.274-2.3483 16.162 0 22.223 0.4036 28.677 1.9174 11.133 2.6112 22.588 8.5769 33.63 17.515 5.0788 4.1111 15.854 12.433 23.944 18.492 19.25 14.417 33.51 26.902 71.39 62.504 43.449 40.836 85.487 75.716 142.4 118.15 15.606 11.636 35.937 26.805 45.178 33.706s17.163 12.704 17.603 12.899c0.4407 0.1907 0.8005-90.491 0.8005-201.52v-201.87h-567.51z" fill="#fef7e7"/> <path d="m-3850.7 3786.4c-26.256-14.033-94.74-48.456-115.08-57.843-27.281-12.591-57.272-25.576-85.858-37.173-28.69-11.64-42.072-17.706-63.656-28.858-17.925-9.2613-29.454-13.227-47.014-16.17-18.964-3.1785-21.117-3.0192-31.595 2.3415-21.559 11.031-42.497 25.37-85.988 58.887-44.903 34.606-84.854 63.741-87.402 63.741-2.341 0-10.89-5.0767-33.581-19.942-44.851-29.383-83.531-51.42-110.35-62.868-14.394-6.144-49.99-19.921-96.162-37.216-18.497-6.9289-33.763-12.724-33.924-12.877-1.0856-1.0303 25.107-20.166 63.482-46.379 70.31-48.027 98.371-70.24 155.89-123.41 41.164-38.046 54.062-48.653 83.583-68.735 11.555-7.8607 24.778-17.244 29.383-20.852 11.915-9.3344 33.874-31.535 55.346-55.954 10.165-11.56 20.928-23.294 23.918-26.074 8.2727-7.6932 10.892-8.4944 27.461-8.3982 24.837 0.143 43.417 4.9579 57.119 14.798 28.477 20.451 48.423 37.75 86.335 74.878 56.944 55.767 93.322 86.39 160.79 135.35 16.186 11.746 37.335 27.116 46.998 34.156l17.57 12.8 0.032 117.44c0.02 64.594-0.085 117.42-0.23 117.39-0.1446-0.04-7.8296-4.0992-17.078-9.0424z" fill="#fde9c8"/> <path d="m-3837.1 3965.7c-1.1561-0.5215-18.181-6.9245-37.834-14.228-66.095-24.564-96.543-37.28-121.91-50.914-40.122-21.564-51.251-26.359-75.597-32.57-29.938-7.6379-51.698-9.1064-69.959-4.7216-20.377 4.8928-48.594 24.748-65.692 46.224-8.9402 11.23-16.395 18.202-24.593 23.001-11.717 6.8594-16.478 7.4127-23.936 2.782-2.7839-1.7286-15.804-7.9946-28.933-13.925-31.451-14.206-166.88-78.762-166.86-79.539 0.01-0.3337 2.2694-1.8478 5.0245-3.3667 2.7552-1.5186 12.798-8.4054 22.318-15.304 9.5195-6.8987 31.969-22.402 49.888-34.452 17.919-12.05 38.964-26.408 46.767-31.907 19.071-13.44 74.197-54.911 109.82-82.621 21.381-16.629 28.734-21.61 33.333-22.578 2.2428-0.4723 6.577 0.06 12.384 1.5249 4.9132 1.2381 9.2944 2.299 9.7361 2.357 12.745 1.6786 24.056 6.0952 50.683 19.79 13.037 6.7053 40.419 19.224 62.568 28.605 60.252 25.52 84.486 36.796 152.89 71.132l63.057 31.654 0.2693 80.074c0.1482 44.041-0.088 80.042-0.5255 80.003-0.4371-0.04-1.7405-0.4981-2.8966-1.0196z" fill="#f77b25"/> <path d="m-4968.4 3888.2v-138.56l21.282-17.778c21.878-18.275 61.842-53.052 82.154-71.491 63.269-57.434 74.566-65.415 90.989-64.28 7.7451 0.5354 10.286 1.677 29.426 13.221 30.731 18.535 49.062 25.951 146.08 59.103 70.854 24.211 91.806 32.332 115.6 44.809 16.321 8.5575 60.106 34.865 79.516 47.776 7.9991 5.321 17.495 11.222 21.102 13.113l6.5577 3.4386-3.4049 2.4941c-1.8727 1.3716-10.735 7.6256-19.695 13.898-8.9593 6.2716-24.808 17.853-35.219 25.736-18.24 13.811-23.318 16.816-28.426 16.816-1.3071 0-16.961-7.1414-34.787-15.87-69.469-34.014-88.382-41.28-107.55-41.317-17.962-0.04-33.72 8.0315-79.677 40.785-24.527 17.48-33.167 23.106-67.981 44.26-99.552 60.492-148.24 96.261-200.47 147.26l-15.501 15.139z" fill="#f7b470"/> <path d="m-4486.5 4157c-58.422-27.13-105.95-45.619-149.82-58.287-34.008-9.8198-44.597-11.932-97.324-19.418-20.325-2.8853-45.863-6.8761-56.751-8.8677-42.783-7.8266-44.883-8.1142-63.554-8.7004-11.795-0.3694-21.602-0.1351-26.969 0.6514-21.529 3.1479-45.931 11.104-71.496 23.309-8.3667 3.9947-15.377 7.2629-15.579 7.2629-0.2018 0-0.3666-10.362-0.3666-23.027v-23.027l23.384-22.524c89.721-86.423 147.27-129.69 237.25-178.4 14.162-7.6654 30.95-16.877 37.309-20.471 59.078-33.394 64.85-34.737 99.73-23.21 18.505 6.1155 33.923 12.912 110.83 48.855 36.038 16.844 78.365 36.472 94.06 43.619 15.694 7.1469 36.339 16.652 45.876 21.123 9.5374 4.471 24.908 11.576 34.156 15.788 9.2484 4.2119 19.416 9.1091 22.595 10.882 10.38 5.7885 16.526 4.3923 39.24-8.9138 21.886-12.821 23.536-14.043 39.602-29.325 26.06-24.787 39.214-33.34 56.73-36.887 7.826-1.5844 10.236-1.648 19.443-0.5131 13.365 1.6468 35.038 7.1839 49.601 12.672 12.8 4.8237 28.564 13.258 45.871 24.542 39.435 25.712 74.747 41.13 173.83 75.897l5.5175 1.936v27.642c0 16.12-0.4029 27.643-0.9666 27.643-0.5316 0-16.256-4.6807-34.944-10.401-34.55-10.576-98.522-29.727-123.31-36.913-24.228-7.0242-43.437-9.2716-63.057-7.377-37.895 3.6591-76.772 17.624-177.08 63.608-21.098 9.6716-48.055 21.977-59.904 27.345-11.85 5.3683-25.801 11.752-31.003 14.187-5.2021 2.4345-17.128 7.8926-26.502 12.129-21.057 9.5163-27.65 13.342-44.962 26.088-23.158 17.051-40.344 26.011-61.486 32.058-17.77 5.0827-16.838 5.1133-29.947-0.9743z" fill="#e54b1a"/> <path d="m-4086.1 4278.2c-41.672-9.7979-78.693-19.814-126.11-34.121-52.821-15.937-65.419-19.449-116.13-32.378-47.999-12.238-69.746-18.461-89.416-25.591-12.76-4.6247-36.984-14.408-38.035-15.361-0.4464-0.4048 3.6607-2.5064 9.1269-4.6696 12.019-4.7574 29.908-14.87 53.165-30.055 20.73-13.534 20.166-13.242 47.312-24.501 39.018-16.183 80.61-35.486 147.64-68.52 45.466-22.407 53.058-26.026 69.888-33.309 41.177-17.82 71.805-24.851 96.172-22.079 16.332 1.8585 27.907 5.2841 65.752 19.459 43.612 16.335 84.041 30.197 120.52 41.323l12.874 3.9268v226.61l-125.33-0.1231c-68.929-0.068-126.27-0.3456-127.43-0.6161z" fill="#a07195"/> <path d="m-4968.1 4189.4 0.2685-89.552 9.984-5.0116c24.568-12.332 51.666-22.091 72.864-26.24 8.7119-1.7053 15.529-2.2915 26.45-2.2756 17.303 0.04 21.495 0.5715 67.786 8.8402 19.364 3.4585 44.429 7.9335 55.7 9.9437 49.041 8.747 75.996 15.86 124.01 32.724 40.23 14.13 66.268 24.825 128.74 52.881 52.411 23.537 79.866 32.682 148.65 49.509 41.514 10.156 63.519 16.134 104.1 28.279 41.748 12.494 65.063 19.154 88.28 25.219l19.442 5.0783-846.55 0.159z" fill="#743523"/> <path d="m-4724.5 3226.9c-0.4636 0-3.59 0.945-6.9461 2.0997-17.579 6.0479-37.679 22.142-49.881 39.938-27.757 40.482-22.985 86.997 12.427 121.13 17.009 16.397 35.615 26.266 58.993 31.288 22.594 4.8543 46.728 1.4331 66.99-9.4957 15.095-8.1424 24.426-16.575 34.059-30.785l6.2668-9.2451-5.2527 2.6621c-10.237 5.1876-20.443 7.3444-34.802 7.3484-22.237 0-39.137-5.091-58.19-17.558-10.738-7.0266-25.061-20.834-29.539-28.476-4.7644-8.1297-8.783-19.019-10.639-28.823-4.0444-21.366 1.1955-50.123 13.184-72.349 2.2957-4.2565 3.795-7.7384 3.3314-7.7384z" fill="#fac79e"/> </g> </g> </g> </svg>